<svg version="1.1"
baseProfile="full"
xmlns="http://www.w3.org/2000/svg">
<polygon points="150,0 0,259.808 300,259.808 " style="fill:red" />
<polygon points="28.8675,209.808 28.8675,259.808 58.8675,259.808 58.8675,209.808 " style="fill:green" />
<polygon points="58.8675,209.808 58.8675,259.808 88.8675,259.808 88.8675,209.808 " style="fill:green" />
<polygon points="88.8675,209.808 88.8675,259.808 118.868,259.808 118.868,209.808 " style="fill:green" />
<polygon points="118.868,209.808 118.868,259.808 148.868,259.808 148.868,209.808 " style="fill:green" />
<polygon points="148.868,209.808 148.868,259.808 178.868,259.808 178.868,209.808 " style="fill:green" />
<polygon points="178.868,209.808 178.868,259.808 208.868,259.808 208.868,209.808 " style="fill:green" />
<polygon points="208.868,209.808 208.868,259.808 238.868,259.808 238.868,209.808 " style="fill:green" />
<polygon points="238.868,209.808 238.868,259.808 268.868,259.808 268.868,209.808 " style="fill:green" />
<polygon points="57.735,159.808 57.735,209.808 87.735,209.808 87.735,159.808 " style="fill:green" />
<polygon points="87.735,159.808 87.735,209.808 117.735,209.808 117.735,159.808 " style="fill:green" />
<polygon points="117.735,159.808 117.735,209.808 147.735,209.808 147.735,159.808 " style="fill:green" />
<polygon points="147.735,159.808 147.735,209.808 177.735,209.808 177.735,159.808 " style="fill:green" />
<polygon points="177.735,159.808 177.735,209.808 207.735,209.808 207.735,159.808 " style="fill:green" />
<polygon points="207.735,159.808 207.735,209.808 237.735,209.808 237.735,159.808 " style="fill:green" />
<polygon points="86.6025,109.808 86.6025,159.808 116.603,159.808 116.603,109.808 " style="fill:green" />
<polygon points="116.603,109.808 116.603,159.808 146.603,159.808 146.603,109.808 " style="fill:green" />
<polygon points="146.603,109.808 146.603,159.808 176.603,159.808 176.603,109.808 " style="fill:green" />
<polygon points="176.603,109.808 176.603,159.808 206.603,159.808 206.603,109.808 " style="fill:green" />
<polygon points="115.47,59.8076 115.47,109.808 145.47,109.808 145.47,59.8076 " style="fill:green" />
<polygon points="145.47,59.8076 145.47,109.808 175.47,109.808 175.47,59.8076 " style="fill:green" />
</svg>