<svg version="1.1"
baseProfile="full"
xmlns="http://www.w3.org/2000/svg">
<polygon points="150,0 0,259.808 300,259.808 " style="fill:red" />
<polygon points="60.1051,237.808 60.0617,239.189 59.9316,240.565 59.7154,241.93 59.4139,243.279 59.0284,244.606 58.5602,245.906 58.0113,247.175 57.3839,248.406 56.6803,249.596 55.9035,250.739 55.0564,251.831 54.1424,252.868 53.1652,253.845 52.1284,254.759 51.0364,255.606 49.8933,256.383 48.7037,257.086 47.4723,257.714 46.2039,258.263 44.9035,258.731 43.5763,259.116 42.2275,259.418 40.8624,259.634 39.4865,259.764 38.1051,259.808 36.7237,259.764 35.3478,259.634 33.9827,259.418 32.6339,259.116 31.3067,258.731 30.0064,258.263 28.738,257.714 27.5065,257.086 26.3169,256.383 25.1738,255.606 24.0818,254.759 23.0451,253.845 22.0678,252.868 21.1538,251.831 20.3067,250.739 19.5299,249.596 18.8264,248.406 18.1989,247.175 17.65,245.906 17.1819,244.606 16.7963,243.279 16.4948,241.93 16.2786,240.565 16.1485,239.189 16.1051,237.808 16.1485,236.426 16.2786,235.05 16.4948,233.685 16.7963,232.336 17.1819,231.009 17.65,229.709 18.1989,228.44 18.8264,227.209 19.5299,226.019 20.3067,224.876 21.1538,223.784 22.0678,222.748 23.0451,221.77 24.0818,220.856 25.1738,220.009 26.3169,219.232 27.5065,218.529 28.738,217.901 30.0064,217.353 31.3067,216.884 32.6339,216.499 33.9827,216.197 35.3478,215.981 36.7237,215.851 38.1051,215.808 39.4865,215.851 40.8624,215.981 42.2275,216.197 43.5763,216.499 44.9035,216.884 46.2039,217.353 47.4723,217.901 48.7037,218.529 49.8933,219.232 51.0364,220.009 52.1284,220.856 53.1652,221.77 54.1424,222.748 55.0564,223.784 55.9035,224.876 56.6803,226.019 57.3839,227.209 58.0113,228.44 58.5602,229.709 59.0284,231.009 59.4139,232.336 59.7154,233.685 59.9316,235.05 60.0617,236.426 " style="fill:green" />
<polygon points="104.105,237.808 104.062,239.189 103.932,240.565 103.715,241.93 103.414,243.279 103.028,244.606 102.56,245.906 102.011,247.175 101.384,248.406 100.68,249.596 99.9035,250.739 99.0564,251.831 98.1424,252.868 97.1652,253.845 96.1284,254.759 95.0364,255.606 93.8933,256.383 92.7037,257.086 91.4723,257.714 90.2039,258.263 88.9035,258.731 87.5763,259.116 86.2275,259.418 84.8624,259.634 83.4865,259.764 82.1051,259.808 80.7237,259.764 79.3478,259.634 77.9827,259.418 76.6339,259.116 75.3067,258.731 74.0064,258.263 72.738,257.714 71.5065,257.086 70.3169,256.383 69.1738,255.606 68.0818,254.759 67.0451,253.845 66.0678,252.868 65.1538,251.831 64.3067,250.739 63.5299,249.596 62.8264,248.406 62.1989,247.175 61.65,245.906 61.1819,244.606 60.7963,243.279 60.4948,241.93 60.2786,240.565 60.1485,239.189 60.1051,237.808 60.1485,236.426 60.2786,235.05 60.4948,233.685 60.7963,232.336 61.1819,231.009 61.65,229.709 62.1989,228.44 62.8264,227.209 63.5299,226.019 64.3067,224.876 65.1538,223.784 66.0678,222.748 67.0451,221.77 68.0818,220.856 69.1738,220.009 70.3169,219.232 71.5065,218.529 72.738,217.901 74.0064,217.353 75.3067,216.884 76.6339,216.499 77.9827,216.197 79.3478,215.981 80.7237,215.851 82.1051,215.808 83.4865,215.851 84.8624,215.981 86.2275,216.197 87.5763,216.499 88.9035,216.884 90.2039,217.353 91.4723,217.901 92.7037,218.529 93.8933,219.232 95.0364,220.009 96.1284,220.856 97.1652,221.77 98.1424,222.748 99.0564,223.784 99.9035,224.876 100.68,226.019 101.384,227.209 102.011,228.44 102.56,229.709 103.028,231.009 103.414,232.336 103.715,233.685 103.932,235.05 104.062,236.426 " style="fill:green" />
<polygon points="148.105,237.808 148.062,239.189 147.932,240.565 147.715,241.93 147.414,243.279 147.028,244.606 146.56,245.906 146.011,247.175 145.384,248.406 144.68,249.596 143.903,250.739 143.056,251.831 142.142,252.868 141.165,253.845 140.128,254.759 139.036,255.606 137.893,256.383 136.704,257.086 135.472,257.714 134.204,258.263 132.903,258.731 131.576,259.116 130.228,259.418 128.862,259.634 127.487,259.764 126.105,259.808 124.724,259.764 123.348,259.634 121.983,259.418 120.634,259.116 119.307,258.731 118.006,258.263 116.738,257.714 115.507,257.086 114.317,256.383 113.174,255.606 112.082,254.759 111.045,253.845 110.068,252.868 109.154,251.831 108.307,250.739 107.53,249.596 106.826,248.406 106.199,247.175 105.65,245.906 105.182,244.606 104.796,243.279 104.495,241.93 104.279,240.565 104.149,239.189 104.105,237.808 104.149,236.426 104.279,235.05 104.495,233.685 104.796,232.336 105.182,231.009 105.65,229.709 106.199,228.44 106.826,227.209 107.53,226.019 108.307,224.876 109.154,223.784 110.068,222.748 111.045,221.77 112.082,220.856 113.174,220.009 114.317,219.232 115.507,218.529 116.738,217.901 118.006,217.353 119.307,216.884 120.634,216.499 121.983,216.197 123.348,215.981 124.724,215.851 126.105,215.808 127.487,215.851 128.862,215.981 130.228,216.197 131.576,216.499 132.903,216.884 134.204,217.353 135.472,217.901 136.704,218.529 137.893,219.232 139.036,220.009 140.128,220.856 141.165,221.77 142.142,222.748 143.056,223.784 143.903,224.876 144.68,226.019 145.384,227.209 146.011,228.44 146.56,229.709 147.028,231.009 147.414,232.336 147.715,233.685 147.932,235.05 148.062,236.426 " style="fill:green" />
<polygon points="192.105,237.808 192.062,239.189 191.932,240.565 191.715,241.93 191.414,243.279 191.028,244.606 190.56,245.906 190.011,247.175 189.384,248.406 188.68,249.596 187.903,250.739 187.056,251.831 186.142,252.868 185.165,253.845 184.128,254.759 183.036,255.606 181.893,256.383 180.704,257.086 179.472,257.714 178.204,258.263 176.903,258.731 175.576,259.116 174.228,259.418 172.862,259.634 171.487,259.764 170.105,259.808 168.724,259.764 167.348,259.634 165.983,259.418 164.634,259.116 163.307,258.731 162.006,258.263 160.738,257.714 159.507,257.086 158.317,256.383 157.174,255.606 156.082,254.759 155.045,253.845 154.068,252.868 153.154,251.831 152.307,250.739 151.53,249.596 150.826,248.406 150.199,247.175 149.65,245.906 149.182,244.606 148.796,243.279 148.495,241.93 148.279,240.565 148.149,239.189 148.105,237.808 148.149,236.426 148.279,235.05 148.495,233.685 148.796,232.336 149.182,231.009 149.65,229.709 150.199,228.44 150.826,227.209 151.53,226.019 152.307,224.876 153.154,223.784 154.068,222.748 155.045,221.77 156.082,220.856 157.174,220.009 158.317,219.232 159.507,218.529 160.738,217.901 162.006,217.353 163.307,216.884 164.634,216.499 165.983,216.197 167.348,215.981 168.724,215.851 170.105,215.808 171.487,215.851 172.862,215.981 174.228,216.197 175.576,216.499 176.903,216.884 178.204,217.353 179.472,217.901 180.704,218.529 181.893,219.232 183.036,220.009 184.128,220.856 185.165,221.77 186.142,222.748 187.056,223.784 187.903,224.876 188.68,226.019 189.384,227.209 190.011,228.44 190.56,229.709 191.028,231.009 191.414,232.336 191.715,233.685 191.932,235.05 192.062,236.426 " style="fill:green" />
<polygon points="236.105,237.808 236.062,239.189 235.932,240.565 235.715,241.93 235.414,243.279 235.028,244.606 234.56,245.906 234.011,247.175 233.384,248.406 232.68,249.596 231.903,250.739 231.056,251.831 230.142,252.868 229.165,253.845 228.128,254.759 227.036,255.606 225.893,256.383 224.704,257.086 223.472,257.714 222.204,258.263 220.903,258.731 219.576,259.116 218.228,259.418 216.862,259.634 215.487,259.764 214.105,259.808 212.724,259.764 211.348,259.634 209.983,259.418 208.634,259.116 207.307,258.731 206.006,258.263 204.738,257.714 203.507,257.086 202.317,256.383 201.174,255.606 200.082,254.759 199.045,253.845 198.068,252.868 197.154,251.831 196.307,250.739 195.53,249.596 194.826,248.406 194.199,247.175 193.65,245.906 193.182,244.606 192.796,243.279 192.495,241.93 192.279,240.565 192.149,239.189 192.105,237.808 192.149,236.426 192.279,235.05 192.495,233.685 192.796,232.336 193.182,231.009 193.65,229.709 194.199,228.44 194.826,227.209 195.53,226.019 196.307,224.876 197.154,223.784 198.068,222.748 199.045,221.77 200.082,220.856 201.174,220.009 202.317,219.232 203.507,218.529 204.738,217.901 206.006,217.353 207.307,216.884 208.634,216.499 209.983,216.197 211.348,215.981 212.724,215.851 214.105,215.808 215.487,215.851 216.862,215.981 218.228,216.197 219.576,216.499 220.903,216.884 222.204,217.353 223.472,217.901 224.704,218.529 225.893,219.232 227.036,220.009 228.128,220.856 229.165,221.77 230.142,222.748 231.056,223.784 231.903,224.876 232.68,226.019 233.384,227.209 234.011,228.44 234.56,229.709 235.028,231.009 235.414,232.336 235.715,233.685 235.932,235.05 236.062,236.426 " style="fill:green" />
<polygon points="280.105,237.808 280.062,239.189 279.932,240.565 279.715,241.93 279.414,243.279 279.028,244.606 278.56,245.906 278.011,247.175 277.384,248.406 276.68,249.596 275.903,250.739 275.056,251.831 274.142,252.868 273.165,253.845 272.128,254.759 271.036,255.606 269.893,256.383 268.704,257.086 267.472,257.714 266.204,258.263 264.903,258.731 263.576,259.116 262.228,259.418 260.862,259.634 259.487,259.764 258.105,259.808 256.724,259.764 255.348,259.634 253.983,259.418 252.634,259.116 251.307,258.731 250.006,258.263 248.738,257.714 247.507,257.086 246.317,256.383 245.174,255.606 244.082,254.759 243.045,253.845 242.068,252.868 241.154,251.831 240.307,250.739 239.53,249.596 238.826,248.406 238.199,247.175 237.65,245.906 237.182,244.606 236.796,243.279 236.495,241.93 236.279,240.565 236.149,239.189 236.105,237.808 236.149,236.426 236.279,235.05 236.495,233.685 236.796,232.336 237.182,231.009 237.65,229.709 238.199,228.44 238.826,227.209 239.53,226.019 240.307,224.876 241.154,223.784 242.068,222.748 243.045,221.77 244.082,220.856 245.174,220.009 246.317,219.232 247.507,218.529 248.738,217.901 250.006,217.353 251.307,216.884 252.634,216.499 253.983,216.197 255.348,215.981 256.724,215.851 258.105,215.808 259.487,215.851 260.862,215.981 262.228,216.197 263.576,216.499 264.903,216.884 266.204,217.353 267.472,217.901 268.704,218.529 269.893,219.232 271.036,220.009 272.128,220.856 273.165,221.77 274.142,222.748 275.056,223.784 275.903,224.876 276.68,226.019 277.384,227.209 278.011,228.44 278.56,229.709 279.028,231.009 279.414,232.336 279.715,233.685 279.932,235.05 280.062,236.426 " style="fill:green" />
<polygon points="82.1051,199.703 82.0617,201.084 81.9316,202.46 81.7154,203.825 81.4139,205.174 81.0284,206.501 80.5602,207.801 80.0113,209.07 79.3839,210.301 78.6803,211.491 77.9035,212.634 77.0564,213.726 76.1424,214.763 75.1652,215.74 74.1284,216.654 73.0364,217.501 71.8933,218.278 70.7037,218.981 69.4723,219.609 68.2039,220.158 66.9035,220.626 65.5763,221.011 64.2275,221.313 62.8624,221.529 61.4865,221.659 60.1051,221.703 58.7237,221.659 57.3478,221.529 55.9827,221.313 54.6339,221.011 53.3067,220.626 52.0064,220.158 50.738,219.609 49.5065,218.981 48.3169,218.278 47.1738,217.501 46.0818,216.654 45.0451,215.74 44.0678,214.763 43.1538,213.726 42.3067,212.634 41.5299,211.491 40.8264,210.301 40.1989,209.07 39.65,207.801 39.1819,206.501 38.7963,205.174 38.4948,203.825 38.2786,202.46 38.1485,201.084 38.1051,199.703 38.1485,198.321 38.2786,196.945 38.4948,195.58 38.7963,194.231 39.1819,192.904 39.65,191.604 40.1989,190.335 40.8264,189.104 41.5299,187.914 42.3067,186.771 43.1538,185.679 44.0678,184.642 45.0451,183.665 46.0818,182.751 47.1738,181.904 48.3169,181.127 49.5065,180.424 50.738,179.796 52.0064,179.247 53.3067,178.779 54.6339,178.394 55.9827,178.092 57.3478,177.876 58.7237,177.746 60.1051,177.703 61.4865,177.746 62.8624,177.876 64.2275,178.092 65.5763,178.394 66.9035,178.779 68.2039,179.247 69.4723,179.796 70.7037,180.424 71.8933,181.127 73.0364,181.904 74.1284,182.751 75.1652,183.665 76.1424,184.642 77.0564,185.679 77.9035,186.771 78.6803,187.914 79.3839,189.104 80.0113,190.335 80.5602,191.604 81.0284,192.904 81.4139,194.231 81.7154,195.58 81.9316,196.945 82.0617,198.321 " style="fill:green" />
<polygon points="126.105,199.703 126.062,201.084 125.932,202.46 125.715,203.825 125.414,205.174 125.028,206.501 124.56,207.801 124.011,209.07 123.384,210.301 122.68,211.491 121.903,212.634 121.056,213.726 120.142,214.763 119.165,215.74 118.128,216.654 117.036,217.501 115.893,218.278 114.704,218.981 113.472,219.609 112.204,220.158 110.903,220.626 109.576,221.011 108.228,221.313 106.862,221.529 105.487,221.659 104.105,221.703 102.724,221.659 101.348,221.529 99.9827,221.313 98.6339,221.011 97.3067,220.626 96.0064,220.158 94.738,219.609 93.5065,218.981 92.3169,218.278 91.1738,217.501 90.0818,216.654 89.0451,215.74 88.0678,214.763 87.1538,213.726 86.3067,212.634 85.5299,211.491 84.8264,210.301 84.1989,209.07 83.65,207.801 83.1819,206.501 82.7963,205.174 82.4948,203.825 82.2786,202.46 82.1485,201.084 82.1051,199.703 82.1485,198.321 82.2786,196.945 82.4948,195.58 82.7963,194.231 83.1819,192.904 83.65,191.604 84.1989,190.335 84.8264,189.104 85.5299,187.914 86.3067,186.771 87.1538,185.679 88.0678,184.642 89.0451,183.665 90.0818,182.751 91.1738,181.904 92.3169,181.127 93.5065,180.424 94.738,179.796 96.0064,179.247 97.3067,178.779 98.6339,178.394 99.9827,178.092 101.348,177.876 102.724,177.746 104.105,177.703 105.487,177.746 106.862,177.876 108.228,178.092 109.576,178.394 110.903,178.779 112.204,179.247 113.472,179.796 114.704,180.424 115.893,181.127 117.036,181.904 118.128,182.751 119.165,183.665 120.142,184.642 121.056,185.679 121.903,186.771 122.68,187.914 123.384,189.104 124.011,190.335 124.56,191.604 125.028,192.904 125.414,194.231 125.715,195.58 125.932,196.945 126.062,198.321 " style="fill:green" />
<polygon points="170.105,199.703 170.062,201.084 169.932,202.46 169.715,203.825 169.414,205.174 169.028,206.501 168.56,207.801 168.011,209.07 167.384,210.301 166.68,211.491 165.903,212.634 165.056,213.726 164.142,214.763 163.165,215.74 162.128,216.654 161.036,217.501 159.893,218.278 158.704,218.981 157.472,219.609 156.204,220.158 154.903,220.626 153.576,221.011 152.228,221.313 150.862,221.529 149.487,221.659 148.105,221.703 146.724,221.659 145.348,221.529 143.983,221.313 142.634,221.011 141.307,220.626 140.006,220.158 138.738,219.609 137.507,218.981 136.317,218.278 135.174,217.501 134.082,216.654 133.045,215.74 132.068,214.763 131.154,213.726 130.307,212.634 129.53,211.491 128.826,210.301 128.199,209.07 127.65,207.801 127.182,206.501 126.796,205.174 126.495,203.825 126.279,202.46 126.149,201.084 126.105,199.703 126.149,198.321 126.279,196.945 126.495,195.58 126.796,194.231 127.182,192.904 127.65,191.604 128.199,190.335 128.826,189.104 129.53,187.914 130.307,186.771 131.154,185.679 132.068,184.642 133.045,183.665 134.082,182.751 135.174,181.904 136.317,181.127 137.507,180.424 138.738,179.796 140.006,179.247 141.307,178.779 142.634,178.394 143.983,178.092 145.348,177.876 146.724,177.746 148.105,177.703 149.487,177.746 150.862,177.876 152.228,178.092 153.576,178.394 154.903,178.779 156.204,179.247 157.472,179.796 158.704,180.424 159.893,181.127 161.036,181.904 162.128,182.751 163.165,183.665 164.142,184.642 165.056,185.679 165.903,186.771 166.68,187.914 167.384,189.104 168.011,190.335 168.56,191.604 169.028,192.904 169.414,194.231 169.715,195.58 169.932,196.945 170.062,198.321 " style="fill:green" />
<polygon points="214.105,199.703 214.062,201.084 213.932,202.46 213.715,203.825 213.414,205.174 213.028,206.501 212.56,207.801 212.011,209.07 211.384,210.301 210.68,211.491 209.903,212.634 209.056,213.726 208.142,214.763 207.165,215.74 206.128,216.654 205.036,217.501 203.893,218.278 202.704,218.981 201.472,219.609 200.204,220.158 198.903,220.626 197.576,221.011 196.228,221.313 194.862,221.529 193.487,221.659 192.105,221.703 190.724,221.659 189.348,221.529 187.983,221.313 186.634,221.011 185.307,220.626 184.006,220.158 182.738,219.609 181.507,218.981 180.317,218.278 179.174,217.501 178.082,216.654 177.045,215.74 176.068,214.763 175.154,213.726 174.307,212.634 173.53,211.491 172.826,210.301 172.199,209.07 171.65,207.801 171.182,206.501 170.796,205.174 170.495,203.825 170.279,202.46 170.149,201.084 170.105,199.703 170.149,198.321 170.279,196.945 170.495,195.58 170.796,194.231 171.182,192.904 171.65,191.604 172.199,190.335 172.826,189.104 173.53,187.914 174.307,186.771 175.154,185.679 176.068,184.642 177.045,183.665 178.082,182.751 179.174,181.904 180.317,181.127 181.507,180.424 182.738,179.796 184.006,179.247 185.307,178.779 186.634,178.394 187.983,178.092 189.348,177.876 190.724,177.746 192.105,177.703 193.487,177.746 194.862,177.876 196.228,178.092 197.576,178.394 198.903,178.779 200.204,179.247 201.472,179.796 202.704,180.424 203.893,181.127 205.036,181.904 206.128,182.751 207.165,183.665 208.142,184.642 209.056,185.679 209.903,186.771 210.68,187.914 211.384,189.104 212.011,190.335 212.56,191.604 213.028,192.904 213.414,194.231 213.715,195.58 213.932,196.945 214.062,198.321 " style="fill:green" />
<polygon points="258.105,199.703 258.062,201.084 257.932,202.46 257.715,203.825 257.414,205.174 257.028,206.501 256.56,207.801 256.011,209.07 255.384,210.301 254.68,211.491 253.903,212.634 253.056,213.726 252.142,214.763 251.165,215.74 250.128,216.654 249.036,217.501 247.893,218.278 246.704,218.981 245.472,219.609 244.204,220.158 242.903,220.626 241.576,221.011 240.228,221.313 238.862,221.529 237.487,221.659 236.105,221.703 234.724,221.659 233.348,221.529 231.983,221.313 230.634,221.011 229.307,220.626 228.006,220.158 226.738,219.609 225.507,218.981 224.317,218.278 223.174,217.501 222.082,216.654 221.045,215.74 220.068,214.763 219.154,213.726 218.307,212.634 217.53,211.491 216.826,210.301 216.199,209.07 215.65,207.801 215.182,206.501 214.796,205.174 214.495,203.825 214.279,202.46 214.149,201.084 214.105,199.703 214.149,198.321 214.279,196.945 214.495,195.58 214.796,194.231 215.182,192.904 215.65,191.604 216.199,190.335 216.826,189.104 217.53,187.914 218.307,186.771 219.154,185.679 220.068,184.642 221.045,183.665 222.082,182.751 223.174,181.904 224.317,181.127 225.507,180.424 226.738,179.796 228.006,179.247 229.307,178.779 230.634,178.394 231.983,178.092 233.348,177.876 234.724,177.746 236.105,177.703 237.487,177.746 238.862,177.876 240.228,178.092 241.576,178.394 242.903,178.779 244.204,179.247 245.472,179.796 246.704,180.424 247.893,181.127 249.036,181.904 250.128,182.751 251.165,183.665 252.142,184.642 253.056,185.679 253.903,186.771 254.68,187.914 255.384,189.104 256.011,190.335 256.56,191.604 257.028,192.904 257.414,194.231 257.715,195.58 257.932,196.945 258.062,198.321 " style="fill:green" />
<polygon points="104.105,161.597 104.062,162.979 103.932,164.355 103.715,165.72 103.414,167.069 103.028,168.396 102.56,169.696 102.011,170.965 101.384,172.196 100.68,173.386 99.9035,174.529 99.0564,175.621 98.1424,176.657 97.1652,177.635 96.1284,178.549 95.0364,179.396 93.8933,180.173 92.7037,180.876 91.4723,181.504 90.2039,182.052 88.9035,182.521 87.5763,182.906 86.2275,183.208 84.8624,183.424 83.4865,183.554 82.1051,183.597 80.7237,183.554 79.3478,183.424 77.9827,183.208 76.6339,182.906 75.3067,182.521 74.0064,182.052 72.738,181.504 71.5065,180.876 70.3169,180.173 69.1738,179.396 68.0818,178.549 67.0451,177.635 66.0678,176.657 65.1538,175.621 64.3067,174.529 63.5299,173.386 62.8264,172.196 62.1989,170.965 61.65,169.696 61.1819,168.396 60.7963,167.069 60.4948,165.72 60.2786,164.355 60.1485,162.979 60.1051,161.597 60.1485,160.216 60.2786,158.84 60.4948,157.475 60.7963,156.126 61.1819,154.799 61.65,153.499 62.1989,152.23 62.8264,150.999 63.5299,149.809 64.3067,148.666 65.1538,147.574 66.0678,146.537 67.0451,145.56 68.0818,144.646 69.1738,143.799 70.3169,143.022 71.5065,142.319 72.738,141.691 74.0064,141.142 75.3067,140.674 76.6339,140.289 77.9827,139.987 79.3478,139.771 80.7237,139.641 82.1051,139.597 83.4865,139.641 84.8624,139.771 86.2275,139.987 87.5763,140.289 88.9035,140.674 90.2039,141.142 91.4723,141.691 92.7037,142.319 93.8933,143.022 95.0364,143.799 96.1284,144.646 97.1652,145.56 98.1424,146.537 99.0564,147.574 99.9035,148.666 100.68,149.809 101.384,150.999 102.011,152.23 102.56,153.499 103.028,154.799 103.414,156.126 103.715,157.475 103.932,158.84 104.062,160.216 " style="fill:green" />
<polygon points="148.105,161.597 148.062,162.979 147.932,164.355 147.715,165.72 147.414,167.069 147.028,168.396 146.56,169.696 146.011,170.965 145.384,172.196 144.68,173.386 143.903,174.529 143.056,175.621 142.142,176.657 141.165,177.635 140.128,178.549 139.036,179.396 137.893,180.173 136.704,180.876 135.472,181.504 134.204,182.052 132.903,182.521 131.576,182.906 130.228,183.208 128.862,183.424 127.487,183.554 126.105,183.597 124.724,183.554 123.348,183.424 121.983,183.208 120.634,182.906 119.307,182.521 118.006,182.052 116.738,181.504 115.507,180.876 114.317,180.173 113.174,179.396 112.082,178.549 111.045,177.635 110.068,176.657 109.154,175.621 108.307,174.529 107.53,173.386 106.826,172.196 106.199,170.965 105.65,169.696 105.182,168.396 104.796,167.069 104.495,165.72 104.279,164.355 104.149,162.979 104.105,161.597 104.149,160.216 104.279,158.84 104.495,157.475 104.796,156.126 105.182,154.799 105.65,153.499 106.199,152.23 106.826,150.999 107.53,149.809 108.307,148.666 109.154,147.574 110.068,146.537 111.045,145.56 112.082,144.646 113.174,143.799 114.317,143.022 115.507,142.319 116.738,141.691 118.006,141.142 119.307,140.674 120.634,140.289 121.983,139.987 123.348,139.771 124.724,139.641 126.105,139.597 127.487,139.641 128.862,139.771 130.228,139.987 131.576,140.289 132.903,140.674 134.204,141.142 135.472,141.691 136.704,142.319 137.893,143.022 139.036,143.799 140.128,144.646 141.165,145.56 142.142,146.537 143.056,147.574 143.903,148.666 144.68,149.809 145.384,150.999 146.011,152.23 146.56,153.499 147.028,154.799 147.414,156.126 147.715,157.475 147.932,158.84 148.062,160.216 " style="fill:green" />
<polygon points="192.105,161.597 192.062,162.979 191.932,164.355 191.715,165.72 191.414,167.069 191.028,168.396 190.56,169.696 190.011,170.965 189.384,172.196 188.68,173.386 187.903,174.529 187.056,175.621 186.142,176.657 185.165,177.635 184.128,178.549 183.036,179.396 181.893,180.173 180.704,180.876 179.472,181.504 178.204,182.052 176.903,182.521 175.576,182.906 174.228,183.208 172.862,183.424 171.487,183.554 170.105,183.597 168.724,183.554 167.348,183.424 165.983,183.208 164.634,182.906 163.307,182.521 162.006,182.052 160.738,181.504 159.507,180.876 158.317,180.173 157.174,179.396 156.082,178.549 155.045,177.635 154.068,176.657 153.154,175.621 152.307,174.529 151.53,173.386 150.826,172.196 150.199,170.965 149.65,169.696 149.182,168.396 148.796,167.069 148.495,165.72 148.279,164.355 148.149,162.979 148.105,161.597 148.149,160.216 148.279,158.84 148.495,157.475 148.796,156.126 149.182,154.799 149.65,153.499 150.199,152.23 150.826,150.999 151.53,149.809 152.307,148.666 153.154,147.574 154.068,146.537 155.045,145.56 156.082,144.646 157.174,143.799 158.317,143.022 159.507,142.319 160.738,141.691 162.006,141.142 163.307,140.674 164.634,140.289 165.983,139.987 167.348,139.771 168.724,139.641 170.105,139.597 171.487,139.641 172.862,139.771 174.228,139.987 175.576,140.289 176.903,140.674 178.204,141.142 179.472,141.691 180.704,142.319 181.893,143.022 183.036,143.799 184.128,144.646 185.165,145.56 186.142,146.537 187.056,147.574 187.903,148.666 188.68,149.809 189.384,150.999 190.011,152.23 190.56,153.499 191.028,154.799 191.414,156.126 191.715,157.475 191.932,158.84 192.062,160.216 " style="fill:green" />
<polygon points="236.105,161.597 236.062,162.979 235.932,164.355 235.715,165.72 235.414,167.069 235.028,168.396 234.56,169.696 234.011,170.965 233.384,172.196 232.68,173.386 231.903,174.529 231.056,175.621 230.142,176.657 229.165,177.635 228.128,178.549 227.036,179.396 225.893,180.173 224.704,180.876 223.472,181.504 222.204,182.052 220.903,182.521 219.576,182.906 218.228,183.208 216.862,183.424 215.487,183.554 214.105,183.597 212.724,183.554 211.348,183.424 209.983,183.208 208.634,182.906 207.307,182.521 206.006,182.052 204.738,181.504 203.507,180.876 202.317,180.173 201.174,179.396 200.082,178.549 199.045,177.635 198.068,176.657 197.154,175.621 196.307,174.529 195.53,173.386 194.826,172.196 194.199,170.965 193.65,169.696 193.182,168.396 192.796,167.069 192.495,165.72 192.279,164.355 192.149,162.979 192.105,161.597 192.149,160.216 192.279,158.84 192.495,157.475 192.796,156.126 193.182,154.799 193.65,153.499 194.199,152.23 194.826,150.999 195.53,149.809 196.307,148.666 197.154,147.574 198.068,146.537 199.045,145.56 200.082,144.646 201.174,143.799 202.317,143.022 203.507,142.319 204.738,141.691 206.006,141.142 207.307,140.674 208.634,140.289 209.983,139.987 211.348,139.771 212.724,139.641 214.105,139.597 215.487,139.641 216.862,139.771 218.228,139.987 219.576,140.289 220.903,140.674 222.204,141.142 223.472,141.691 224.704,142.319 225.893,143.022 227.036,143.799 228.128,144.646 229.165,145.56 230.142,146.537 231.056,147.574 231.903,148.666 232.68,149.809 233.384,150.999 234.011,152.23 234.56,153.499 235.028,154.799 235.414,156.126 235.715,157.475 235.932,158.84 236.062,160.216 " style="fill:green" />
<polygon points="126.105,123.492 126.062,124.874 125.932,126.25 125.715,127.615 125.414,128.963 125.028,130.291 124.56,131.591 124.011,132.859 123.384,134.091 122.68,135.28 121.903,136.424 121.056,137.516 120.142,138.552 119.165,139.53 118.128,140.444 117.036,141.291 115.893,142.067 114.704,142.771 113.472,143.398 112.204,143.947 110.903,144.416 109.576,144.801 108.228,145.103 106.862,145.319 105.487,145.449 104.105,145.492 102.724,145.449 101.348,145.319 99.9827,145.103 98.6339,144.801 97.3067,144.416 96.0064,143.947 94.738,143.398 93.5065,142.771 92.3169,142.067 91.1738,141.291 90.0818,140.444 89.0451,139.53 88.0678,138.552 87.1538,137.516 86.3067,136.424 85.5299,135.28 84.8264,134.091 84.1989,132.859 83.65,131.591 83.1819,130.291 82.7963,128.963 82.4948,127.615 82.2786,126.25 82.1485,124.874 82.1051,123.492 82.1485,122.111 82.2786,120.735 82.4948,119.37 82.7963,118.021 83.1819,116.694 83.65,115.394 84.1989,114.125 84.8264,112.894 85.5299,111.704 86.3067,110.561 87.1538,109.469 88.0678,108.432 89.0451,107.455 90.0818,106.541 91.1738,105.694 92.3169,104.917 93.5065,104.214 94.738,103.586 96.0064,103.037 97.3067,102.569 98.6339,102.183 99.9827,101.882 101.348,101.666 102.724,101.536 104.105,101.492 105.487,101.536 106.862,101.666 108.228,101.882 109.576,102.183 110.903,102.569 112.204,103.037 113.472,103.586 114.704,104.214 115.893,104.917 117.036,105.694 118.128,106.541 119.165,107.455 120.142,108.432 121.056,109.469 121.903,110.561 122.68,111.704 123.384,112.894 124.011,114.125 124.56,115.394 125.028,116.694 125.414,118.021 125.715,119.37 125.932,120.735 126.062,122.111 " style="fill:green" />
<polygon points="170.105,123.492 170.062,124.874 169.932,126.25 169.715,127.615 169.414,128.963 169.028,130.291 168.56,131.591 168.011,132.859 167.384,134.091 166.68,135.28 165.903,136.424 165.056,137.516 164.142,138.552 163.165,139.53 162.128,140.444 161.036,141.291 159.893,142.067 158.704,142.771 157.472,143.398 156.204,143.947 154.903,144.416 153.576,144.801 152.228,145.103 150.862,145.319 149.487,145.449 148.105,145.492 146.724,145.449 145.348,145.319 143.983,145.103 142.634,144.801 141.307,144.416 140.006,143.947 138.738,143.398 137.507,142.771 136.317,142.067 135.174,141.291 134.082,140.444 133.045,139.53 132.068,138.552 131.154,137.516 130.307,136.424 129.53,135.28 128.826,134.091 128.199,132.859 127.65,131.591 127.182,130.291 126.796,128.963 126.495,127.615 126.279,126.25 126.149,124.874 126.105,123.492 126.149,122.111 126.279,120.735 126.495,119.37 126.796,118.021 127.182,116.694 127.65,115.394 128.199,114.125 128.826,112.894 129.53,111.704 130.307,110.561 131.154,109.469 132.068,108.432 133.045,107.455 134.082,106.541 135.174,105.694 136.317,104.917 137.507,104.214 138.738,103.586 140.006,103.037 141.307,102.569 142.634,102.183 143.983,101.882 145.348,101.666 146.724,101.536 148.105,101.492 149.487,101.536 150.862,101.666 152.228,101.882 153.576,102.183 154.903,102.569 156.204,103.037 157.472,103.586 158.704,104.214 159.893,104.917 161.036,105.694 162.128,106.541 163.165,107.455 164.142,108.432 165.056,109.469 165.903,110.561 166.68,111.704 167.384,112.894 168.011,114.125 168.56,115.394 169.028,116.694 169.414,118.021 169.715,119.37 169.932,120.735 170.062,122.111 " style="fill:green" />
<polygon points="214.105,123.492 214.062,124.874 213.932,126.25 213.715,127.615 213.414,128.963 213.028,130.291 212.56,131.591 212.011,132.859 211.384,134.091 210.68,135.28 209.903,136.424 209.056,137.516 208.142,138.552 207.165,139.53 206.128,140.444 205.036,141.291 203.893,142.067 202.704,142.771 201.472,143.398 200.204,143.947 198.903,144.416 197.576,144.801 196.228,145.103 194.862,145.319 193.487,145.449 192.105,145.492 190.724,145.449 189.348,145.319 187.983,145.103 186.634,144.801 185.307,144.416 184.006,143.947 182.738,143.398 181.507,142.771 180.317,142.067 179.174,141.291 178.082,140.444 177.045,139.53 176.068,138.552 175.154,137.516 174.307,136.424 173.53,135.28 172.826,134.091 172.199,132.859 171.65,131.591 171.182,130.291 170.796,128.963 170.495,127.615 170.279,126.25 170.149,124.874 170.105,123.492 170.149,122.111 170.279,120.735 170.495,119.37 170.796,118.021 171.182,116.694 171.65,115.394 172.199,114.125 172.826,112.894 173.53,111.704 174.307,110.561 175.154,109.469 176.068,108.432 177.045,107.455 178.082,106.541 179.174,105.694 180.317,104.917 181.507,104.214 182.738,103.586 184.006,103.037 185.307,102.569 186.634,102.183 187.983,101.882 189.348,101.666 190.724,101.536 192.105,101.492 193.487,101.536 194.862,101.666 196.228,101.882 197.576,102.183 198.903,102.569 200.204,103.037 201.472,103.586 202.704,104.214 203.893,104.917 205.036,105.694 206.128,106.541 207.165,107.455 208.142,108.432 209.056,109.469 209.903,110.561 210.68,111.704 211.384,112.894 212.011,114.125 212.56,115.394 213.028,116.694 213.414,118.021 213.715,119.37 213.932,120.735 214.062,122.111 " style="fill:green" />
<polygon points="148.105,85.3872 148.062,86.7685 147.932,88.1445 147.715,89.5095 147.414,90.8583 147.028,92.1855 146.56,93.4859 146.011,94.7543 145.384,95.9857 144.68,97.1753 143.903,98.3184 143.056,99.4105 142.142,100.447 141.165,101.424 140.128,102.338 139.036,103.186 137.893,103.962 136.704,104.666 135.472,105.293 134.204,105.842 132.903,106.31 131.576,106.696 130.228,106.997 128.862,107.214 127.487,107.344 126.105,107.387 124.724,107.344 123.348,107.214 121.983,106.997 120.634,106.696 119.307,106.31 118.006,105.842 116.738,105.293 115.507,104.666 114.317,103.962 113.174,103.186 112.082,102.338 111.045,101.424 110.068,100.447 109.154,99.4105 108.307,98.3184 107.53,97.1753 106.826,95.9857 106.199,94.7543 105.65,93.4859 105.182,92.1855 104.796,90.8583 104.495,89.5095 104.279,88.1445 104.149,86.7685 104.105,85.3872 104.149,84.0058 104.279,82.6298 104.495,81.2648 104.796,79.916 105.182,78.5888 105.65,77.2884 106.199,76.02 106.826,74.7886 107.53,73.599 108.307,72.4559 109.154,71.3638 110.068,70.3271 111.045,69.3498 112.082,68.4359 113.174,67.5888 114.317,66.8119 115.507,66.1084 116.738,65.481 118.006,64.9321 119.307,64.4639 120.634,64.0783 121.983,63.7768 123.348,63.5606 124.724,63.4306 126.105,63.3872 127.487,63.4306 128.862,63.5606 130.228,63.7768 131.576,64.0783 132.903,64.4639 134.204,64.9321 135.472,65.481 136.704,66.1084 137.893,66.8119 139.036,67.5888 140.128,68.4359 141.165,69.3498 142.142,70.3271 143.056,71.3638 143.903,72.4559 144.68,73.599 145.384,74.7886 146.011,76.02 146.56,77.2884 147.028,78.5888 147.414,79.916 147.715,81.2648 147.932,82.6298 148.062,84.0058 " style="fill:green" />
<polygon points="192.105,85.3872 192.062,86.7685 191.932,88.1445 191.715,89.5095 191.414,90.8583 191.028,92.1855 190.56,93.4859 190.011,94.7543 189.384,95.9857 188.68,97.1753 187.903,98.3184 187.056,99.4105 186.142,100.447 185.165,101.424 184.128,102.338 183.036,103.186 181.893,103.962 180.704,104.666 179.472,105.293 178.204,105.842 176.903,106.31 175.576,106.696 174.228,106.997 172.862,107.214 171.487,107.344 170.105,107.387 168.724,107.344 167.348,107.214 165.983,106.997 164.634,106.696 163.307,106.31 162.006,105.842 160.738,105.293 159.507,104.666 158.317,103.962 157.174,103.186 156.082,102.338 155.045,101.424 154.068,100.447 153.154,99.4105 152.307,98.3184 151.53,97.1753 150.826,95.9857 150.199,94.7543 149.65,93.4859 149.182,92.1855 148.796,90.8583 148.495,89.5095 148.279,88.1445 148.149,86.7685 148.105,85.3872 148.149,84.0058 148.279,82.6298 148.495,81.2648 148.796,79.916 149.182,78.5888 149.65,77.2884 150.199,76.02 150.826,74.7886 151.53,73.599 152.307,72.4559 153.154,71.3638 154.068,70.3271 155.045,69.3498 156.082,68.4359 157.174,67.5888 158.317,66.8119 159.507,66.1084 160.738,65.481 162.006,64.9321 163.307,64.4639 164.634,64.0783 165.983,63.7768 167.348,63.5606 168.724,63.4306 170.105,63.3872 171.487,63.4306 172.862,63.5606 174.228,63.7768 175.576,64.0783 176.903,64.4639 178.204,64.9321 179.472,65.481 180.704,66.1084 181.893,66.8119 183.036,67.5888 184.128,68.4359 185.165,69.3498 186.142,70.3271 187.056,71.3638 187.903,72.4559 188.68,73.599 189.384,74.7886 190.011,76.02 190.56,77.2884 191.028,78.5888 191.414,79.916 191.715,81.2648 191.932,82.6298 192.062,84.0058 " style="fill:green" />
<polygon points="170.105,47.282 170.062,48.6634 169.932,50.0394 169.715,51.4044 169.414,52.7532 169.028,54.0804 168.56,55.3808 168.011,56.6492 167.384,57.8806 166.68,59.0702 165.903,60.2133 165.056,61.3054 164.142,62.3421 163.165,63.3193 162.128,64.2333 161.036,65.0804 159.893,65.8572 158.704,66.5608 157.472,67.1882 156.204,67.7371 154.903,68.2053 153.576,68.5909 152.228,68.8924 150.862,69.1086 149.487,69.2386 148.105,69.282 146.724,69.2386 145.348,69.1086 143.983,68.8924 142.634,68.5909 141.307,68.2053 140.006,67.7371 138.738,67.1882 137.507,66.5608 136.317,65.8572 135.174,65.0804 134.082,64.2333 133.045,63.3193 132.068,62.3421 131.154,61.3054 130.307,60.2133 129.53,59.0702 128.826,57.8806 128.199,56.6492 127.65,55.3808 127.182,54.0804 126.796,52.7532 126.495,51.4044 126.279,50.0394 126.149,48.6634 126.105,47.282 126.149,45.9006 126.279,44.5247 126.495,43.1596 126.796,41.8109 127.182,40.4837 127.65,39.1833 128.199,37.9149 128.826,36.6835 129.53,35.4938 130.307,34.3508 131.154,33.2587 132.068,32.222 133.045,31.2447 134.082,30.3307 135.174,29.4837 136.317,28.7068 137.507,28.0033 138.738,27.3758 140.006,26.8269 141.307,26.3588 142.634,25.9732 143.983,25.6717 145.348,25.4555 146.724,25.3254 148.105,25.282 149.487,25.3254 150.862,25.4555 152.228,25.6717 153.576,25.9732 154.903,26.3588 156.204,26.8269 157.472,27.3758 158.704,28.0033 159.893,28.7068 161.036,29.4837 162.128,30.3307 163.165,31.2447 164.142,32.222 165.056,33.2587 165.903,34.3508 166.68,35.4938 167.384,36.6835 168.011,37.9149 168.56,39.1833 169.028,40.4837 169.414,41.8109 169.715,43.1596 169.932,44.5247 170.062,45.9006 " style="fill:green" />
</svg>