<svg version="1.1"
baseProfile="full"
xmlns="http://www.w3.org/2000/svg">
<polygon points="0,0 0,200 300,200 300,0 " style="fill:red" />
<polygon points="0,0 0,30 50,30 50,0 " style="fill:green" />
<polygon points="0,30 0,60 50,60 50,30 " style="fill:green" />
<polygon points="0,60 0,90 50,90 50,60 " style="fill:green" />
<polygon points="0,90 0,120 50,120 50,90 " style="fill:green" />
<polygon points="0,120 0,150 50,150 50,120 " style="fill:green" />
<polygon points="0,150 0,180 50,180 50,150 " style="fill:green" />
<polygon points="50,0 50,30 100,30 100,0 " style="fill:green" />
<polygon points="50,30 50,60 100,60 100,30 " style="fill:green" />
<polygon points="50,60 50,90 100,90 100,60 " style="fill:green" />
<polygon points="50,90 50,120 100,120 100,90 " style="fill:green" />
<polygon points="50,120 50,150 100,150 100,120 " style="fill:green" />
<polygon points="50,150 50,180 100,180 100,150 " style="fill:green" />
<polygon points="100,0 100,30 150,30 150,0 " style="fill:green" />
<polygon points="100,30 100,60 150,60 150,30 " style="fill:green" />
<polygon points="100,60 100,90 150,90 150,60 " style="fill:green" />
<polygon points="100,90 100,120 150,120 150,90 " style="fill:green" />
<polygon points="100,120 100,150 150,150 150,120 " style="fill:green" />
<polygon points="100,150 100,180 150,180 150,150 " style="fill:green" />
<polygon points="150,0 150,30 200,30 200,0 " style="fill:green" />
<polygon points="150,30 150,60 200,60 200,30 " style="fill:green" />
<polygon points="150,60 150,90 200,90 200,60 " style="fill:green" />
<polygon points="150,90 150,120 200,120 200,90 " style="fill:green" />
<polygon points="150,120 150,150 200,150 200,120 " style="fill:green" />
<polygon points="150,150 150,180 200,180 200,150 " style="fill:green" />
<polygon points="200,0 200,30 250,30 250,0 " style="fill:green" />
<polygon points="200,30 200,60 250,60 250,30 " style="fill:green" />
<polygon points="200,60 200,90 250,90 250,60 " style="fill:green" />
<polygon points="200,90 200,120 250,120 250,90 " style="fill:green" />
<polygon points="200,120 200,150 250,150 250,120 " style="fill:green" />
<polygon points="200,150 200,180 250,180 250,150 " style="fill:green" />
<polygon points="250,0 250,30 300,30 300,0 " style="fill:green" />
<polygon points="250,30 250,60 300,60 300,30 " style="fill:green" />
<polygon points="250,60 250,90 300,90 300,60 " style="fill:green" />
<polygon points="250,90 250,120 300,120 300,90 " style="fill:green" />
<polygon points="250,120 250,150 300,150 300,120 " style="fill:green" />
<polygon points="250,150 250,180 300,180 300,150 " style="fill:green" />
</svg>