<svg version="1.1"
baseProfile="full"
xmlns="http://www.w3.org/2000/svg">
<polygon points="0,0 0,200 300,200 300,0 " style="fill:red" />
<polygon points="44,22 43.9566,23.3814 43.8265,24.7573 43.6103,26.1224 43.3088,27.4712 42.9232,28.7984 42.4551,30.0987 41.9062,31.3671 41.2787,32.5986 40.5752,33.7882 39.7984,34.9313 38.9513,36.0233 38.0373,37.06 37.06,38.0373 36.0233,38.9513 34.9313,39.7984 33.7882,40.5752 32.5986,41.2787 31.3671,41.9062 30.0987,42.4551 28.7984,42.9232 27.4712,43.3088 26.1224,43.6103 24.7573,43.8265 23.3814,43.9566 22,44 20.6186,43.9566 19.2427,43.8265 17.8776,43.6103 16.5288,43.3088 15.2016,42.9232 13.9013,42.4551 12.6329,41.9062 11.4014,41.2787 10.2118,40.5752 9.06872,39.7984 7.97667,38.9513 6.93996,38.0373 5.96269,37.06 5.04871,36.0233 4.20163,34.9313 3.42479,33.7882 2.72125,32.5986 2.0938,31.3671 1.54492,30.0987 1.07676,28.7984 0.69117,27.4712 0.38968,26.1224 0.173477,24.7573 0.043412,23.3814 0,22 0.043412,20.6186 0.173477,19.2427 0.38968,17.8776 0.69117,16.5288 1.07676,15.2016 1.54492,13.9013 2.0938,12.6329 2.72125,11.4014 3.42479,10.2118 4.20163,9.06872 5.04871,7.97667 5.96269,6.93996 6.93996,5.96269 7.97667,5.04871 9.06872,4.20163 10.2118,3.42479 11.4014,2.72125 12.6329,2.0938 13.9013,1.54492 15.2016,1.07676 16.5288,0.69117 17.8776,0.38968 19.2427,0.173477 20.6186,0.043412 22,0 23.3814,0.043412 24.7573,0.173477 26.1224,0.38968 27.4712,0.69117 28.7984,1.07676 30.0987,1.54492 31.3671,2.0938 32.5986,2.72125 33.7882,3.42479 34.9313,4.20163 36.0233,5.04871 37.06,5.96269 38.0373,6.93996 38.9513,7.97667 39.7984,9.06872 40.5752,10.2118 41.2787,11.4014 41.9062,12.6329 42.4551,13.9013 42.9232,15.2016 43.3088,16.5288 43.6103,17.8776 43.8265,19.2427 43.9566,20.6186 " style="fill:green" />
<polygon points="44,66 43.9566,67.3814 43.8265,68.7573 43.6103,70.1224 43.3088,71.4712 42.9232,72.7984 42.4551,74.0987 41.9062,75.3671 41.2787,76.5986 40.5752,77.7882 39.7984,78.9313 38.9513,80.0233 38.0373,81.06 37.06,82.0373 36.0233,82.9513 34.9313,83.7984 33.7882,84.5752 32.5986,85.2787 31.3671,85.9062 30.0987,86.4551 28.7984,86.9232 27.4712,87.3088 26.1224,87.6103 24.7573,87.8265 23.3814,87.9566 22,88 20.6186,87.9566 19.2427,87.8265 17.8776,87.6103 16.5288,87.3088 15.2016,86.9232 13.9013,86.4551 12.6329,85.9062 11.4014,85.2787 10.2118,84.5752 9.06872,83.7984 7.97667,82.9513 6.93996,82.0373 5.96269,81.06 5.04871,80.0233 4.20163,78.9313 3.42479,77.7882 2.72125,76.5986 2.0938,75.3671 1.54492,74.0987 1.07676,72.7984 0.69117,71.4712 0.38968,70.1224 0.173477,68.7573 0.043412,67.3814 0,66 0.043412,64.6186 0.173477,63.2427 0.38968,61.8776 0.69117,60.5288 1.07676,59.2016 1.54492,57.9013 2.0938,56.6329 2.72125,55.4014 3.42479,54.2118 4.20163,53.0687 5.04871,51.9767 5.96269,50.94 6.93996,49.9627 7.97667,49.0487 9.06872,48.2016 10.2118,47.4248 11.4014,46.7213 12.6329,46.0938 13.9013,45.5449 15.2016,45.0768 16.5288,44.6912 17.8776,44.3897 19.2427,44.1735 20.6186,44.0434 22,44 23.3814,44.0434 24.7573,44.1735 26.1224,44.3897 27.4712,44.6912 28.7984,45.0768 30.0987,45.5449 31.3671,46.0938 32.5986,46.7213 33.7882,47.4248 34.9313,48.2016 36.0233,49.0487 37.06,49.9627 38.0373,50.94 38.9513,51.9767 39.7984,53.0687 40.5752,54.2118 41.2787,55.4014 41.9062,56.6329 42.4551,57.9013 42.9232,59.2016 43.3088,60.5288 43.6103,61.8776 43.8265,63.2427 43.9566,64.6186 " style="fill:green" />
<polygon points="44,110 43.9566,111.381 43.8265,112.757 43.6103,114.122 43.3088,115.471 42.9232,116.798 42.4551,118.099 41.9062,119.367 41.2787,120.599 40.5752,121.788 39.7984,122.931 38.9513,124.023 38.0373,125.06 37.06,126.037 36.0233,126.951 34.9313,127.798 33.7882,128.575 32.5986,129.279 31.3671,129.906 30.0987,130.455 28.7984,130.923 27.4712,131.309 26.1224,131.61 24.7573,131.827 23.3814,131.957 22,132 20.6186,131.957 19.2427,131.827 17.8776,131.61 16.5288,131.309 15.2016,130.923 13.9013,130.455 12.6329,129.906 11.4014,129.279 10.2118,128.575 9.06872,127.798 7.97667,126.951 6.93996,126.037 5.96269,125.06 5.04871,124.023 4.20163,122.931 3.42479,121.788 2.72125,120.599 2.0938,119.367 1.54492,118.099 1.07676,116.798 0.69117,115.471 0.38968,114.122 0.173477,112.757 0.043412,111.381 0,110 0.043412,108.619 0.173477,107.243 0.38968,105.878 0.69117,104.529 1.07676,103.202 1.54492,101.901 2.0938,100.633 2.72125,99.4014 3.42479,98.2118 4.20163,97.0687 5.04871,95.9767 5.96269,94.94 6.93996,93.9627 7.97667,93.0487 9.06872,92.2016 10.2118,91.4248 11.4014,90.7213 12.6329,90.0938 13.9013,89.5449 15.2016,89.0768 16.5288,88.6912 17.8776,88.3897 19.2427,88.1735 20.6186,88.0434 22,88 23.3814,88.0434 24.7573,88.1735 26.1224,88.3897 27.4712,88.6912 28.7984,89.0768 30.0987,89.5449 31.3671,90.0938 32.5986,90.7213 33.7882,91.4248 34.9313,92.2016 36.0233,93.0487 37.06,93.9627 38.0373,94.94 38.9513,95.9767 39.7984,97.0687 40.5752,98.2118 41.2787,99.4014 41.9062,100.633 42.4551,101.901 42.9232,103.202 43.3088,104.529 43.6103,105.878 43.8265,107.243 43.9566,108.619 " style="fill:green" />
<polygon points="44,154 43.9566,155.381 43.8265,156.757 43.6103,158.122 43.3088,159.471 42.9232,160.798 42.4551,162.099 41.9062,163.367 41.2787,164.599 40.5752,165.788 39.7984,166.931 38.9513,168.023 38.0373,169.06 37.06,170.037 36.0233,170.951 34.9313,171.798 33.7882,172.575 32.5986,173.279 31.3671,173.906 30.0987,174.455 28.7984,174.923 27.4712,175.309 26.1224,175.61 24.7573,175.827 23.3814,175.957 22,176 20.6186,175.957 19.2427,175.827 17.8776,175.61 16.5288,175.309 15.2016,174.923 13.9013,174.455 12.6329,173.906 11.4014,173.279 10.2118,172.575 9.06872,171.798 7.97667,170.951 6.93996,170.037 5.96269,169.06 5.04871,168.023 4.20163,166.931 3.42479,165.788 2.72125,164.599 2.0938,163.367 1.54492,162.099 1.07676,160.798 0.69117,159.471 0.38968,158.122 0.173477,156.757 0.043412,155.381 0,154 0.043412,152.619 0.173477,151.243 0.38968,149.878 0.69117,148.529 1.07676,147.202 1.54492,145.901 2.0938,144.633 2.72125,143.401 3.42479,142.212 4.20163,141.069 5.04871,139.977 5.96269,138.94 6.93996,137.963 7.97667,137.049 9.06872,136.202 10.2118,135.425 11.4014,134.721 12.6329,134.094 13.9013,133.545 15.2016,133.077 16.5288,132.691 17.8776,132.39 19.2427,132.173 20.6186,132.043 22,132 23.3814,132.043 24.7573,132.173 26.1224,132.39 27.4712,132.691 28.7984,133.077 30.0987,133.545 31.3671,134.094 32.5986,134.721 33.7882,135.425 34.9313,136.202 36.0233,137.049 37.06,137.963 38.0373,138.94 38.9513,139.977 39.7984,141.069 40.5752,142.212 41.2787,143.401 41.9062,144.633 42.4551,145.901 42.9232,147.202 43.3088,148.529 43.6103,149.878 43.8265,151.243 43.9566,152.619 " style="fill:green" />
<polygon points="88,22 87.9566,23.3814 87.8265,24.7573 87.6103,26.1224 87.3088,27.4712 86.9232,28.7984 86.4551,30.0987 85.9062,31.3671 85.2787,32.5986 84.5752,33.7882 83.7984,34.9313 82.9513,36.0233 82.0373,37.06 81.06,38.0373 80.0233,38.9513 78.9313,39.7984 77.7882,40.5752 76.5986,41.2787 75.3671,41.9062 74.0987,42.4551 72.7984,42.9232 71.4712,43.3088 70.1224,43.6103 68.7573,43.8265 67.3814,43.9566 66,44 64.6186,43.9566 63.2427,43.8265 61.8776,43.6103 60.5288,43.3088 59.2016,42.9232 57.9013,42.4551 56.6329,41.9062 55.4014,41.2787 54.2118,40.5752 53.0687,39.7984 51.9767,38.9513 50.94,38.0373 49.9627,37.06 49.0487,36.0233 48.2016,34.9313 47.4248,33.7882 46.7213,32.5986 46.0938,31.3671 45.5449,30.0987 45.0768,28.7984 44.6912,27.4712 44.3897,26.1224 44.1735,24.7573 44.0434,23.3814 44,22 44.0434,20.6186 44.1735,19.2427 44.3897,17.8776 44.6912,16.5288 45.0768,15.2016 45.5449,13.9013 46.0938,12.6329 46.7213,11.4014 47.4248,10.2118 48.2016,9.06872 49.0487,7.97667 49.9627,6.93996 50.94,5.96269 51.9767,5.04871 53.0687,4.20163 54.2118,3.42479 55.4014,2.72125 56.6329,2.0938 57.9013,1.54492 59.2016,1.07676 60.5288,0.69117 61.8776,0.38968 63.2427,0.173477 64.6186,0.043412 66,0 67.3814,0.043412 68.7573,0.173477 70.1224,0.38968 71.4712,0.69117 72.7984,1.07676 74.0987,1.54492 75.3671,2.0938 76.5986,2.72125 77.7882,3.42479 78.9313,4.20163 80.0233,5.04871 81.06,5.96269 82.0373,6.93996 82.9513,7.97667 83.7984,9.06872 84.5752,10.2118 85.2787,11.4014 85.9062,12.6329 86.4551,13.9013 86.9232,15.2016 87.3088,16.5288 87.6103,17.8776 87.8265,19.2427 87.9566,20.6186 " style="fill:green" />
<polygon points="88,66 87.9566,67.3814 87.8265,68.7573 87.6103,70.1224 87.3088,71.4712 86.9232,72.7984 86.4551,74.0987 85.9062,75.3671 85.2787,76.5986 84.5752,77.7882 83.7984,78.9313 82.9513,80.0233 82.0373,81.06 81.06,82.0373 80.0233,82.9513 78.9313,83.7984 77.7882,84.5752 76.5986,85.2787 75.3671,85.9062 74.0987,86.4551 72.7984,86.9232 71.4712,87.3088 70.1224,87.6103 68.7573,87.8265 67.3814,87.9566 66,88 64.6186,87.9566 63.2427,87.8265 61.8776,87.6103 60.5288,87.3088 59.2016,86.9232 57.9013,86.4551 56.6329,85.9062 55.4014,85.2787 54.2118,84.5752 53.0687,83.7984 51.9767,82.9513 50.94,82.0373 49.9627,81.06 49.0487,80.0233 48.2016,78.9313 47.4248,77.7882 46.7213,76.5986 46.0938,75.3671 45.5449,74.0987 45.0768,72.7984 44.6912,71.4712 44.3897,70.1224 44.1735,68.7573 44.0434,67.3814 44,66 44.0434,64.6186 44.1735,63.2427 44.3897,61.8776 44.6912,60.5288 45.0768,59.2016 45.5449,57.9013 46.0938,56.6329 46.7213,55.4014 47.4248,54.2118 48.2016,53.0687 49.0487,51.9767 49.9627,50.94 50.94,49.9627 51.9767,49.0487 53.0687,48.2016 54.2118,47.4248 55.4014,46.7213 56.6329,46.0938 57.9013,45.5449 59.2016,45.0768 60.5288,44.6912 61.8776,44.3897 63.2427,44.1735 64.6186,44.0434 66,44 67.3814,44.0434 68.7573,44.1735 70.1224,44.3897 71.4712,44.6912 72.7984,45.0768 74.0987,45.5449 75.3671,46.0938 76.5986,46.7213 77.7882,47.4248 78.9313,48.2016 80.0233,49.0487 81.06,49.9627 82.0373,50.94 82.9513,51.9767 83.7984,53.0687 84.5752,54.2118 85.2787,55.4014 85.9062,56.6329 86.4551,57.9013 86.9232,59.2016 87.3088,60.5288 87.6103,61.8776 87.8265,63.2427 87.9566,64.6186 " style="fill:green" />
<polygon points="88,110 87.9566,111.381 87.8265,112.757 87.6103,114.122 87.3088,115.471 86.9232,116.798 86.4551,118.099 85.9062,119.367 85.2787,120.599 84.5752,121.788 83.7984,122.931 82.9513,124.023 82.0373,125.06 81.06,126.037 80.0233,126.951 78.9313,127.798 77.7882,128.575 76.5986,129.279 75.3671,129.906 74.0987,130.455 72.7984,130.923 71.4712,131.309 70.1224,131.61 68.7573,131.827 67.3814,131.957 66,132 64.6186,131.957 63.2427,131.827 61.8776,131.61 60.5288,131.309 59.2016,130.923 57.9013,130.455 56.6329,129.906 55.4014,129.279 54.2118,128.575 53.0687,127.798 51.9767,126.951 50.94,126.037 49.9627,125.06 49.0487,124.023 48.2016,122.931 47.4248,121.788 46.7213,120.599 46.0938,119.367 45.5449,118.099 45.0768,116.798 44.6912,115.471 44.3897,114.122 44.1735,112.757 44.0434,111.381 44,110 44.0434,108.619 44.1735,107.243 44.3897,105.878 44.6912,104.529 45.0768,103.202 45.5449,101.901 46.0938,100.633 46.7213,99.4014 47.4248,98.2118 48.2016,97.0687 49.0487,95.9767 49.9627,94.94 50.94,93.9627 51.9767,93.0487 53.0687,92.2016 54.2118,91.4248 55.4014,90.7213 56.6329,90.0938 57.9013,89.5449 59.2016,89.0768 60.5288,88.6912 61.8776,88.3897 63.2427,88.1735 64.6186,88.0434 66,88 67.3814,88.0434 68.7573,88.1735 70.1224,88.3897 71.4712,88.6912 72.7984,89.0768 74.0987,89.5449 75.3671,90.0938 76.5986,90.7213 77.7882,91.4248 78.9313,92.2016 80.0233,93.0487 81.06,93.9627 82.0373,94.94 82.9513,95.9767 83.7984,97.0687 84.5752,98.2118 85.2787,99.4014 85.9062,100.633 86.4551,101.901 86.9232,103.202 87.3088,104.529 87.6103,105.878 87.8265,107.243 87.9566,108.619 " style="fill:green" />
<polygon points="88,154 87.9566,155.381 87.8265,156.757 87.6103,158.122 87.3088,159.471 86.9232,160.798 86.4551,162.099 85.9062,163.367 85.2787,164.599 84.5752,165.788 83.7984,166.931 82.9513,168.023 82.0373,169.06 81.06,170.037 80.0233,170.951 78.9313,171.798 77.7882,172.575 76.5986,173.279 75.3671,173.906 74.0987,174.455 72.7984,174.923 71.4712,175.309 70.1224,175.61 68.7573,175.827 67.3814,175.957 66,176 64.6186,175.957 63.2427,175.827 61.8776,175.61 60.5288,175.309 59.2016,174.923 57.9013,174.455 56.6329,173.906 55.4014,173.279 54.2118,172.575 53.0687,171.798 51.9767,170.951 50.94,170.037 49.9627,169.06 49.0487,168.023 48.2016,166.931 47.4248,165.788 46.7213,164.599 46.0938,163.367 45.5449,162.099 45.0768,160.798 44.6912,159.471 44.3897,158.122 44.1735,156.757 44.0434,155.381 44,154 44.0434,152.619 44.1735,151.243 44.3897,149.878 44.6912,148.529 45.0768,147.202 45.5449,145.901 46.0938,144.633 46.7213,143.401 47.4248,142.212 48.2016,141.069 49.0487,139.977 49.9627,138.94 50.94,137.963 51.9767,137.049 53.0687,136.202 54.2118,135.425 55.4014,134.721 56.6329,134.094 57.9013,133.545 59.2016,133.077 60.5288,132.691 61.8776,132.39 63.2427,132.173 64.6186,132.043 66,132 67.3814,132.043 68.7573,132.173 70.1224,132.39 71.4712,132.691 72.7984,133.077 74.0987,133.545 75.3671,134.094 76.5986,134.721 77.7882,135.425 78.9313,136.202 80.0233,137.049 81.06,137.963 82.0373,138.94 82.9513,139.977 83.7984,141.069 84.5752,142.212 85.2787,143.401 85.9062,144.633 86.4551,145.901 86.9232,147.202 87.3088,148.529 87.6103,149.878 87.8265,151.243 87.9566,152.619 " style="fill:green" />
<polygon points="132,22 131.957,23.3814 131.827,24.7573 131.61,26.1224 131.309,27.4712 130.923,28.7984 130.455,30.0987 129.906,31.3671 129.279,32.5986 128.575,33.7882 127.798,34.9313 126.951,36.0233 126.037,37.06 125.06,38.0373 124.023,38.9513 122.931,39.7984 121.788,40.5752 120.599,41.2787 119.367,41.9062 118.099,42.4551 116.798,42.9232 115.471,43.3088 114.122,43.6103 112.757,43.8265 111.381,43.9566 110,44 108.619,43.9566 107.243,43.8265 105.878,43.6103 104.529,43.3088 103.202,42.9232 101.901,42.4551 100.633,41.9062 99.4014,41.2787 98.2118,40.5752 97.0687,39.7984 95.9767,38.9513 94.94,38.0373 93.9627,37.06 93.0487,36.0233 92.2016,34.9313 91.4248,33.7882 90.7213,32.5986 90.0938,31.3671 89.5449,30.0987 89.0768,28.7984 88.6912,27.4712 88.3897,26.1224 88.1735,24.7573 88.0434,23.3814 88,22 88.0434,20.6186 88.1735,19.2427 88.3897,17.8776 88.6912,16.5288 89.0768,15.2016 89.5449,13.9013 90.0938,12.6329 90.7213,11.4014 91.4248,10.2118 92.2016,9.06872 93.0487,7.97667 93.9627,6.93996 94.94,5.96269 95.9767,5.04871 97.0687,4.20163 98.2118,3.42479 99.4014,2.72125 100.633,2.0938 101.901,1.54492 103.202,1.07676 104.529,0.69117 105.878,0.38968 107.243,0.173477 108.619,0.043412 110,0 111.381,0.043412 112.757,0.173477 114.122,0.38968 115.471,0.69117 116.798,1.07676 118.099,1.54492 119.367,2.0938 120.599,2.72125 121.788,3.42479 122.931,4.20163 124.023,5.04871 125.06,5.96269 126.037,6.93996 126.951,7.97667 127.798,9.06872 128.575,10.2118 129.279,11.4014 129.906,12.6329 130.455,13.9013 130.923,15.2016 131.309,16.5288 131.61,17.8776 131.827,19.2427 131.957,20.6186 " style="fill:green" />
<polygon points="132,66 131.957,67.3814 131.827,68.7573 131.61,70.1224 131.309,71.4712 130.923,72.7984 130.455,74.0987 129.906,75.3671 129.279,76.5986 128.575,77.7882 127.798,78.9313 126.951,80.0233 126.037,81.06 125.06,82.0373 124.023,82.9513 122.931,83.7984 121.788,84.5752 120.599,85.2787 119.367,85.9062 118.099,86.4551 116.798,86.9232 115.471,87.3088 114.122,87.6103 112.757,87.8265 111.381,87.9566 110,88 108.619,87.9566 107.243,87.8265 105.878,87.6103 104.529,87.3088 103.202,86.9232 101.901,86.4551 100.633,85.9062 99.4014,85.2787 98.2118,84.5752 97.0687,83.7984 95.9767,82.9513 94.94,82.0373 93.9627,81.06 93.0487,80.0233 92.2016,78.9313 91.4248,77.7882 90.7213,76.5986 90.0938,75.3671 89.5449,74.0987 89.0768,72.7984 88.6912,71.4712 88.3897,70.1224 88.1735,68.7573 88.0434,67.3814 88,66 88.0434,64.6186 88.1735,63.2427 88.3897,61.8776 88.6912,60.5288 89.0768,59.2016 89.5449,57.9013 90.0938,56.6329 90.7213,55.4014 91.4248,54.2118 92.2016,53.0687 93.0487,51.9767 93.9627,50.94 94.94,49.9627 95.9767,49.0487 97.0687,48.2016 98.2118,47.4248 99.4014,46.7213 100.633,46.0938 101.901,45.5449 103.202,45.0768 104.529,44.6912 105.878,44.3897 107.243,44.1735 108.619,44.0434 110,44 111.381,44.0434 112.757,44.1735 114.122,44.3897 115.471,44.6912 116.798,45.0768 118.099,45.5449 119.367,46.0938 120.599,46.7213 121.788,47.4248 122.931,48.2016 124.023,49.0487 125.06,49.9627 126.037,50.94 126.951,51.9767 127.798,53.0687 128.575,54.2118 129.279,55.4014 129.906,56.6329 130.455,57.9013 130.923,59.2016 131.309,60.5288 131.61,61.8776 131.827,63.2427 131.957,64.6186 " style="fill:green" />
<polygon points="132,110 131.957,111.381 131.827,112.757 131.61,114.122 131.309,115.471 130.923,116.798 130.455,118.099 129.906,119.367 129.279,120.599 128.575,121.788 127.798,122.931 126.951,124.023 126.037,125.06 125.06,126.037 124.023,126.951 122.931,127.798 121.788,128.575 120.599,129.279 119.367,129.906 118.099,130.455 116.798,130.923 115.471,131.309 114.122,131.61 112.757,131.827 111.381,131.957 110,132 108.619,131.957 107.243,131.827 105.878,131.61 104.529,131.309 103.202,130.923 101.901,130.455 100.633,129.906 99.4014,129.279 98.2118,128.575 97.0687,127.798 95.9767,126.951 94.94,126.037 93.9627,125.06 93.0487,124.023 92.2016,122.931 91.4248,121.788 90.7213,120.599 90.0938,119.367 89.5449,118.099 89.0768,116.798 88.6912,115.471 88.3897,114.122 88.1735,112.757 88.0434,111.381 88,110 88.0434,108.619 88.1735,107.243 88.3897,105.878 88.6912,104.529 89.0768,103.202 89.5449,101.901 90.0938,100.633 90.7213,99.4014 91.4248,98.2118 92.2016,97.0687 93.0487,95.9767 93.9627,94.94 94.94,93.9627 95.9767,93.0487 97.0687,92.2016 98.2118,91.4248 99.4014,90.7213 100.633,90.0938 101.901,89.5449 103.202,89.0768 104.529,88.6912 105.878,88.3897 107.243,88.1735 108.619,88.0434 110,88 111.381,88.0434 112.757,88.1735 114.122,88.3897 115.471,88.6912 116.798,89.0768 118.099,89.5449 119.367,90.0938 120.599,90.7213 121.788,91.4248 122.931,92.2016 124.023,93.0487 125.06,93.9627 126.037,94.94 126.951,95.9767 127.798,97.0687 128.575,98.2118 129.279,99.4014 129.906,100.633 130.455,101.901 130.923,103.202 131.309,104.529 131.61,105.878 131.827,107.243 131.957,108.619 " style="fill:green" />
<polygon points="132,154 131.957,155.381 131.827,156.757 131.61,158.122 131.309,159.471 130.923,160.798 130.455,162.099 129.906,163.367 129.279,164.599 128.575,165.788 127.798,166.931 126.951,168.023 126.037,169.06 125.06,170.037 124.023,170.951 122.931,171.798 121.788,172.575 120.599,173.279 119.367,173.906 118.099,174.455 116.798,174.923 115.471,175.309 114.122,175.61 112.757,175.827 111.381,175.957 110,176 108.619,175.957 107.243,175.827 105.878,175.61 104.529,175.309 103.202,174.923 101.901,174.455 100.633,173.906 99.4014,173.279 98.2118,172.575 97.0687,171.798 95.9767,170.951 94.94,170.037 93.9627,169.06 93.0487,168.023 92.2016,166.931 91.4248,165.788 90.7213,164.599 90.0938,163.367 89.5449,162.099 89.0768,160.798 88.6912,159.471 88.3897,158.122 88.1735,156.757 88.0434,155.381 88,154 88.0434,152.619 88.1735,151.243 88.3897,149.878 88.6912,148.529 89.0768,147.202 89.5449,145.901 90.0938,144.633 90.7213,143.401 91.4248,142.212 92.2016,141.069 93.0487,139.977 93.9627,138.94 94.94,137.963 95.9767,137.049 97.0687,136.202 98.2118,135.425 99.4014,134.721 100.633,134.094 101.901,133.545 103.202,133.077 104.529,132.691 105.878,132.39 107.243,132.173 108.619,132.043 110,132 111.381,132.043 112.757,132.173 114.122,132.39 115.471,132.691 116.798,133.077 118.099,133.545 119.367,134.094 120.599,134.721 121.788,135.425 122.931,136.202 124.023,137.049 125.06,137.963 126.037,138.94 126.951,139.977 127.798,141.069 128.575,142.212 129.279,143.401 129.906,144.633 130.455,145.901 130.923,147.202 131.309,148.529 131.61,149.878 131.827,151.243 131.957,152.619 " style="fill:green" />
<polygon points="176,22 175.957,23.3814 175.827,24.7573 175.61,26.1224 175.309,27.4712 174.923,28.7984 174.455,30.0987 173.906,31.3671 173.279,32.5986 172.575,33.7882 171.798,34.9313 170.951,36.0233 170.037,37.06 169.06,38.0373 168.023,38.9513 166.931,39.7984 165.788,40.5752 164.599,41.2787 163.367,41.9062 162.099,42.4551 160.798,42.9232 159.471,43.3088 158.122,43.6103 156.757,43.8265 155.381,43.9566 154,44 152.619,43.9566 151.243,43.8265 149.878,43.6103 148.529,43.3088 147.202,42.9232 145.901,42.4551 144.633,41.9062 143.401,41.2787 142.212,40.5752 141.069,39.7984 139.977,38.9513 138.94,38.0373 137.963,37.06 137.049,36.0233 136.202,34.9313 135.425,33.7882 134.721,32.5986 134.094,31.3671 133.545,30.0987 133.077,28.7984 132.691,27.4712 132.39,26.1224 132.173,24.7573 132.043,23.3814 132,22 132.043,20.6186 132.173,19.2427 132.39,17.8776 132.691,16.5288 133.077,15.2016 133.545,13.9013 134.094,12.6329 134.721,11.4014 135.425,10.2118 136.202,9.06872 137.049,7.97667 137.963,6.93996 138.94,5.96269 139.977,5.04871 141.069,4.20163 142.212,3.42479 143.401,2.72125 144.633,2.0938 145.901,1.54492 147.202,1.07676 148.529,0.69117 149.878,0.38968 151.243,0.173477 152.619,0.043412 154,0 155.381,0.043412 156.757,0.173477 158.122,0.38968 159.471,0.69117 160.798,1.07676 162.099,1.54492 163.367,2.0938 164.599,2.72125 165.788,3.42479 166.931,4.20163 168.023,5.04871 169.06,5.96269 170.037,6.93996 170.951,7.97667 171.798,9.06872 172.575,10.2118 173.279,11.4014 173.906,12.6329 174.455,13.9013 174.923,15.2016 175.309,16.5288 175.61,17.8776 175.827,19.2427 175.957,20.6186 " style="fill:green" />
<polygon points="176,66 175.957,67.3814 175.827,68.7573 175.61,70.1224 175.309,71.4712 174.923,72.7984 174.455,74.0987 173.906,75.3671 173.279,76.5986 172.575,77.7882 171.798,78.9313 170.951,80.0233 170.037,81.06 169.06,82.0373 168.023,82.9513 166.931,83.7984 165.788,84.5752 164.599,85.2787 163.367,85.9062 162.099,86.4551 160.798,86.9232 159.471,87.3088 158.122,87.6103 156.757,87.8265 155.381,87.9566 154,88 152.619,87.9566 151.243,87.8265 149.878,87.6103 148.529,87.3088 147.202,86.9232 145.901,86.4551 144.633,85.9062 143.401,85.2787 142.212,84.5752 141.069,83.7984 139.977,82.9513 138.94,82.0373 137.963,81.06 137.049,80.0233 136.202,78.9313 135.425,77.7882 134.721,76.5986 134.094,75.3671 133.545,74.0987 133.077,72.7984 132.691,71.4712 132.39,70.1224 132.173,68.7573 132.043,67.3814 132,66 132.043,64.6186 132.173,63.2427 132.39,61.8776 132.691,60.5288 133.077,59.2016 133.545,57.9013 134.094,56.6329 134.721,55.4014 135.425,54.2118 136.202,53.0687 137.049,51.9767 137.963,50.94 138.94,49.9627 139.977,49.0487 141.069,48.2016 142.212,47.4248 143.401,46.7213 144.633,46.0938 145.901,45.5449 147.202,45.0768 148.529,44.6912 149.878,44.3897 151.243,44.1735 152.619,44.0434 154,44 155.381,44.0434 156.757,44.1735 158.122,44.3897 159.471,44.6912 160.798,45.0768 162.099,45.5449 163.367,46.0938 164.599,46.7213 165.788,47.4248 166.931,48.2016 168.023,49.0487 169.06,49.9627 170.037,50.94 170.951,51.9767 171.798,53.0687 172.575,54.2118 173.279,55.4014 173.906,56.6329 174.455,57.9013 174.923,59.2016 175.309,60.5288 175.61,61.8776 175.827,63.2427 175.957,64.6186 " style="fill:green" />
<polygon points="176,110 175.957,111.381 175.827,112.757 175.61,114.122 175.309,115.471 174.923,116.798 174.455,118.099 173.906,119.367 173.279,120.599 172.575,121.788 171.798,122.931 170.951,124.023 170.037,125.06 169.06,126.037 168.023,126.951 166.931,127.798 165.788,128.575 164.599,129.279 163.367,129.906 162.099,130.455 160.798,130.923 159.471,131.309 158.122,131.61 156.757,131.827 155.381,131.957 154,132 152.619,131.957 151.243,131.827 149.878,131.61 148.529,131.309 147.202,130.923 145.901,130.455 144.633,129.906 143.401,129.279 142.212,128.575 141.069,127.798 139.977,126.951 138.94,126.037 137.963,125.06 137.049,124.023 136.202,122.931 135.425,121.788 134.721,120.599 134.094,119.367 133.545,118.099 133.077,116.798 132.691,115.471 132.39,114.122 132.173,112.757 132.043,111.381 132,110 132.043,108.619 132.173,107.243 132.39,105.878 132.691,104.529 133.077,103.202 133.545,101.901 134.094,100.633 134.721,99.4014 135.425,98.2118 136.202,97.0687 137.049,95.9767 137.963,94.94 138.94,93.9627 139.977,93.0487 141.069,92.2016 142.212,91.4248 143.401,90.7213 144.633,90.0938 145.901,89.5449 147.202,89.0768 148.529,88.6912 149.878,88.3897 151.243,88.1735 152.619,88.0434 154,88 155.381,88.0434 156.757,88.1735 158.122,88.3897 159.471,88.6912 160.798,89.0768 162.099,89.5449 163.367,90.0938 164.599,90.7213 165.788,91.4248 166.931,92.2016 168.023,93.0487 169.06,93.9627 170.037,94.94 170.951,95.9767 171.798,97.0687 172.575,98.2118 173.279,99.4014 173.906,100.633 174.455,101.901 174.923,103.202 175.309,104.529 175.61,105.878 175.827,107.243 175.957,108.619 " style="fill:green" />
<polygon points="176,154 175.957,155.381 175.827,156.757 175.61,158.122 175.309,159.471 174.923,160.798 174.455,162.099 173.906,163.367 173.279,164.599 172.575,165.788 171.798,166.931 170.951,168.023 170.037,169.06 169.06,170.037 168.023,170.951 166.931,171.798 165.788,172.575 164.599,173.279 163.367,173.906 162.099,174.455 160.798,174.923 159.471,175.309 158.122,175.61 156.757,175.827 155.381,175.957 154,176 152.619,175.957 151.243,175.827 149.878,175.61 148.529,175.309 147.202,174.923 145.901,174.455 144.633,173.906 143.401,173.279 142.212,172.575 141.069,171.798 139.977,170.951 138.94,170.037 137.963,169.06 137.049,168.023 136.202,166.931 135.425,165.788 134.721,164.599 134.094,163.367 133.545,162.099 133.077,160.798 132.691,159.471 132.39,158.122 132.173,156.757 132.043,155.381 132,154 132.043,152.619 132.173,151.243 132.39,149.878 132.691,148.529 133.077,147.202 133.545,145.901 134.094,144.633 134.721,143.401 135.425,142.212 136.202,141.069 137.049,139.977 137.963,138.94 138.94,137.963 139.977,137.049 141.069,136.202 142.212,135.425 143.401,134.721 144.633,134.094 145.901,133.545 147.202,133.077 148.529,132.691 149.878,132.39 151.243,132.173 152.619,132.043 154,132 155.381,132.043 156.757,132.173 158.122,132.39 159.471,132.691 160.798,133.077 162.099,133.545 163.367,134.094 164.599,134.721 165.788,135.425 166.931,136.202 168.023,137.049 169.06,137.963 170.037,138.94 170.951,139.977 171.798,141.069 172.575,142.212 173.279,143.401 173.906,144.633 174.455,145.901 174.923,147.202 175.309,148.529 175.61,149.878 175.827,151.243 175.957,152.619 " style="fill:green" />
<polygon points="220,22 219.957,23.3814 219.827,24.7573 219.61,26.1224 219.309,27.4712 218.923,28.7984 218.455,30.0987 217.906,31.3671 217.279,32.5986 216.575,33.7882 215.798,34.9313 214.951,36.0233 214.037,37.06 213.06,38.0373 212.023,38.9513 210.931,39.7984 209.788,40.5752 208.599,41.2787 207.367,41.9062 206.099,42.4551 204.798,42.9232 203.471,43.3088 202.122,43.6103 200.757,43.8265 199.381,43.9566 198,44 196.619,43.9566 195.243,43.8265 193.878,43.6103 192.529,43.3088 191.202,42.9232 189.901,42.4551 188.633,41.9062 187.401,41.2787 186.212,40.5752 185.069,39.7984 183.977,38.9513 182.94,38.0373 181.963,37.06 181.049,36.0233 180.202,34.9313 179.425,33.7882 178.721,32.5986 178.094,31.3671 177.545,30.0987 177.077,28.7984 176.691,27.4712 176.39,26.1224 176.173,24.7573 176.043,23.3814 176,22 176.043,20.6186 176.173,19.2427 176.39,17.8776 176.691,16.5288 177.077,15.2016 177.545,13.9013 178.094,12.6329 178.721,11.4014 179.425,10.2118 180.202,9.06872 181.049,7.97667 181.963,6.93996 182.94,5.96269 183.977,5.04871 185.069,4.20163 186.212,3.42479 187.401,2.72125 188.633,2.0938 189.901,1.54492 191.202,1.07676 192.529,0.69117 193.878,0.38968 195.243,0.173477 196.619,0.043412 198,0 199.381,0.043412 200.757,0.173477 202.122,0.38968 203.471,0.69117 204.798,1.07676 206.099,1.54492 207.367,2.0938 208.599,2.72125 209.788,3.42479 210.931,4.20163 212.023,5.04871 213.06,5.96269 214.037,6.93996 214.951,7.97667 215.798,9.06872 216.575,10.2118 217.279,11.4014 217.906,12.6329 218.455,13.9013 218.923,15.2016 219.309,16.5288 219.61,17.8776 219.827,19.2427 219.957,20.6186 " style="fill:green" />
<polygon points="220,66 219.957,67.3814 219.827,68.7573 219.61,70.1224 219.309,71.4712 218.923,72.7984 218.455,74.0987 217.906,75.3671 217.279,76.5986 216.575,77.7882 215.798,78.9313 214.951,80.0233 214.037,81.06 213.06,82.0373 212.023,82.9513 210.931,83.7984 209.788,84.5752 208.599,85.2787 207.367,85.9062 206.099,86.4551 204.798,86.9232 203.471,87.3088 202.122,87.6103 200.757,87.8265 199.381,87.9566 198,88 196.619,87.9566 195.243,87.8265 193.878,87.6103 192.529,87.3088 191.202,86.9232 189.901,86.4551 188.633,85.9062 187.401,85.2787 186.212,84.5752 185.069,83.7984 183.977,82.9513 182.94,82.0373 181.963,81.06 181.049,80.0233 180.202,78.9313 179.425,77.7882 178.721,76.5986 178.094,75.3671 177.545,74.0987 177.077,72.7984 176.691,71.4712 176.39,70.1224 176.173,68.7573 176.043,67.3814 176,66 176.043,64.6186 176.173,63.2427 176.39,61.8776 176.691,60.5288 177.077,59.2016 177.545,57.9013 178.094,56.6329 178.721,55.4014 179.425,54.2118 180.202,53.0687 181.049,51.9767 181.963,50.94 182.94,49.9627 183.977,49.0487 185.069,48.2016 186.212,47.4248 187.401,46.7213 188.633,46.0938 189.901,45.5449 191.202,45.0768 192.529,44.6912 193.878,44.3897 195.243,44.1735 196.619,44.0434 198,44 199.381,44.0434 200.757,44.1735 202.122,44.3897 203.471,44.6912 204.798,45.0768 206.099,45.5449 207.367,46.0938 208.599,46.7213 209.788,47.4248 210.931,48.2016 212.023,49.0487 213.06,49.9627 214.037,50.94 214.951,51.9767 215.798,53.0687 216.575,54.2118 217.279,55.4014 217.906,56.6329 218.455,57.9013 218.923,59.2016 219.309,60.5288 219.61,61.8776 219.827,63.2427 219.957,64.6186 " style="fill:green" />
<polygon points="220,110 219.957,111.381 219.827,112.757 219.61,114.122 219.309,115.471 218.923,116.798 218.455,118.099 217.906,119.367 217.279,120.599 216.575,121.788 215.798,122.931 214.951,124.023 214.037,125.06 213.06,126.037 212.023,126.951 210.931,127.798 209.788,128.575 208.599,129.279 207.367,129.906 206.099,130.455 204.798,130.923 203.471,131.309 202.122,131.61 200.757,131.827 199.381,131.957 198,132 196.619,131.957 195.243,131.827 193.878,131.61 192.529,131.309 191.202,130.923 189.901,130.455 188.633,129.906 187.401,129.279 186.212,128.575 185.069,127.798 183.977,126.951 182.94,126.037 181.963,125.06 181.049,124.023 180.202,122.931 179.425,121.788 178.721,120.599 178.094,119.367 177.545,118.099 177.077,116.798 176.691,115.471 176.39,114.122 176.173,112.757 176.043,111.381 176,110 176.043,108.619 176.173,107.243 176.39,105.878 176.691,104.529 177.077,103.202 177.545,101.901 178.094,100.633 178.721,99.4014 179.425,98.2118 180.202,97.0687 181.049,95.9767 181.963,94.94 182.94,93.9627 183.977,93.0487 185.069,92.2016 186.212,91.4248 187.401,90.7213 188.633,90.0938 189.901,89.5449 191.202,89.0768 192.529,88.6912 193.878,88.3897 195.243,88.1735 196.619,88.0434 198,88 199.381,88.0434 200.757,88.1735 202.122,88.3897 203.471,88.6912 204.798,89.0768 206.099,89.5449 207.367,90.0938 208.599,90.7213 209.788,91.4248 210.931,92.2016 212.023,93.0487 213.06,93.9627 214.037,94.94 214.951,95.9767 215.798,97.0687 216.575,98.2118 217.279,99.4014 217.906,100.633 218.455,101.901 218.923,103.202 219.309,104.529 219.61,105.878 219.827,107.243 219.957,108.619 " style="fill:green" />
<polygon points="220,154 219.957,155.381 219.827,156.757 219.61,158.122 219.309,159.471 218.923,160.798 218.455,162.099 217.906,163.367 217.279,164.599 216.575,165.788 215.798,166.931 214.951,168.023 214.037,169.06 213.06,170.037 212.023,170.951 210.931,171.798 209.788,172.575 208.599,173.279 207.367,173.906 206.099,174.455 204.798,174.923 203.471,175.309 202.122,175.61 200.757,175.827 199.381,175.957 198,176 196.619,175.957 195.243,175.827 193.878,175.61 192.529,175.309 191.202,174.923 189.901,174.455 188.633,173.906 187.401,173.279 186.212,172.575 185.069,171.798 183.977,170.951 182.94,170.037 181.963,169.06 181.049,168.023 180.202,166.931 179.425,165.788 178.721,164.599 178.094,163.367 177.545,162.099 177.077,160.798 176.691,159.471 176.39,158.122 176.173,156.757 176.043,155.381 176,154 176.043,152.619 176.173,151.243 176.39,149.878 176.691,148.529 177.077,147.202 177.545,145.901 178.094,144.633 178.721,143.401 179.425,142.212 180.202,141.069 181.049,139.977 181.963,138.94 182.94,137.963 183.977,137.049 185.069,136.202 186.212,135.425 187.401,134.721 188.633,134.094 189.901,133.545 191.202,133.077 192.529,132.691 193.878,132.39 195.243,132.173 196.619,132.043 198,132 199.381,132.043 200.757,132.173 202.122,132.39 203.471,132.691 204.798,133.077 206.099,133.545 207.367,134.094 208.599,134.721 209.788,135.425 210.931,136.202 212.023,137.049 213.06,137.963 214.037,138.94 214.951,139.977 215.798,141.069 216.575,142.212 217.279,143.401 217.906,144.633 218.455,145.901 218.923,147.202 219.309,148.529 219.61,149.878 219.827,151.243 219.957,152.619 " style="fill:green" />
<polygon points="264,22 263.957,23.3814 263.827,24.7573 263.61,26.1224 263.309,27.4712 262.923,28.7984 262.455,30.0987 261.906,31.3671 261.279,32.5986 260.575,33.7882 259.798,34.9313 258.951,36.0233 258.037,37.06 257.06,38.0373 256.023,38.9513 254.931,39.7984 253.788,40.5752 252.599,41.2787 251.367,41.9062 250.099,42.4551 248.798,42.9232 247.471,43.3088 246.122,43.6103 244.757,43.8265 243.381,43.9566 242,44 240.619,43.9566 239.243,43.8265 237.878,43.6103 236.529,43.3088 235.202,42.9232 233.901,42.4551 232.633,41.9062 231.401,41.2787 230.212,40.5752 229.069,39.7984 227.977,38.9513 226.94,38.0373 225.963,37.06 225.049,36.0233 224.202,34.9313 223.425,33.7882 222.721,32.5986 222.094,31.3671 221.545,30.0987 221.077,28.7984 220.691,27.4712 220.39,26.1224 220.173,24.7573 220.043,23.3814 220,22 220.043,20.6186 220.173,19.2427 220.39,17.8776 220.691,16.5288 221.077,15.2016 221.545,13.9013 222.094,12.6329 222.721,11.4014 223.425,10.2118 224.202,9.06872 225.049,7.97667 225.963,6.93996 226.94,5.96269 227.977,5.04871 229.069,4.20163 230.212,3.42479 231.401,2.72125 232.633,2.0938 233.901,1.54492 235.202,1.07676 236.529,0.69117 237.878,0.38968 239.243,0.173477 240.619,0.043412 242,0 243.381,0.043412 244.757,0.173477 246.122,0.38968 247.471,0.69117 248.798,1.07676 250.099,1.54492 251.367,2.0938 252.599,2.72125 253.788,3.42479 254.931,4.20163 256.023,5.04871 257.06,5.96269 258.037,6.93996 258.951,7.97667 259.798,9.06872 260.575,10.2118 261.279,11.4014 261.906,12.6329 262.455,13.9013 262.923,15.2016 263.309,16.5288 263.61,17.8776 263.827,19.2427 263.957,20.6186 " style="fill:green" />
<polygon points="264,66 263.957,67.3814 263.827,68.7573 263.61,70.1224 263.309,71.4712 262.923,72.7984 262.455,74.0987 261.906,75.3671 261.279,76.5986 260.575,77.7882 259.798,78.9313 258.951,80.0233 258.037,81.06 257.06,82.0373 256.023,82.9513 254.931,83.7984 253.788,84.5752 252.599,85.2787 251.367,85.9062 250.099,86.4551 248.798,86.9232 247.471,87.3088 246.122,87.6103 244.757,87.8265 243.381,87.9566 242,88 240.619,87.9566 239.243,87.8265 237.878,87.6103 236.529,87.3088 235.202,86.9232 233.901,86.4551 232.633,85.9062 231.401,85.2787 230.212,84.5752 229.069,83.7984 227.977,82.9513 226.94,82.0373 225.963,81.06 225.049,80.0233 224.202,78.9313 223.425,77.7882 222.721,76.5986 222.094,75.3671 221.545,74.0987 221.077,72.7984 220.691,71.4712 220.39,70.1224 220.173,68.7573 220.043,67.3814 220,66 220.043,64.6186 220.173,63.2427 220.39,61.8776 220.691,60.5288 221.077,59.2016 221.545,57.9013 222.094,56.6329 222.721,55.4014 223.425,54.2118 224.202,53.0687 225.049,51.9767 225.963,50.94 226.94,49.9627 227.977,49.0487 229.069,48.2016 230.212,47.4248 231.401,46.7213 232.633,46.0938 233.901,45.5449 235.202,45.0768 236.529,44.6912 237.878,44.3897 239.243,44.1735 240.619,44.0434 242,44 243.381,44.0434 244.757,44.1735 246.122,44.3897 247.471,44.6912 248.798,45.0768 250.099,45.5449 251.367,46.0938 252.599,46.7213 253.788,47.4248 254.931,48.2016 256.023,49.0487 257.06,49.9627 258.037,50.94 258.951,51.9767 259.798,53.0687 260.575,54.2118 261.279,55.4014 261.906,56.6329 262.455,57.9013 262.923,59.2016 263.309,60.5288 263.61,61.8776 263.827,63.2427 263.957,64.6186 " style="fill:green" />
<polygon points="264,110 263.957,111.381 263.827,112.757 263.61,114.122 263.309,115.471 262.923,116.798 262.455,118.099 261.906,119.367 261.279,120.599 260.575,121.788 259.798,122.931 258.951,124.023 258.037,125.06 257.06,126.037 256.023,126.951 254.931,127.798 253.788,128.575 252.599,129.279 251.367,129.906 250.099,130.455 248.798,130.923 247.471,131.309 246.122,131.61 244.757,131.827 243.381,131.957 242,132 240.619,131.957 239.243,131.827 237.878,131.61 236.529,131.309 235.202,130.923 233.901,130.455 232.633,129.906 231.401,129.279 230.212,128.575 229.069,127.798 227.977,126.951 226.94,126.037 225.963,125.06 225.049,124.023 224.202,122.931 223.425,121.788 222.721,120.599 222.094,119.367 221.545,118.099 221.077,116.798 220.691,115.471 220.39,114.122 220.173,112.757 220.043,111.381 220,110 220.043,108.619 220.173,107.243 220.39,105.878 220.691,104.529 221.077,103.202 221.545,101.901 222.094,100.633 222.721,99.4014 223.425,98.2118 224.202,97.0687 225.049,95.9767 225.963,94.94 226.94,93.9627 227.977,93.0487 229.069,92.2016 230.212,91.4248 231.401,90.7213 232.633,90.0938 233.901,89.5449 235.202,89.0768 236.529,88.6912 237.878,88.3897 239.243,88.1735 240.619,88.0434 242,88 243.381,88.0434 244.757,88.1735 246.122,88.3897 247.471,88.6912 248.798,89.0768 250.099,89.5449 251.367,90.0938 252.599,90.7213 253.788,91.4248 254.931,92.2016 256.023,93.0487 257.06,93.9627 258.037,94.94 258.951,95.9767 259.798,97.0687 260.575,98.2118 261.279,99.4014 261.906,100.633 262.455,101.901 262.923,103.202 263.309,104.529 263.61,105.878 263.827,107.243 263.957,108.619 " style="fill:green" />
<polygon points="264,154 263.957,155.381 263.827,156.757 263.61,158.122 263.309,159.471 262.923,160.798 262.455,162.099 261.906,163.367 261.279,164.599 260.575,165.788 259.798,166.931 258.951,168.023 258.037,169.06 257.06,170.037 256.023,170.951 254.931,171.798 253.788,172.575 252.599,173.279 251.367,173.906 250.099,174.455 248.798,174.923 247.471,175.309 246.122,175.61 244.757,175.827 243.381,175.957 242,176 240.619,175.957 239.243,175.827 237.878,175.61 236.529,175.309 235.202,174.923 233.901,174.455 232.633,173.906 231.401,173.279 230.212,172.575 229.069,171.798 227.977,170.951 226.94,170.037 225.963,169.06 225.049,168.023 224.202,166.931 223.425,165.788 222.721,164.599 222.094,163.367 221.545,162.099 221.077,160.798 220.691,159.471 220.39,158.122 220.173,156.757 220.043,155.381 220,154 220.043,152.619 220.173,151.243 220.39,149.878 220.691,148.529 221.077,147.202 221.545,145.901 222.094,144.633 222.721,143.401 223.425,142.212 224.202,141.069 225.049,139.977 225.963,138.94 226.94,137.963 227.977,137.049 229.069,136.202 230.212,135.425 231.401,134.721 232.633,134.094 233.901,133.545 235.202,133.077 236.529,132.691 237.878,132.39 239.243,132.173 240.619,132.043 242,132 243.381,132.043 244.757,132.173 246.122,132.39 247.471,132.691 248.798,133.077 250.099,133.545 251.367,134.094 252.599,134.721 253.788,135.425 254.931,136.202 256.023,137.049 257.06,137.963 258.037,138.94 258.951,139.977 259.798,141.069 260.575,142.212 261.279,143.401 261.906,144.633 262.455,145.901 262.923,147.202 263.309,148.529 263.61,149.878 263.827,151.243 263.957,152.619 " style="fill:green" />
</svg>