<svg version="1.1"
baseProfile="full"
xmlns="http://www.w3.org/2000/svg">
<polygon points="150,0 0,259.808 300,259.808 " style="fill:red" />
<polygon points="17.5,229.497 0,259.808 35,259.808 " style="fill:green" />
<polygon points="52.5,229.497 35,259.808 70,259.808 " style="fill:green" />
<polygon points="87.5,229.497 70,259.808 105,259.808 " style="fill:green" />
<polygon points="122.5,229.497 105,259.808 140,259.808 " style="fill:green" />
<polygon points="157.5,229.497 140,259.808 175,259.808 " style="fill:green" />
<polygon points="192.5,229.497 175,259.808 210,259.808 " style="fill:green" />
<polygon points="227.5,229.497 210,259.808 245,259.808 " style="fill:green" />
<polygon points="262.5,229.497 245,259.808 280,259.808 " style="fill:green" />
<polygon points="35,199.186 17.5,229.497 52.5,229.497 " style="fill:green" />
<polygon points="70,199.186 52.5,229.497 87.5,229.497 " style="fill:green" />
<polygon points="105,199.186 87.5,229.497 122.5,229.497 " style="fill:green" />
<polygon points="140,199.186 122.5,229.497 157.5,229.497 " style="fill:green" />
<polygon points="175,199.186 157.5,229.497 192.5,229.497 " style="fill:green" />
<polygon points="210,199.186 192.5,229.497 227.5,229.497 " style="fill:green" />
<polygon points="245,199.186 227.5,229.497 262.5,229.497 " style="fill:green" />
<polygon points="52.5,168.875 35,199.186 70,199.186 " style="fill:green" />
<polygon points="87.5,168.875 70,199.186 105,199.186 " style="fill:green" />
<polygon points="122.5,168.875 105,199.186 140,199.186 " style="fill:green" />
<polygon points="157.5,168.875 140,199.186 175,199.186 " style="fill:green" />
<polygon points="192.5,168.875 175,199.186 210,199.186 " style="fill:green" />
<polygon points="227.5,168.875 210,199.186 245,199.186 " style="fill:green" />
<polygon points="70,138.564 52.5,168.875 87.5,168.875 " style="fill:green" />
<polygon points="105,138.564 87.5,168.875 122.5,168.875 " style="fill:green" />
<polygon points="140,138.564 122.5,168.875 157.5,168.875 " style="fill:green" />
<polygon points="175,138.564 157.5,168.875 192.5,168.875 " style="fill:green" />
<polygon points="210,138.564 192.5,168.875 227.5,168.875 " style="fill:green" />
<polygon points="87.5,108.253 70,138.564 105,138.564 " style="fill:green" />
<polygon points="122.5,108.253 105,138.564 140,138.564 " style="fill:green" />
<polygon points="157.5,108.253 140,138.564 175,138.564 " style="fill:green" />
<polygon points="192.5,108.253 175,138.564 210,138.564 " style="fill:green" />
<polygon points="105,77.9423 87.5,108.253 122.5,108.253 " style="fill:green" />
<polygon points="140,77.9423 122.5,108.253 157.5,108.253 " style="fill:green" />
<polygon points="175,77.9423 157.5,108.253 192.5,108.253 " style="fill:green" />
<polygon points="122.5,47.6314 105,77.9423 140,77.9423 " style="fill:green" />
<polygon points="157.5,47.6314 140,77.9423 175,77.9423 " style="fill:green" />
<polygon points="140,17.3205 122.5,47.6314 157.5,47.6314 " style="fill:green" />
<polygon points="17.5,229.497 35,259.808 52.5,229.497 " style="fill:green" />
<polygon points="52.5,229.497 70,259.808 87.5,229.497 " style="fill:green" />
<polygon points="87.5,229.497 105,259.808 122.5,229.497 " style="fill:green" />
<polygon points="122.5,229.497 140,259.808 157.5,229.497 " style="fill:green" />
<polygon points="157.5,229.497 175,259.808 192.5,229.497 " style="fill:green" />
<polygon points="192.5,229.497 210,259.808 227.5,229.497 " style="fill:green" />
<polygon points="227.5,229.497 245,259.808 262.5,229.497 " style="fill:green" />
<polygon points="35,199.186 52.5,229.497 70,199.186 " style="fill:green" />
<polygon points="70,199.186 87.5,229.497 105,199.186 " style="fill:green" />
<polygon points="105,199.186 122.5,229.497 140,199.186 " style="fill:green" />
<polygon points="140,199.186 157.5,229.497 175,199.186 " style="fill:green" />
<polygon points="175,199.186 192.5,229.497 210,199.186 " style="fill:green" />
<polygon points="210,199.186 227.5,229.497 245,199.186 " style="fill:green" />
<polygon points="52.5,168.875 70,199.186 87.5,168.875 " style="fill:green" />
<polygon points="87.5,168.875 105,199.186 122.5,168.875 " style="fill:green" />
<polygon points="122.5,168.875 140,199.186 157.5,168.875 " style="fill:green" />
<polygon points="157.5,168.875 175,199.186 192.5,168.875 " style="fill:green" />
<polygon points="192.5,168.875 210,199.186 227.5,168.875 " style="fill:green" />
<polygon points="70,138.564 87.5,168.875 105,138.564 " style="fill:green" />
<polygon points="105,138.564 122.5,168.875 140,138.564 " style="fill:green" />
<polygon points="140,138.564 157.5,168.875 175,138.564 " style="fill:green" />
<polygon points="175,138.564 192.5,168.875 210,138.564 " style="fill:green" />
<polygon points="87.5,108.253 105,138.564 122.5,108.253 " style="fill:green" />
<polygon points="122.5,108.253 140,138.564 157.5,108.253 " style="fill:green" />
<polygon points="157.5,108.253 175,138.564 192.5,108.253 " style="fill:green" />
<polygon points="105,77.9423 122.5,108.253 140,77.9423 " style="fill:green" />
<polygon points="140,77.9423 157.5,108.253 175,77.9423 " style="fill:green" />
<polygon points="122.5,47.6314 140,77.9423 157.5,47.6314 " style="fill:green" />
</svg>