<svg version="1.1"
baseProfile="full"
xmlns="http://www.w3.org/2000/svg">
<polygon points="0,0 0,200 300,200 300,0 " style="fill:red" />
<polygon points="50,25 49.9507,26.5698 49.8029,28.1333 49.5572,29.6845 49.2146,31.2172 48.7764,32.7254 48.2444,34.2031 47.6207,35.6445 46.9077,37.0438 46.1082,38.3957 45.2254,39.6946 44.2628,40.9356 43.2242,42.1137 42.1137,43.2242 40.9356,44.2628 39.6946,45.2254 38.3957,46.1082 37.0438,46.9077 35.6445,47.6207 34.2031,48.2444 32.7254,48.7764 31.2172,49.2146 29.6845,49.5572 28.1333,49.8029 26.5698,49.9507 25,50 23.4302,49.9507 21.8667,49.8029 20.3155,49.5572 18.7828,49.2146 17.2746,48.7764 15.7969,48.2444 14.3555,47.6207 12.9562,46.9077 11.6043,46.1082 10.3054,45.2254 9.0644,44.2628 7.88632,43.2242 6.77578,42.1137 5.73717,40.9356 4.77458,39.6946 3.8918,38.3957 3.09233,37.0438 2.37932,35.6445 1.75559,34.2031 1.22359,32.7254 0.785421,31.2172 0.442819,29.6845 0.197132,28.1333 0.0493318,26.5698 0,25 0.0493318,23.4302 0.197132,21.8667 0.442819,20.3155 0.785421,18.7828 1.22359,17.2746 1.75559,15.7969 2.37932,14.3555 3.09233,12.9562 3.8918,11.6043 4.77458,10.3054 5.73717,9.0644 6.77578,7.88632 7.88632,6.77578 9.0644,5.73717 10.3054,4.77458 11.6043,3.8918 12.9562,3.09233 14.3555,2.37932 15.7969,1.75559 17.2746,1.22359 18.7828,0.785421 20.3155,0.442819 21.8667,0.197132 23.4302,0.0493318 25,0 26.5698,0.0493318 28.1333,0.197132 29.6845,0.442819 31.2172,0.785421 32.7254,1.22359 34.2031,1.75559 35.6445,2.37932 37.0438,3.09233 38.3957,3.8918 39.6946,4.77458 40.9356,5.73717 42.1137,6.77578 43.2242,7.88632 44.2628,9.0644 45.2254,10.3054 46.1082,11.6043 46.9077,12.9562 47.6207,14.3555 48.2444,15.7969 48.7764,17.2746 49.2146,18.7828 49.5572,20.3155 49.8029,21.8667 49.9507,23.4302 " style="fill:green" />
<polygon points="50,75 49.9507,76.5698 49.8029,78.1333 49.5572,79.6845 49.2146,81.2172 48.7764,82.7254 48.2444,84.2031 47.6207,85.6445 46.9077,87.0438 46.1082,88.3957 45.2254,89.6946 44.2628,90.9356 43.2242,92.1137 42.1137,93.2242 40.9356,94.2628 39.6946,95.2254 38.3957,96.1082 37.0438,96.9077 35.6445,97.6207 34.2031,98.2444 32.7254,98.7764 31.2172,99.2146 29.6845,99.5572 28.1333,99.8029 26.5698,99.9507 25,100 23.4302,99.9507 21.8667,99.8029 20.3155,99.5572 18.7828,99.2146 17.2746,98.7764 15.7969,98.2444 14.3555,97.6207 12.9562,96.9077 11.6043,96.1082 10.3054,95.2254 9.0644,94.2628 7.88632,93.2242 6.77578,92.1137 5.73717,90.9356 4.77458,89.6946 3.8918,88.3957 3.09233,87.0438 2.37932,85.6445 1.75559,84.2031 1.22359,82.7254 0.785421,81.2172 0.442819,79.6845 0.197132,78.1333 0.0493318,76.5698 0,75 0.0493318,73.4302 0.197132,71.8667 0.442819,70.3155 0.785421,68.7828 1.22359,67.2746 1.75559,65.7969 2.37932,64.3555 3.09233,62.9562 3.8918,61.6043 4.77458,60.3054 5.73717,59.0644 6.77578,57.8863 7.88632,56.7758 9.0644,55.7372 10.3054,54.7746 11.6043,53.8918 12.9562,53.0923 14.3555,52.3793 15.7969,51.7556 17.2746,51.2236 18.7828,50.7854 20.3155,50.4428 21.8667,50.1971 23.4302,50.0493 25,50 26.5698,50.0493 28.1333,50.1971 29.6845,50.4428 31.2172,50.7854 32.7254,51.2236 34.2031,51.7556 35.6445,52.3793 37.0438,53.0923 38.3957,53.8918 39.6946,54.7746 40.9356,55.7372 42.1137,56.7758 43.2242,57.8863 44.2628,59.0644 45.2254,60.3054 46.1082,61.6043 46.9077,62.9562 47.6207,64.3555 48.2444,65.7969 48.7764,67.2746 49.2146,68.7828 49.5572,70.3155 49.8029,71.8667 49.9507,73.4302 " style="fill:green" />
<polygon points="50,125 49.9507,126.57 49.8029,128.133 49.5572,129.685 49.2146,131.217 48.7764,132.725 48.2444,134.203 47.6207,135.644 46.9077,137.044 46.1082,138.396 45.2254,139.695 44.2628,140.936 43.2242,142.114 42.1137,143.224 40.9356,144.263 39.6946,145.225 38.3957,146.108 37.0438,146.908 35.6445,147.621 34.2031,148.244 32.7254,148.776 31.2172,149.215 29.6845,149.557 28.1333,149.803 26.5698,149.951 25,150 23.4302,149.951 21.8667,149.803 20.3155,149.557 18.7828,149.215 17.2746,148.776 15.7969,148.244 14.3555,147.621 12.9562,146.908 11.6043,146.108 10.3054,145.225 9.0644,144.263 7.88632,143.224 6.77578,142.114 5.73717,140.936 4.77458,139.695 3.8918,138.396 3.09233,137.044 2.37932,135.644 1.75559,134.203 1.22359,132.725 0.785421,131.217 0.442819,129.685 0.197132,128.133 0.0493318,126.57 0,125 0.0493318,123.43 0.197132,121.867 0.442819,120.315 0.785421,118.783 1.22359,117.275 1.75559,115.797 2.37932,114.356 3.09233,112.956 3.8918,111.604 4.77458,110.305 5.73717,109.064 6.77578,107.886 7.88632,106.776 9.0644,105.737 10.3054,104.775 11.6043,103.892 12.9562,103.092 14.3555,102.379 15.7969,101.756 17.2746,101.224 18.7828,100.785 20.3155,100.443 21.8667,100.197 23.4302,100.049 25,100 26.5698,100.049 28.1333,100.197 29.6845,100.443 31.2172,100.785 32.7254,101.224 34.2031,101.756 35.6445,102.379 37.0438,103.092 38.3957,103.892 39.6946,104.775 40.9356,105.737 42.1137,106.776 43.2242,107.886 44.2628,109.064 45.2254,110.305 46.1082,111.604 46.9077,112.956 47.6207,114.356 48.2444,115.797 48.7764,117.275 49.2146,118.783 49.5572,120.315 49.8029,121.867 49.9507,123.43 " style="fill:green" />
<polygon points="50,175 49.9507,176.57 49.8029,178.133 49.5572,179.685 49.2146,181.217 48.7764,182.725 48.2444,184.203 47.6207,185.644 46.9077,187.044 46.1082,188.396 45.2254,189.695 44.2628,190.936 43.2242,192.114 42.1137,193.224 40.9356,194.263 39.6946,195.225 38.3957,196.108 37.0438,196.908 35.6445,197.621 34.2031,198.244 32.7254,198.776 31.2172,199.215 29.6845,199.557 28.1333,199.803 26.5698,199.951 25,200 23.4302,199.951 21.8667,199.803 20.3155,199.557 18.7828,199.215 17.2746,198.776 15.7969,198.244 14.3555,197.621 12.9562,196.908 11.6043,196.108 10.3054,195.225 9.0644,194.263 7.88632,193.224 6.77578,192.114 5.73717,190.936 4.77458,189.695 3.8918,188.396 3.09233,187.044 2.37932,185.644 1.75559,184.203 1.22359,182.725 0.785421,181.217 0.442819,179.685 0.197132,178.133 0.0493318,176.57 0,175 0.0493318,173.43 0.197132,171.867 0.442819,170.315 0.785421,168.783 1.22359,167.275 1.75559,165.797 2.37932,164.356 3.09233,162.956 3.8918,161.604 4.77458,160.305 5.73717,159.064 6.77578,157.886 7.88632,156.776 9.0644,155.737 10.3054,154.775 11.6043,153.892 12.9562,153.092 14.3555,152.379 15.7969,151.756 17.2746,151.224 18.7828,150.785 20.3155,150.443 21.8667,150.197 23.4302,150.049 25,150 26.5698,150.049 28.1333,150.197 29.6845,150.443 31.2172,150.785 32.7254,151.224 34.2031,151.756 35.6445,152.379 37.0438,153.092 38.3957,153.892 39.6946,154.775 40.9356,155.737 42.1137,156.776 43.2242,157.886 44.2628,159.064 45.2254,160.305 46.1082,161.604 46.9077,162.956 47.6207,164.356 48.2444,165.797 48.7764,167.275 49.2146,168.783 49.5572,170.315 49.8029,171.867 49.9507,173.43 " style="fill:green" />
<polygon points="100,25 99.9507,26.5698 99.8029,28.1333 99.5572,29.6845 99.2146,31.2172 98.7764,32.7254 98.2444,34.2031 97.6207,35.6445 96.9077,37.0438 96.1082,38.3957 95.2254,39.6946 94.2628,40.9356 93.2242,42.1137 92.1137,43.2242 90.9356,44.2628 89.6946,45.2254 88.3957,46.1082 87.0438,46.9077 85.6445,47.6207 84.2031,48.2444 82.7254,48.7764 81.2172,49.2146 79.6845,49.5572 78.1333,49.8029 76.5698,49.9507 75,50 73.4302,49.9507 71.8667,49.8029 70.3155,49.5572 68.7828,49.2146 67.2746,48.7764 65.7969,48.2444 64.3555,47.6207 62.9562,46.9077 61.6043,46.1082 60.3054,45.2254 59.0644,44.2628 57.8863,43.2242 56.7758,42.1137 55.7372,40.9356 54.7746,39.6946 53.8918,38.3957 53.0923,37.0438 52.3793,35.6445 51.7556,34.2031 51.2236,32.7254 50.7854,31.2172 50.4428,29.6845 50.1971,28.1333 50.0493,26.5698 50,25 50.0493,23.4302 50.1971,21.8667 50.4428,20.3155 50.7854,18.7828 51.2236,17.2746 51.7556,15.7969 52.3793,14.3555 53.0923,12.9562 53.8918,11.6043 54.7746,10.3054 55.7372,9.0644 56.7758,7.88632 57.8863,6.77578 59.0644,5.73717 60.3054,4.77458 61.6043,3.8918 62.9562,3.09233 64.3555,2.37932 65.7969,1.75559 67.2746,1.22359 68.7828,0.785421 70.3155,0.442819 71.8667,0.197132 73.4302,0.0493318 75,0 76.5698,0.0493318 78.1333,0.197132 79.6845,0.442819 81.2172,0.785421 82.7254,1.22359 84.2031,1.75559 85.6445,2.37932 87.0438,3.09233 88.3957,3.8918 89.6946,4.77458 90.9356,5.73717 92.1137,6.77578 93.2242,7.88632 94.2628,9.0644 95.2254,10.3054 96.1082,11.6043 96.9077,12.9562 97.6207,14.3555 98.2444,15.7969 98.7764,17.2746 99.2146,18.7828 99.5572,20.3155 99.8029,21.8667 99.9507,23.4302 " style="fill:green" />
<polygon points="100,75 99.9507,76.5698 99.8029,78.1333 99.5572,79.6845 99.2146,81.2172 98.7764,82.7254 98.2444,84.2031 97.6207,85.6445 96.9077,87.0438 96.1082,88.3957 95.2254,89.6946 94.2628,90.9356 93.2242,92.1137 92.1137,93.2242 90.9356,94.2628 89.6946,95.2254 88.3957,96.1082 87.0438,96.9077 85.6445,97.6207 84.2031,98.2444 82.7254,98.7764 81.2172,99.2146 79.6845,99.5572 78.1333,99.8029 76.5698,99.9507 75,100 73.4302,99.9507 71.8667,99.8029 70.3155,99.5572 68.7828,99.2146 67.2746,98.7764 65.7969,98.2444 64.3555,97.6207 62.9562,96.9077 61.6043,96.1082 60.3054,95.2254 59.0644,94.2628 57.8863,93.2242 56.7758,92.1137 55.7372,90.9356 54.7746,89.6946 53.8918,88.3957 53.0923,87.0438 52.3793,85.6445 51.7556,84.2031 51.2236,82.7254 50.7854,81.2172 50.4428,79.6845 50.1971,78.1333 50.0493,76.5698 50,75 50.0493,73.4302 50.1971,71.8667 50.4428,70.3155 50.7854,68.7828 51.2236,67.2746 51.7556,65.7969 52.3793,64.3555 53.0923,62.9562 53.8918,61.6043 54.7746,60.3054 55.7372,59.0644 56.7758,57.8863 57.8863,56.7758 59.0644,55.7372 60.3054,54.7746 61.6043,53.8918 62.9562,53.0923 64.3555,52.3793 65.7969,51.7556 67.2746,51.2236 68.7828,50.7854 70.3155,50.4428 71.8667,50.1971 73.4302,50.0493 75,50 76.5698,50.0493 78.1333,50.1971 79.6845,50.4428 81.2172,50.7854 82.7254,51.2236 84.2031,51.7556 85.6445,52.3793 87.0438,53.0923 88.3957,53.8918 89.6946,54.7746 90.9356,55.7372 92.1137,56.7758 93.2242,57.8863 94.2628,59.0644 95.2254,60.3054 96.1082,61.6043 96.9077,62.9562 97.6207,64.3555 98.2444,65.7969 98.7764,67.2746 99.2146,68.7828 99.5572,70.3155 99.8029,71.8667 99.9507,73.4302 " style="fill:green" />
<polygon points="100,125 99.9507,126.57 99.8029,128.133 99.5572,129.685 99.2146,131.217 98.7764,132.725 98.2444,134.203 97.6207,135.644 96.9077,137.044 96.1082,138.396 95.2254,139.695 94.2628,140.936 93.2242,142.114 92.1137,143.224 90.9356,144.263 89.6946,145.225 88.3957,146.108 87.0438,146.908 85.6445,147.621 84.2031,148.244 82.7254,148.776 81.2172,149.215 79.6845,149.557 78.1333,149.803 76.5698,149.951 75,150 73.4302,149.951 71.8667,149.803 70.3155,149.557 68.7828,149.215 67.2746,148.776 65.7969,148.244 64.3555,147.621 62.9562,146.908 61.6043,146.108 60.3054,145.225 59.0644,144.263 57.8863,143.224 56.7758,142.114 55.7372,140.936 54.7746,139.695 53.8918,138.396 53.0923,137.044 52.3793,135.644 51.7556,134.203 51.2236,132.725 50.7854,131.217 50.4428,129.685 50.1971,128.133 50.0493,126.57 50,125 50.0493,123.43 50.1971,121.867 50.4428,120.315 50.7854,118.783 51.2236,117.275 51.7556,115.797 52.3793,114.356 53.0923,112.956 53.8918,111.604 54.7746,110.305 55.7372,109.064 56.7758,107.886 57.8863,106.776 59.0644,105.737 60.3054,104.775 61.6043,103.892 62.9562,103.092 64.3555,102.379 65.7969,101.756 67.2746,101.224 68.7828,100.785 70.3155,100.443 71.8667,100.197 73.4302,100.049 75,100 76.5698,100.049 78.1333,100.197 79.6845,100.443 81.2172,100.785 82.7254,101.224 84.2031,101.756 85.6445,102.379 87.0438,103.092 88.3957,103.892 89.6946,104.775 90.9356,105.737 92.1137,106.776 93.2242,107.886 94.2628,109.064 95.2254,110.305 96.1082,111.604 96.9077,112.956 97.6207,114.356 98.2444,115.797 98.7764,117.275 99.2146,118.783 99.5572,120.315 99.8029,121.867 99.9507,123.43 " style="fill:green" />
<polygon points="100,175 99.9507,176.57 99.8029,178.133 99.5572,179.685 99.2146,181.217 98.7764,182.725 98.2444,184.203 97.6207,185.644 96.9077,187.044 96.1082,188.396 95.2254,189.695 94.2628,190.936 93.2242,192.114 92.1137,193.224 90.9356,194.263 89.6946,195.225 88.3957,196.108 87.0438,196.908 85.6445,197.621 84.2031,198.244 82.7254,198.776 81.2172,199.215 79.6845,199.557 78.1333,199.803 76.5698,199.951 75,200 73.4302,199.951 71.8667,199.803 70.3155,199.557 68.7828,199.215 67.2746,198.776 65.7969,198.244 64.3555,197.621 62.9562,196.908 61.6043,196.108 60.3054,195.225 59.0644,194.263 57.8863,193.224 56.7758,192.114 55.7372,190.936 54.7746,189.695 53.8918,188.396 53.0923,187.044 52.3793,185.644 51.7556,184.203 51.2236,182.725 50.7854,181.217 50.4428,179.685 50.1971,178.133 50.0493,176.57 50,175 50.0493,173.43 50.1971,171.867 50.4428,170.315 50.7854,168.783 51.2236,167.275 51.7556,165.797 52.3793,164.356 53.0923,162.956 53.8918,161.604 54.7746,160.305 55.7372,159.064 56.7758,157.886 57.8863,156.776 59.0644,155.737 60.3054,154.775 61.6043,153.892 62.9562,153.092 64.3555,152.379 65.7969,151.756 67.2746,151.224 68.7828,150.785 70.3155,150.443 71.8667,150.197 73.4302,150.049 75,150 76.5698,150.049 78.1333,150.197 79.6845,150.443 81.2172,150.785 82.7254,151.224 84.2031,151.756 85.6445,152.379 87.0438,153.092 88.3957,153.892 89.6946,154.775 90.9356,155.737 92.1137,156.776 93.2242,157.886 94.2628,159.064 95.2254,160.305 96.1082,161.604 96.9077,162.956 97.6207,164.356 98.2444,165.797 98.7764,167.275 99.2146,168.783 99.5572,170.315 99.8029,171.867 99.9507,173.43 " style="fill:green" />
<polygon points="150,25 149.951,26.5698 149.803,28.1333 149.557,29.6845 149.215,31.2172 148.776,32.7254 148.244,34.2031 147.621,35.6445 146.908,37.0438 146.108,38.3957 145.225,39.6946 144.263,40.9356 143.224,42.1137 142.114,43.2242 140.936,44.2628 139.695,45.2254 138.396,46.1082 137.044,46.9077 135.644,47.6207 134.203,48.2444 132.725,48.7764 131.217,49.2146 129.685,49.5572 128.133,49.8029 126.57,49.9507 125,50 123.43,49.9507 121.867,49.8029 120.315,49.5572 118.783,49.2146 117.275,48.7764 115.797,48.2444 114.356,47.6207 112.956,46.9077 111.604,46.1082 110.305,45.2254 109.064,44.2628 107.886,43.2242 106.776,42.1137 105.737,40.9356 104.775,39.6946 103.892,38.3957 103.092,37.0438 102.379,35.6445 101.756,34.2031 101.224,32.7254 100.785,31.2172 100.443,29.6845 100.197,28.1333 100.049,26.5698 100,25 100.049,23.4302 100.197,21.8667 100.443,20.3155 100.785,18.7828 101.224,17.2746 101.756,15.7969 102.379,14.3555 103.092,12.9562 103.892,11.6043 104.775,10.3054 105.737,9.0644 106.776,7.88632 107.886,6.77578 109.064,5.73717 110.305,4.77458 111.604,3.8918 112.956,3.09233 114.356,2.37932 115.797,1.75559 117.275,1.22359 118.783,0.785421 120.315,0.442819 121.867,0.197132 123.43,0.0493318 125,0 126.57,0.0493318 128.133,0.197132 129.685,0.442819 131.217,0.785421 132.725,1.22359 134.203,1.75559 135.644,2.37932 137.044,3.09233 138.396,3.8918 139.695,4.77458 140.936,5.73717 142.114,6.77578 143.224,7.88632 144.263,9.0644 145.225,10.3054 146.108,11.6043 146.908,12.9562 147.621,14.3555 148.244,15.7969 148.776,17.2746 149.215,18.7828 149.557,20.3155 149.803,21.8667 149.951,23.4302 " style="fill:green" />
<polygon points="150,75 149.951,76.5698 149.803,78.1333 149.557,79.6845 149.215,81.2172 148.776,82.7254 148.244,84.2031 147.621,85.6445 146.908,87.0438 146.108,88.3957 145.225,89.6946 144.263,90.9356 143.224,92.1137 142.114,93.2242 140.936,94.2628 139.695,95.2254 138.396,96.1082 137.044,96.9077 135.644,97.6207 134.203,98.2444 132.725,98.7764 131.217,99.2146 129.685,99.5572 128.133,99.8029 126.57,99.9507 125,100 123.43,99.9507 121.867,99.8029 120.315,99.5572 118.783,99.2146 117.275,98.7764 115.797,98.2444 114.356,97.6207 112.956,96.9077 111.604,96.1082 110.305,95.2254 109.064,94.2628 107.886,93.2242 106.776,92.1137 105.737,90.9356 104.775,89.6946 103.892,88.3957 103.092,87.0438 102.379,85.6445 101.756,84.2031 101.224,82.7254 100.785,81.2172 100.443,79.6845 100.197,78.1333 100.049,76.5698 100,75 100.049,73.4302 100.197,71.8667 100.443,70.3155 100.785,68.7828 101.224,67.2746 101.756,65.7969 102.379,64.3555 103.092,62.9562 103.892,61.6043 104.775,60.3054 105.737,59.0644 106.776,57.8863 107.886,56.7758 109.064,55.7372 110.305,54.7746 111.604,53.8918 112.956,53.0923 114.356,52.3793 115.797,51.7556 117.275,51.2236 118.783,50.7854 120.315,50.4428 121.867,50.1971 123.43,50.0493 125,50 126.57,50.0493 128.133,50.1971 129.685,50.4428 131.217,50.7854 132.725,51.2236 134.203,51.7556 135.644,52.3793 137.044,53.0923 138.396,53.8918 139.695,54.7746 140.936,55.7372 142.114,56.7758 143.224,57.8863 144.263,59.0644 145.225,60.3054 146.108,61.6043 146.908,62.9562 147.621,64.3555 148.244,65.7969 148.776,67.2746 149.215,68.7828 149.557,70.3155 149.803,71.8667 149.951,73.4302 " style="fill:green" />
<polygon points="150,125 149.951,126.57 149.803,128.133 149.557,129.685 149.215,131.217 148.776,132.725 148.244,134.203 147.621,135.644 146.908,137.044 146.108,138.396 145.225,139.695 144.263,140.936 143.224,142.114 142.114,143.224 140.936,144.263 139.695,145.225 138.396,146.108 137.044,146.908 135.644,147.621 134.203,148.244 132.725,148.776 131.217,149.215 129.685,149.557 128.133,149.803 126.57,149.951 125,150 123.43,149.951 121.867,149.803 120.315,149.557 118.783,149.215 117.275,148.776 115.797,148.244 114.356,147.621 112.956,146.908 111.604,146.108 110.305,145.225 109.064,144.263 107.886,143.224 106.776,142.114 105.737,140.936 104.775,139.695 103.892,138.396 103.092,137.044 102.379,135.644 101.756,134.203 101.224,132.725 100.785,131.217 100.443,129.685 100.197,128.133 100.049,126.57 100,125 100.049,123.43 100.197,121.867 100.443,120.315 100.785,118.783 101.224,117.275 101.756,115.797 102.379,114.356 103.092,112.956 103.892,111.604 104.775,110.305 105.737,109.064 106.776,107.886 107.886,106.776 109.064,105.737 110.305,104.775 111.604,103.892 112.956,103.092 114.356,102.379 115.797,101.756 117.275,101.224 118.783,100.785 120.315,100.443 121.867,100.197 123.43,100.049 125,100 126.57,100.049 128.133,100.197 129.685,100.443 131.217,100.785 132.725,101.224 134.203,101.756 135.644,102.379 137.044,103.092 138.396,103.892 139.695,104.775 140.936,105.737 142.114,106.776 143.224,107.886 144.263,109.064 145.225,110.305 146.108,111.604 146.908,112.956 147.621,114.356 148.244,115.797 148.776,117.275 149.215,118.783 149.557,120.315 149.803,121.867 149.951,123.43 " style="fill:green" />
<polygon points="150,175 149.951,176.57 149.803,178.133 149.557,179.685 149.215,181.217 148.776,182.725 148.244,184.203 147.621,185.644 146.908,187.044 146.108,188.396 145.225,189.695 144.263,190.936 143.224,192.114 142.114,193.224 140.936,194.263 139.695,195.225 138.396,196.108 137.044,196.908 135.644,197.621 134.203,198.244 132.725,198.776 131.217,199.215 129.685,199.557 128.133,199.803 126.57,199.951 125,200 123.43,199.951 121.867,199.803 120.315,199.557 118.783,199.215 117.275,198.776 115.797,198.244 114.356,197.621 112.956,196.908 111.604,196.108 110.305,195.225 109.064,194.263 107.886,193.224 106.776,192.114 105.737,190.936 104.775,189.695 103.892,188.396 103.092,187.044 102.379,185.644 101.756,184.203 101.224,182.725 100.785,181.217 100.443,179.685 100.197,178.133 100.049,176.57 100,175 100.049,173.43 100.197,171.867 100.443,170.315 100.785,168.783 101.224,167.275 101.756,165.797 102.379,164.356 103.092,162.956 103.892,161.604 104.775,160.305 105.737,159.064 106.776,157.886 107.886,156.776 109.064,155.737 110.305,154.775 111.604,153.892 112.956,153.092 114.356,152.379 115.797,151.756 117.275,151.224 118.783,150.785 120.315,150.443 121.867,150.197 123.43,150.049 125,150 126.57,150.049 128.133,150.197 129.685,150.443 131.217,150.785 132.725,151.224 134.203,151.756 135.644,152.379 137.044,153.092 138.396,153.892 139.695,154.775 140.936,155.737 142.114,156.776 143.224,157.886 144.263,159.064 145.225,160.305 146.108,161.604 146.908,162.956 147.621,164.356 148.244,165.797 148.776,167.275 149.215,168.783 149.557,170.315 149.803,171.867 149.951,173.43 " style="fill:green" />
<polygon points="200,25 199.951,26.5698 199.803,28.1333 199.557,29.6845 199.215,31.2172 198.776,32.7254 198.244,34.2031 197.621,35.6445 196.908,37.0438 196.108,38.3957 195.225,39.6946 194.263,40.9356 193.224,42.1137 192.114,43.2242 190.936,44.2628 189.695,45.2254 188.396,46.1082 187.044,46.9077 185.644,47.6207 184.203,48.2444 182.725,48.7764 181.217,49.2146 179.685,49.5572 178.133,49.8029 176.57,49.9507 175,50 173.43,49.9507 171.867,49.8029 170.315,49.5572 168.783,49.2146 167.275,48.7764 165.797,48.2444 164.356,47.6207 162.956,46.9077 161.604,46.1082 160.305,45.2254 159.064,44.2628 157.886,43.2242 156.776,42.1137 155.737,40.9356 154.775,39.6946 153.892,38.3957 153.092,37.0438 152.379,35.6445 151.756,34.2031 151.224,32.7254 150.785,31.2172 150.443,29.6845 150.197,28.1333 150.049,26.5698 150,25 150.049,23.4302 150.197,21.8667 150.443,20.3155 150.785,18.7828 151.224,17.2746 151.756,15.7969 152.379,14.3555 153.092,12.9562 153.892,11.6043 154.775,10.3054 155.737,9.0644 156.776,7.88632 157.886,6.77578 159.064,5.73717 160.305,4.77458 161.604,3.8918 162.956,3.09233 164.356,2.37932 165.797,1.75559 167.275,1.22359 168.783,0.785421 170.315,0.442819 171.867,0.197132 173.43,0.0493318 175,0 176.57,0.0493318 178.133,0.197132 179.685,0.442819 181.217,0.785421 182.725,1.22359 184.203,1.75559 185.644,2.37932 187.044,3.09233 188.396,3.8918 189.695,4.77458 190.936,5.73717 192.114,6.77578 193.224,7.88632 194.263,9.0644 195.225,10.3054 196.108,11.6043 196.908,12.9562 197.621,14.3555 198.244,15.7969 198.776,17.2746 199.215,18.7828 199.557,20.3155 199.803,21.8667 199.951,23.4302 " style="fill:green" />
<polygon points="200,75 199.951,76.5698 199.803,78.1333 199.557,79.6845 199.215,81.2172 198.776,82.7254 198.244,84.2031 197.621,85.6445 196.908,87.0438 196.108,88.3957 195.225,89.6946 194.263,90.9356 193.224,92.1137 192.114,93.2242 190.936,94.2628 189.695,95.2254 188.396,96.1082 187.044,96.9077 185.644,97.6207 184.203,98.2444 182.725,98.7764 181.217,99.2146 179.685,99.5572 178.133,99.8029 176.57,99.9507 175,100 173.43,99.9507 171.867,99.8029 170.315,99.5572 168.783,99.2146 167.275,98.7764 165.797,98.2444 164.356,97.6207 162.956,96.9077 161.604,96.1082 160.305,95.2254 159.064,94.2628 157.886,93.2242 156.776,92.1137 155.737,90.9356 154.775,89.6946 153.892,88.3957 153.092,87.0438 152.379,85.6445 151.756,84.2031 151.224,82.7254 150.785,81.2172 150.443,79.6845 150.197,78.1333 150.049,76.5698 150,75 150.049,73.4302 150.197,71.8667 150.443,70.3155 150.785,68.7828 151.224,67.2746 151.756,65.7969 152.379,64.3555 153.092,62.9562 153.892,61.6043 154.775,60.3054 155.737,59.0644 156.776,57.8863 157.886,56.7758 159.064,55.7372 160.305,54.7746 161.604,53.8918 162.956,53.0923 164.356,52.3793 165.797,51.7556 167.275,51.2236 168.783,50.7854 170.315,50.4428 171.867,50.1971 173.43,50.0493 175,50 176.57,50.0493 178.133,50.1971 179.685,50.4428 181.217,50.7854 182.725,51.2236 184.203,51.7556 185.644,52.3793 187.044,53.0923 188.396,53.8918 189.695,54.7746 190.936,55.7372 192.114,56.7758 193.224,57.8863 194.263,59.0644 195.225,60.3054 196.108,61.6043 196.908,62.9562 197.621,64.3555 198.244,65.7969 198.776,67.2746 199.215,68.7828 199.557,70.3155 199.803,71.8667 199.951,73.4302 " style="fill:green" />
<polygon points="200,125 199.951,126.57 199.803,128.133 199.557,129.685 199.215,131.217 198.776,132.725 198.244,134.203 197.621,135.644 196.908,137.044 196.108,138.396 195.225,139.695 194.263,140.936 193.224,142.114 192.114,143.224 190.936,144.263 189.695,145.225 188.396,146.108 187.044,146.908 185.644,147.621 184.203,148.244 182.725,148.776 181.217,149.215 179.685,149.557 178.133,149.803 176.57,149.951 175,150 173.43,149.951 171.867,149.803 170.315,149.557 168.783,149.215 167.275,148.776 165.797,148.244 164.356,147.621 162.956,146.908 161.604,146.108 160.305,145.225 159.064,144.263 157.886,143.224 156.776,142.114 155.737,140.936 154.775,139.695 153.892,138.396 153.092,137.044 152.379,135.644 151.756,134.203 151.224,132.725 150.785,131.217 150.443,129.685 150.197,128.133 150.049,126.57 150,125 150.049,123.43 150.197,121.867 150.443,120.315 150.785,118.783 151.224,117.275 151.756,115.797 152.379,114.356 153.092,112.956 153.892,111.604 154.775,110.305 155.737,109.064 156.776,107.886 157.886,106.776 159.064,105.737 160.305,104.775 161.604,103.892 162.956,103.092 164.356,102.379 165.797,101.756 167.275,101.224 168.783,100.785 170.315,100.443 171.867,100.197 173.43,100.049 175,100 176.57,100.049 178.133,100.197 179.685,100.443 181.217,100.785 182.725,101.224 184.203,101.756 185.644,102.379 187.044,103.092 188.396,103.892 189.695,104.775 190.936,105.737 192.114,106.776 193.224,107.886 194.263,109.064 195.225,110.305 196.108,111.604 196.908,112.956 197.621,114.356 198.244,115.797 198.776,117.275 199.215,118.783 199.557,120.315 199.803,121.867 199.951,123.43 " style="fill:green" />
<polygon points="200,175 199.951,176.57 199.803,178.133 199.557,179.685 199.215,181.217 198.776,182.725 198.244,184.203 197.621,185.644 196.908,187.044 196.108,188.396 195.225,189.695 194.263,190.936 193.224,192.114 192.114,193.224 190.936,194.263 189.695,195.225 188.396,196.108 187.044,196.908 185.644,197.621 184.203,198.244 182.725,198.776 181.217,199.215 179.685,199.557 178.133,199.803 176.57,199.951 175,200 173.43,199.951 171.867,199.803 170.315,199.557 168.783,199.215 167.275,198.776 165.797,198.244 164.356,197.621 162.956,196.908 161.604,196.108 160.305,195.225 159.064,194.263 157.886,193.224 156.776,192.114 155.737,190.936 154.775,189.695 153.892,188.396 153.092,187.044 152.379,185.644 151.756,184.203 151.224,182.725 150.785,181.217 150.443,179.685 150.197,178.133 150.049,176.57 150,175 150.049,173.43 150.197,171.867 150.443,170.315 150.785,168.783 151.224,167.275 151.756,165.797 152.379,164.356 153.092,162.956 153.892,161.604 154.775,160.305 155.737,159.064 156.776,157.886 157.886,156.776 159.064,155.737 160.305,154.775 161.604,153.892 162.956,153.092 164.356,152.379 165.797,151.756 167.275,151.224 168.783,150.785 170.315,150.443 171.867,150.197 173.43,150.049 175,150 176.57,150.049 178.133,150.197 179.685,150.443 181.217,150.785 182.725,151.224 184.203,151.756 185.644,152.379 187.044,153.092 188.396,153.892 189.695,154.775 190.936,155.737 192.114,156.776 193.224,157.886 194.263,159.064 195.225,160.305 196.108,161.604 196.908,162.956 197.621,164.356 198.244,165.797 198.776,167.275 199.215,168.783 199.557,170.315 199.803,171.867 199.951,173.43 " style="fill:green" />
<polygon points="250,25 249.951,26.5698 249.803,28.1333 249.557,29.6845 249.215,31.2172 248.776,32.7254 248.244,34.2031 247.621,35.6445 246.908,37.0438 246.108,38.3957 245.225,39.6946 244.263,40.9356 243.224,42.1137 242.114,43.2242 240.936,44.2628 239.695,45.2254 238.396,46.1082 237.044,46.9077 235.644,47.6207 234.203,48.2444 232.725,48.7764 231.217,49.2146 229.685,49.5572 228.133,49.8029 226.57,49.9507 225,50 223.43,49.9507 221.867,49.8029 220.315,49.5572 218.783,49.2146 217.275,48.7764 215.797,48.2444 214.356,47.6207 212.956,46.9077 211.604,46.1082 210.305,45.2254 209.064,44.2628 207.886,43.2242 206.776,42.1137 205.737,40.9356 204.775,39.6946 203.892,38.3957 203.092,37.0438 202.379,35.6445 201.756,34.2031 201.224,32.7254 200.785,31.2172 200.443,29.6845 200.197,28.1333 200.049,26.5698 200,25 200.049,23.4302 200.197,21.8667 200.443,20.3155 200.785,18.7828 201.224,17.2746 201.756,15.7969 202.379,14.3555 203.092,12.9562 203.892,11.6043 204.775,10.3054 205.737,9.0644 206.776,7.88632 207.886,6.77578 209.064,5.73717 210.305,4.77458 211.604,3.8918 212.956,3.09233 214.356,2.37932 215.797,1.75559 217.275,1.22359 218.783,0.785421 220.315,0.442819 221.867,0.197132 223.43,0.0493318 225,0 226.57,0.0493318 228.133,0.197132 229.685,0.442819 231.217,0.785421 232.725,1.22359 234.203,1.75559 235.644,2.37932 237.044,3.09233 238.396,3.8918 239.695,4.77458 240.936,5.73717 242.114,6.77578 243.224,7.88632 244.263,9.0644 245.225,10.3054 246.108,11.6043 246.908,12.9562 247.621,14.3555 248.244,15.7969 248.776,17.2746 249.215,18.7828 249.557,20.3155 249.803,21.8667 249.951,23.4302 " style="fill:green" />
<polygon points="250,75 249.951,76.5698 249.803,78.1333 249.557,79.6845 249.215,81.2172 248.776,82.7254 248.244,84.2031 247.621,85.6445 246.908,87.0438 246.108,88.3957 245.225,89.6946 244.263,90.9356 243.224,92.1137 242.114,93.2242 240.936,94.2628 239.695,95.2254 238.396,96.1082 237.044,96.9077 235.644,97.6207 234.203,98.2444 232.725,98.7764 231.217,99.2146 229.685,99.5572 228.133,99.8029 226.57,99.9507 225,100 223.43,99.9507 221.867,99.8029 220.315,99.5572 218.783,99.2146 217.275,98.7764 215.797,98.2444 214.356,97.6207 212.956,96.9077 211.604,96.1082 210.305,95.2254 209.064,94.2628 207.886,93.2242 206.776,92.1137 205.737,90.9356 204.775,89.6946 203.892,88.3957 203.092,87.0438 202.379,85.6445 201.756,84.2031 201.224,82.7254 200.785,81.2172 200.443,79.6845 200.197,78.1333 200.049,76.5698 200,75 200.049,73.4302 200.197,71.8667 200.443,70.3155 200.785,68.7828 201.224,67.2746 201.756,65.7969 202.379,64.3555 203.092,62.9562 203.892,61.6043 204.775,60.3054 205.737,59.0644 206.776,57.8863 207.886,56.7758 209.064,55.7372 210.305,54.7746 211.604,53.8918 212.956,53.0923 214.356,52.3793 215.797,51.7556 217.275,51.2236 218.783,50.7854 220.315,50.4428 221.867,50.1971 223.43,50.0493 225,50 226.57,50.0493 228.133,50.1971 229.685,50.4428 231.217,50.7854 232.725,51.2236 234.203,51.7556 235.644,52.3793 237.044,53.0923 238.396,53.8918 239.695,54.7746 240.936,55.7372 242.114,56.7758 243.224,57.8863 244.263,59.0644 245.225,60.3054 246.108,61.6043 246.908,62.9562 247.621,64.3555 248.244,65.7969 248.776,67.2746 249.215,68.7828 249.557,70.3155 249.803,71.8667 249.951,73.4302 " style="fill:green" />
<polygon points="250,125 249.951,126.57 249.803,128.133 249.557,129.685 249.215,131.217 248.776,132.725 248.244,134.203 247.621,135.644 246.908,137.044 246.108,138.396 245.225,139.695 244.263,140.936 243.224,142.114 242.114,143.224 240.936,144.263 239.695,145.225 238.396,146.108 237.044,146.908 235.644,147.621 234.203,148.244 232.725,148.776 231.217,149.215 229.685,149.557 228.133,149.803 226.57,149.951 225,150 223.43,149.951 221.867,149.803 220.315,149.557 218.783,149.215 217.275,148.776 215.797,148.244 214.356,147.621 212.956,146.908 211.604,146.108 210.305,145.225 209.064,144.263 207.886,143.224 206.776,142.114 205.737,140.936 204.775,139.695 203.892,138.396 203.092,137.044 202.379,135.644 201.756,134.203 201.224,132.725 200.785,131.217 200.443,129.685 200.197,128.133 200.049,126.57 200,125 200.049,123.43 200.197,121.867 200.443,120.315 200.785,118.783 201.224,117.275 201.756,115.797 202.379,114.356 203.092,112.956 203.892,111.604 204.775,110.305 205.737,109.064 206.776,107.886 207.886,106.776 209.064,105.737 210.305,104.775 211.604,103.892 212.956,103.092 214.356,102.379 215.797,101.756 217.275,101.224 218.783,100.785 220.315,100.443 221.867,100.197 223.43,100.049 225,100 226.57,100.049 228.133,100.197 229.685,100.443 231.217,100.785 232.725,101.224 234.203,101.756 235.644,102.379 237.044,103.092 238.396,103.892 239.695,104.775 240.936,105.737 242.114,106.776 243.224,107.886 244.263,109.064 245.225,110.305 246.108,111.604 246.908,112.956 247.621,114.356 248.244,115.797 248.776,117.275 249.215,118.783 249.557,120.315 249.803,121.867 249.951,123.43 " style="fill:green" />
<polygon points="250,175 249.951,176.57 249.803,178.133 249.557,179.685 249.215,181.217 248.776,182.725 248.244,184.203 247.621,185.644 246.908,187.044 246.108,188.396 245.225,189.695 244.263,190.936 243.224,192.114 242.114,193.224 240.936,194.263 239.695,195.225 238.396,196.108 237.044,196.908 235.644,197.621 234.203,198.244 232.725,198.776 231.217,199.215 229.685,199.557 228.133,199.803 226.57,199.951 225,200 223.43,199.951 221.867,199.803 220.315,199.557 218.783,199.215 217.275,198.776 215.797,198.244 214.356,197.621 212.956,196.908 211.604,196.108 210.305,195.225 209.064,194.263 207.886,193.224 206.776,192.114 205.737,190.936 204.775,189.695 203.892,188.396 203.092,187.044 202.379,185.644 201.756,184.203 201.224,182.725 200.785,181.217 200.443,179.685 200.197,178.133 200.049,176.57 200,175 200.049,173.43 200.197,171.867 200.443,170.315 200.785,168.783 201.224,167.275 201.756,165.797 202.379,164.356 203.092,162.956 203.892,161.604 204.775,160.305 205.737,159.064 206.776,157.886 207.886,156.776 209.064,155.737 210.305,154.775 211.604,153.892 212.956,153.092 214.356,152.379 215.797,151.756 217.275,151.224 218.783,150.785 220.315,150.443 221.867,150.197 223.43,150.049 225,150 226.57,150.049 228.133,150.197 229.685,150.443 231.217,150.785 232.725,151.224 234.203,151.756 235.644,152.379 237.044,153.092 238.396,153.892 239.695,154.775 240.936,155.737 242.114,156.776 243.224,157.886 244.263,159.064 245.225,160.305 246.108,161.604 246.908,162.956 247.621,164.356 248.244,165.797 248.776,167.275 249.215,168.783 249.557,170.315 249.803,171.867 249.951,173.43 " style="fill:green" />
<polygon points="300,25 299.951,26.5698 299.803,28.1333 299.557,29.6845 299.215,31.2172 298.776,32.7254 298.244,34.2031 297.621,35.6445 296.908,37.0438 296.108,38.3957 295.225,39.6946 294.263,40.9356 293.224,42.1137 292.114,43.2242 290.936,44.2628 289.695,45.2254 288.396,46.1082 287.044,46.9077 285.644,47.6207 284.203,48.2444 282.725,48.7764 281.217,49.2146 279.685,49.5572 278.133,49.8029 276.57,49.9507 275,50 273.43,49.9507 271.867,49.8029 270.315,49.5572 268.783,49.2146 267.275,48.7764 265.797,48.2444 264.356,47.6207 262.956,46.9077 261.604,46.1082 260.305,45.2254 259.064,44.2628 257.886,43.2242 256.776,42.1137 255.737,40.9356 254.775,39.6946 253.892,38.3957 253.092,37.0438 252.379,35.6445 251.756,34.2031 251.224,32.7254 250.785,31.2172 250.443,29.6845 250.197,28.1333 250.049,26.5698 250,25 250.049,23.4302 250.197,21.8667 250.443,20.3155 250.785,18.7828 251.224,17.2746 251.756,15.7969 252.379,14.3555 253.092,12.9562 253.892,11.6043 254.775,10.3054 255.737,9.0644 256.776,7.88632 257.886,6.77578 259.064,5.73717 260.305,4.77458 261.604,3.8918 262.956,3.09233 264.356,2.37932 265.797,1.75559 267.275,1.22359 268.783,0.785421 270.315,0.442819 271.867,0.197132 273.43,0.0493318 275,0 276.57,0.0493318 278.133,0.197132 279.685,0.442819 281.217,0.785421 282.725,1.22359 284.203,1.75559 285.644,2.37932 287.044,3.09233 288.396,3.8918 289.695,4.77458 290.936,5.73717 292.114,6.77578 293.224,7.88632 294.263,9.0644 295.225,10.3054 296.108,11.6043 296.908,12.9562 297.621,14.3555 298.244,15.7969 298.776,17.2746 299.215,18.7828 299.557,20.3155 299.803,21.8667 299.951,23.4302 " style="fill:green" />
<polygon points="300,75 299.951,76.5698 299.803,78.1333 299.557,79.6845 299.215,81.2172 298.776,82.7254 298.244,84.2031 297.621,85.6445 296.908,87.0438 296.108,88.3957 295.225,89.6946 294.263,90.9356 293.224,92.1137 292.114,93.2242 290.936,94.2628 289.695,95.2254 288.396,96.1082 287.044,96.9077 285.644,97.6207 284.203,98.2444 282.725,98.7764 281.217,99.2146 279.685,99.5572 278.133,99.8029 276.57,99.9507 275,100 273.43,99.9507 271.867,99.8029 270.315,99.5572 268.783,99.2146 267.275,98.7764 265.797,98.2444 264.356,97.6207 262.956,96.9077 261.604,96.1082 260.305,95.2254 259.064,94.2628 257.886,93.2242 256.776,92.1137 255.737,90.9356 254.775,89.6946 253.892,88.3957 253.092,87.0438 252.379,85.6445 251.756,84.2031 251.224,82.7254 250.785,81.2172 250.443,79.6845 250.197,78.1333 250.049,76.5698 250,75 250.049,73.4302 250.197,71.8667 250.443,70.3155 250.785,68.7828 251.224,67.2746 251.756,65.7969 252.379,64.3555 253.092,62.9562 253.892,61.6043 254.775,60.3054 255.737,59.0644 256.776,57.8863 257.886,56.7758 259.064,55.7372 260.305,54.7746 261.604,53.8918 262.956,53.0923 264.356,52.3793 265.797,51.7556 267.275,51.2236 268.783,50.7854 270.315,50.4428 271.867,50.1971 273.43,50.0493 275,50 276.57,50.0493 278.133,50.1971 279.685,50.4428 281.217,50.7854 282.725,51.2236 284.203,51.7556 285.644,52.3793 287.044,53.0923 288.396,53.8918 289.695,54.7746 290.936,55.7372 292.114,56.7758 293.224,57.8863 294.263,59.0644 295.225,60.3054 296.108,61.6043 296.908,62.9562 297.621,64.3555 298.244,65.7969 298.776,67.2746 299.215,68.7828 299.557,70.3155 299.803,71.8667 299.951,73.4302 " style="fill:green" />
<polygon points="300,125 299.951,126.57 299.803,128.133 299.557,129.685 299.215,131.217 298.776,132.725 298.244,134.203 297.621,135.644 296.908,137.044 296.108,138.396 295.225,139.695 294.263,140.936 293.224,142.114 292.114,143.224 290.936,144.263 289.695,145.225 288.396,146.108 287.044,146.908 285.644,147.621 284.203,148.244 282.725,148.776 281.217,149.215 279.685,149.557 278.133,149.803 276.57,149.951 275,150 273.43,149.951 271.867,149.803 270.315,149.557 268.783,149.215 267.275,148.776 265.797,148.244 264.356,147.621 262.956,146.908 261.604,146.108 260.305,145.225 259.064,144.263 257.886,143.224 256.776,142.114 255.737,140.936 254.775,139.695 253.892,138.396 253.092,137.044 252.379,135.644 251.756,134.203 251.224,132.725 250.785,131.217 250.443,129.685 250.197,128.133 250.049,126.57 250,125 250.049,123.43 250.197,121.867 250.443,120.315 250.785,118.783 251.224,117.275 251.756,115.797 252.379,114.356 253.092,112.956 253.892,111.604 254.775,110.305 255.737,109.064 256.776,107.886 257.886,106.776 259.064,105.737 260.305,104.775 261.604,103.892 262.956,103.092 264.356,102.379 265.797,101.756 267.275,101.224 268.783,100.785 270.315,100.443 271.867,100.197 273.43,100.049 275,100 276.57,100.049 278.133,100.197 279.685,100.443 281.217,100.785 282.725,101.224 284.203,101.756 285.644,102.379 287.044,103.092 288.396,103.892 289.695,104.775 290.936,105.737 292.114,106.776 293.224,107.886 294.263,109.064 295.225,110.305 296.108,111.604 296.908,112.956 297.621,114.356 298.244,115.797 298.776,117.275 299.215,118.783 299.557,120.315 299.803,121.867 299.951,123.43 " style="fill:green" />
<polygon points="300,175 299.951,176.57 299.803,178.133 299.557,179.685 299.215,181.217 298.776,182.725 298.244,184.203 297.621,185.644 296.908,187.044 296.108,188.396 295.225,189.695 294.263,190.936 293.224,192.114 292.114,193.224 290.936,194.263 289.695,195.225 288.396,196.108 287.044,196.908 285.644,197.621 284.203,198.244 282.725,198.776 281.217,199.215 279.685,199.557 278.133,199.803 276.57,199.951 275,200 273.43,199.951 271.867,199.803 270.315,199.557 268.783,199.215 267.275,198.776 265.797,198.244 264.356,197.621 262.956,196.908 261.604,196.108 260.305,195.225 259.064,194.263 257.886,193.224 256.776,192.114 255.737,190.936 254.775,189.695 253.892,188.396 253.092,187.044 252.379,185.644 251.756,184.203 251.224,182.725 250.785,181.217 250.443,179.685 250.197,178.133 250.049,176.57 250,175 250.049,173.43 250.197,171.867 250.443,170.315 250.785,168.783 251.224,167.275 251.756,165.797 252.379,164.356 253.092,162.956 253.892,161.604 254.775,160.305 255.737,159.064 256.776,157.886 257.886,156.776 259.064,155.737 260.305,154.775 261.604,153.892 262.956,153.092 264.356,152.379 265.797,151.756 267.275,151.224 268.783,150.785 270.315,150.443 271.867,150.197 273.43,150.049 275,150 276.57,150.049 278.133,150.197 279.685,150.443 281.217,150.785 282.725,151.224 284.203,151.756 285.644,152.379 287.044,153.092 288.396,153.892 289.695,154.775 290.936,155.737 292.114,156.776 293.224,157.886 294.263,159.064 295.225,160.305 296.108,161.604 296.908,162.956 297.621,164.356 298.244,165.797 298.776,167.275 299.215,168.783 299.557,170.315 299.803,171.867 299.951,173.43 " style="fill:green" />
<polygon points="50,50 50,70 80,70 80,50 " style="fill:pink" />
<polygon points="285,100 284.931,102.198 284.724,104.387 284.38,106.558 283.9,108.704 283.287,110.816 282.542,112.884 281.669,114.902 280.671,116.861 279.551,118.754 278.316,120.572 276.968,122.31 275.514,123.959 273.959,125.514 272.31,126.968 270.572,128.316 268.754,129.551 266.861,130.671 264.902,131.669 262.884,132.542 260.816,133.287 258.704,133.9 256.558,134.38 254.387,134.724 252.198,134.931 250,135 247.802,134.931 245.613,134.724 243.442,134.38 241.296,133.9 239.184,133.287 237.116,132.542 235.098,131.669 233.139,130.671 231.246,129.551 229.428,128.316 227.69,126.968 226.041,125.514 224.486,123.959 223.032,122.31 221.684,120.572 220.449,118.754 219.329,116.861 218.331,114.902 217.458,112.884 216.713,110.816 216.1,108.704 215.62,106.558 215.276,104.387 215.069,102.198 215,100 215.069,97.8023 215.276,95.6133 215.62,93.4417 216.1,91.2959 216.713,89.1844 217.458,87.1156 218.331,85.0977 219.329,83.1386 220.449,81.2461 221.684,79.4275 223.032,77.6902 224.486,76.0409 226.041,74.4861 227.69,73.032 229.428,71.6844 231.246,70.4485 233.139,69.3293 235.098,68.3311 237.116,67.4578 239.184,66.713 241.296,66.0996 243.442,65.6199 245.613,65.276 247.802,65.0691 250,65 252.198,65.0691 254.387,65.276 256.558,65.6199 258.704,66.0996 260.816,66.713 262.884,67.4578 264.902,68.3311 266.861,69.3293 268.754,70.4485 270.572,71.6844 272.31,73.032 273.959,74.4861 275.514,76.0409 276.968,77.6902 278.316,79.4275 279.551,81.2461 280.671,83.1386 281.669,85.0977 282.542,87.1156 283.287,89.1844 283.9,91.2959 284.38,93.4417 284.724,95.6133 284.931,97.8023 " style="fill:yellow" />
<polygon points="20,0 0,34.641 40,34.641 " style="fill:blue" />
</svg>