<svg version="1.1"
baseProfile="full"
xmlns="http://www.w3.org/2000/svg">
<polygon points="250 0,0 433.013,500 433.013" fill="red"/>
<circle cx="121.244" cy="363.013" r="70" fill="green"/>
<circle cx="261.244" cy="363.013" r="70" fill="green"/>
<circle cx="191.244" cy="241.769" r="70" fill="green"/>
<polygon points="100,50 99.9013,53.1395 99.6057,56.2667 99.1144,59.3691 98.4292,62.4345 97.5528,65.4508 96.4888,68.4062 95.2414,71.289 93.8153,74.0877 92.2164,76.7913 90.4508,79.3893 88.5257,81.8712 86.4484,84.2274 84.2274,86.4484 81.8712,88.5257 79.3893,90.4508 76.7913,92.2164 74.0877,93.8153 71.289,95.2414 68.4062,96.4888 65.4508,97.5528 62.4345,98.4292 59.3691,99.1144 56.2667,99.6057 53.1395,99.9013 50,100 46.8605,99.9013 43.7333,99.6057 40.6309,99.1144 37.5655,98.4292 34.5492,97.5528 31.5938,96.4888 28.711,95.2414 25.9123,93.8153 23.2087,92.2164 20.6107,90.4508 18.1288,88.5257 15.7726,86.4484 13.5516,84.2274 11.4743,81.8712 9.54915,79.3893 7.7836,76.7913 6.18467,74.0877 4.75865,71.289 3.51118,68.4062 2.44717,65.4508 1.57084,62.4345 0.885637,59.3691 0.394265,56.2667 0.0986636,53.1395 0,50 0.0986636,46.8605 0.394265,43.7333 0.885637,40.6309 1.57084,37.5655 2.44717,34.5492 3.51118,31.5938 4.75865,28.711 6.18467,25.9123 7.7836,23.2087 9.54915,20.6107 11.4743,18.1288 13.5516,15.7726 15.7726,13.5516 18.1288,11.4743 20.6107,9.54915 23.2087,7.7836 25.9123,6.18467 28.711,4.75865 31.5938,3.51118 34.5492,2.44717 37.5655,1.57084 40.6309,0.885637 43.7333,0.394265 46.8605,0.0986636 50,0 53.1395,0.0986636 56.2667,0.394265 59.3691,0.885637 62.4345,1.57084 65.4508,2.44717 68.4062,3.51118 71.289,4.75865 74.0877,6.18467 76.7913,7.7836 79.3893,9.54915 81.8712,11.4743 84.2274,13.5516 86.4484,15.7726 88.5257,18.1288 90.4508,20.6107 92.2164,23.2087 93.8153,25.9123 95.2414,28.711 96.4888,31.5938 97.5528,34.5492 98.4292,37.5655 99.1144,40.6309 99.6057,43.7333 99.9013,46.8605 " style="fill:yellow" />
<polygon points="10,0 0,17.3205 20,17.3205 " style="fill:blue" />
<polygon points="30,40 30,65 60,65 60,40 " style="fill:red" />
</svg>