<svg version="1.1"
baseProfile="full"
xmlns="http://www.w3.org/2000/svg">
<circle cx="11" cy="11" r="10" fill="red"/>
<circle cx="11" cy="11" r="10" fill="red"/>
<circle cx="12" cy="12" r="10" fill="red"/>
<circle cx="12" cy="12" r="10" fill="red"/>
<circle cx="10" cy="10" r="10" fill="red"/>
<rect x="1" y="41" width="40" height="50" fill="red"/>
<rect x="1" y="41" width="40" height="50" fill="red"/>
<rect x="2" y="42" width="40" height="50" fill="red"/>
<rect x="2" y="42" width="40" height="50" fill="red"/>
<rect x="0" y="40" width="40" height="50" fill="red"/>
<polygon points="21,11 20.9803,11.6279 20.9211,12.2533 20.8229,12.8738 20.6858,13.4869 20.5106,14.0902 20.2978,14.6812 20.0483,15.2578 19.7631,15.8175 19.4433,16.3583 19.0902,16.8779 18.7051,17.3742 18.2897,17.8455 17.8455,18.2897 17.3742,18.7051 16.8779,19.0902 16.3583,19.4433 15.8175,19.7631 15.2578,20.0483 14.6812,20.2978 14.0902,20.5106 13.4869,20.6858 12.8738,20.8229 12.2533,20.9211 11.6279,20.9803 11,21 10.3721,20.9803 9.74667,20.9211 9.12619,20.8229 8.5131,20.6858 7.90983,20.5106 7.31875,20.2978 6.74221,20.0483 6.18246,19.7631 5.64173,19.4433 5.12215,19.0902 4.62576,18.7051 4.15453,18.2897 3.71031,17.8455 3.29487,17.3742 2.90983,16.8779 2.55672,16.3583 2.23693,15.8175 1.95173,15.2578 1.70224,14.6812 1.48943,14.0902 1.31417,13.4869 1.17713,12.8738 1.07885,12.2533 1.01973,11.6279 1,11 1.01973,10.3721 1.07885,9.74667 1.17713,9.12619 1.31417,8.5131 1.48943,7.90983 1.70224,7.31875 1.95173,6.74221 2.23693,6.18246 2.55672,5.64173 2.90983,5.12215 3.29487,4.62576 3.71031,4.15453 4.15453,3.71031 4.62576,3.29487 5.12215,2.90983 5.64173,2.55672 6.18246,2.23693 6.74221,1.95173 7.31875,1.70224 7.90983,1.48943 8.5131,1.31417 9.12619,1.17713 9.74667,1.07885 10.3721,1.01973 11,1 11.6279,1.01973 12.2533,1.07885 12.8738,1.17713 13.4869,1.31417 14.0902,1.48943 14.6812,1.70224 15.2578,1.95173 15.8175,2.23693 16.3583,2.55672 16.8779,2.90983 17.3742,3.29487 17.8455,3.71031 18.2897,4.15453 18.7051,4.62576 19.0902,5.12215 19.4433,5.64173 19.7631,6.18246 20.0483,6.74221 20.2978,7.31875 20.5106,7.90983 20.6858,8.5131 20.8229,9.12619 20.9211,9.74667 20.9803,10.3721 " style="fill:red" />
<polygon points="21,11 20.9803,11.6279 20.9211,12.2533 20.8229,12.8738 20.6858,13.4869 20.5106,14.0902 20.2978,14.6812 20.0483,15.2578 19.7631,15.8175 19.4433,16.3583 19.0902,16.8779 18.7051,17.3742 18.2897,17.8455 17.8455,18.2897 17.3742,18.7051 16.8779,19.0902 16.3583,19.4433 15.8175,19.7631 15.2578,20.0483 14.6812,20.2978 14.0902,20.5106 13.4869,20.6858 12.8738,20.8229 12.2533,20.9211 11.6279,20.9803 11,21 10.3721,20.9803 9.74667,20.9211 9.12619,20.8229 8.5131,20.6858 7.90983,20.5106 7.31875,20.2978 6.74221,20.0483 6.18246,19.7631 5.64173,19.4433 5.12215,19.0902 4.62576,18.7051 4.15453,18.2897 3.71031,17.8455 3.29487,17.3742 2.90983,16.8779 2.55672,16.3583 2.23693,15.8175 1.95173,15.2578 1.70224,14.6812 1.48943,14.0902 1.31417,13.4869 1.17713,12.8738 1.07885,12.2533 1.01973,11.6279 1,11 1.01973,10.3721 1.07885,9.74667 1.17713,9.12619 1.31417,8.5131 1.48943,7.90983 1.70224,7.31875 1.95173,6.74221 2.23693,6.18246 2.55672,5.64173 2.90983,5.12215 3.29487,4.62576 3.71031,4.15453 4.15453,3.71031 4.62576,3.29487 5.12215,2.90983 5.64173,2.55672 6.18246,2.23693 6.74221,1.95173 7.31875,1.70224 7.90983,1.48943 8.5131,1.31417 9.12619,1.17713 9.74667,1.07885 10.3721,1.01973 11,1 11.6279,1.01973 12.2533,1.07885 12.8738,1.17713 13.4869,1.31417 14.0902,1.48943 14.6812,1.70224 15.2578,1.95173 15.8175,2.23693 16.3583,2.55672 16.8779,2.90983 17.3742,3.29487 17.8455,3.71031 18.2897,4.15453 18.7051,4.62576 19.0902,5.12215 19.4433,5.64173 19.7631,6.18246 20.0483,6.74221 20.2978,7.31875 20.5106,7.90983 20.6858,8.5131 20.8229,9.12619 20.9211,9.74667 20.9803,10.3721 " style="fill:red" />
<polygon points="22,12 21.9803,12.6279 21.9211,13.2533 21.8229,13.8738 21.6858,14.4869 21.5106,15.0902 21.2978,15.6812 21.0483,16.2578 20.7631,16.8175 20.4433,17.3583 20.0902,17.8779 19.7051,18.3742 19.2897,18.8455 18.8455,19.2897 18.3742,19.7051 17.8779,20.0902 17.3583,20.4433 16.8175,20.7631 16.2578,21.0483 15.6812,21.2978 15.0902,21.5106 14.4869,21.6858 13.8738,21.8229 13.2533,21.9211 12.6279,21.9803 12,22 11.3721,21.9803 10.7467,21.9211 10.1262,21.8229 9.5131,21.6858 8.90983,21.5106 8.31875,21.2978 7.74221,21.0483 7.18246,20.7631 6.64173,20.4433 6.12215,20.0902 5.62576,19.7051 5.15453,19.2897 4.71031,18.8455 4.29487,18.3742 3.90983,17.8779 3.55672,17.3583 3.23693,16.8175 2.95173,16.2578 2.70224,15.6812 2.48943,15.0902 2.31417,14.4869 2.17713,13.8738 2.07885,13.2533 2.01973,12.6279 2,12 2.01973,11.3721 2.07885,10.7467 2.17713,10.1262 2.31417,9.5131 2.48943,8.90983 2.70224,8.31875 2.95173,7.74221 3.23693,7.18246 3.55672,6.64173 3.90983,6.12215 4.29487,5.62576 4.71031,5.15453 5.15453,4.71031 5.62576,4.29487 6.12215,3.90983 6.64173,3.55672 7.18246,3.23693 7.74221,2.95173 8.31875,2.70224 8.90983,2.48943 9.5131,2.31417 10.1262,2.17713 10.7467,2.07885 11.3721,2.01973 12,2 12.6279,2.01973 13.2533,2.07885 13.8738,2.17713 14.4869,2.31417 15.0902,2.48943 15.6812,2.70224 16.2578,2.95173 16.8175,3.23693 17.3583,3.55672 17.8779,3.90983 18.3742,4.29487 18.8455,4.71031 19.2897,5.15453 19.7051,5.62576 20.0902,6.12215 20.4433,6.64173 20.7631,7.18246 21.0483,7.74221 21.2978,8.31875 21.5106,8.90983 21.6858,9.5131 21.8229,10.1262 21.9211,10.7467 21.9803,11.3721 " style="fill:red" />
<polygon points="22,12 21.9803,12.6279 21.9211,13.2533 21.8229,13.8738 21.6858,14.4869 21.5106,15.0902 21.2978,15.6812 21.0483,16.2578 20.7631,16.8175 20.4433,17.3583 20.0902,17.8779 19.7051,18.3742 19.2897,18.8455 18.8455,19.2897 18.3742,19.7051 17.8779,20.0902 17.3583,20.4433 16.8175,20.7631 16.2578,21.0483 15.6812,21.2978 15.0902,21.5106 14.4869,21.6858 13.8738,21.8229 13.2533,21.9211 12.6279,21.9803 12,22 11.3721,21.9803 10.7467,21.9211 10.1262,21.8229 9.5131,21.6858 8.90983,21.5106 8.31875,21.2978 7.74221,21.0483 7.18246,20.7631 6.64173,20.4433 6.12215,20.0902 5.62576,19.7051 5.15453,19.2897 4.71031,18.8455 4.29487,18.3742 3.90983,17.8779 3.55672,17.3583 3.23693,16.8175 2.95173,16.2578 2.70224,15.6812 2.48943,15.0902 2.31417,14.4869 2.17713,13.8738 2.07885,13.2533 2.01973,12.6279 2,12 2.01973,11.3721 2.07885,10.7467 2.17713,10.1262 2.31417,9.5131 2.48943,8.90983 2.70224,8.31875 2.95173,7.74221 3.23693,7.18246 3.55672,6.64173 3.90983,6.12215 4.29487,5.62576 4.71031,5.15453 5.15453,4.71031 5.62576,4.29487 6.12215,3.90983 6.64173,3.55672 7.18246,3.23693 7.74221,2.95173 8.31875,2.70224 8.90983,2.48943 9.5131,2.31417 10.1262,2.17713 10.7467,2.07885 11.3721,2.01973 12,2 12.6279,2.01973 13.2533,2.07885 13.8738,2.17713 14.4869,2.31417 15.0902,2.48943 15.6812,2.70224 16.2578,2.95173 16.8175,3.23693 17.3583,3.55672 17.8779,3.90983 18.3742,4.29487 18.8455,4.71031 19.2897,5.15453 19.7051,5.62576 20.0902,6.12215 20.4433,6.64173 20.7631,7.18246 21.0483,7.74221 21.2978,8.31875 21.5106,8.90983 21.6858,9.5131 21.8229,10.1262 21.9211,10.7467 21.9803,11.3721 " style="fill:red" />
<polygon points="20,10 19.9803,10.6279 19.9211,11.2533 19.8229,11.8738 19.6858,12.4869 19.5106,13.0902 19.2978,13.6812 19.0483,14.2578 18.7631,14.8175 18.4433,15.3583 18.0902,15.8779 17.7051,16.3742 17.2897,16.8455 16.8455,17.2897 16.3742,17.7051 15.8779,18.0902 15.3583,18.4433 14.8175,18.7631 14.2578,19.0483 13.6812,19.2978 13.0902,19.5106 12.4869,19.6858 11.8738,19.8229 11.2533,19.9211 10.6279,19.9803 10,20 9.37209,19.9803 8.74667,19.9211 8.12619,19.8229 7.5131,19.6858 6.90983,19.5106 6.31875,19.2978 5.74221,19.0483 5.18246,18.7631 4.64173,18.4433 4.12215,18.0902 3.62576,17.7051 3.15453,17.2897 2.71031,16.8455 2.29487,16.3742 1.90983,15.8779 1.55672,15.3583 1.23693,14.8175 0.951729,14.2578 0.702235,13.6812 0.489435,13.0902 0.314168,12.4869 0.177127,11.8738 0.078853,11.2533 0.0197327,10.6279 0,10 0.0197327,9.37209 0.078853,8.74667 0.177127,8.12619 0.314168,7.5131 0.489435,6.90983 0.702235,6.31875 0.951729,5.74221 1.23693,5.18246 1.55672,4.64173 1.90983,4.12215 2.29487,3.62576 2.71031,3.15453 3.15453,2.71031 3.62576,2.29487 4.12215,1.90983 4.64173,1.55672 5.18246,1.23693 5.74221,0.951729 6.31875,0.702235 6.90983,0.489435 7.5131,0.314168 8.12619,0.177127 8.74667,0.078853 9.37209,0.0197327 10,0 10.6279,0.0197327 11.2533,0.078853 11.8738,0.177127 12.4869,0.314168 13.0902,0.489435 13.6812,0.702235 14.2578,0.951729 14.8175,1.23693 15.3583,1.55672 15.8779,1.90983 16.3742,2.29487 16.8455,2.71031 17.2897,3.15453 17.7051,3.62576 18.0902,4.12215 18.4433,4.64173 18.7631,5.18246 19.0483,5.74221 19.2978,6.31875 19.5106,6.90983 19.6858,7.5131 19.8229,8.12619 19.9211,8.74667 19.9803,9.37209 " style="fill:red" />
<polygon points="1,41 1,91 41,91 41,41 " style="fill:red" />
<polygon points="1,41 1,91 41,91 41,41 " style="fill:red" />
<polygon points="2,42 2,92 42,92 42,42 " style="fill:red" />
<polygon points="2,42 2,92 42,92 42,42 " style="fill:red" />
<polygon points="0,40 0,90 40,90 40,40 " style="fill:red" />
</svg>