<svg version="1.1"
baseProfile="full"
xmlns="http://www.w3.org/2000/svg">
<circle cx="500" cy="500" r="500" fill="red"/>
<circle cx="500" cy="22" r="22" fill="green"/>
<circle cx="500" cy="66" r="22" fill="green"/>
<circle cx="544" cy="66" r="22" fill="green"/>
<circle cx="588" cy="66" r="22" fill="green"/>
<circle cx="632" cy="66" r="22" fill="green"/>
<circle cx="676" cy="66" r="22" fill="green"/>
<circle cx="500" cy="110" r="22" fill="green"/>
<circle cx="544" cy="110" r="22" fill="green"/>
<circle cx="588" cy="110" r="22" fill="green"/>
<circle cx="632" cy="110" r="22" fill="green"/>
<circle cx="676" cy="110" r="22" fill="green"/>
<circle cx="720" cy="110" r="22" fill="green"/>
<circle cx="764" cy="110" r="22" fill="green"/>
<circle cx="500" cy="154" r="22" fill="green"/>
<circle cx="544" cy="154" r="22" fill="green"/>
<circle cx="588" cy="154" r="22" fill="green"/>
<circle cx="632" cy="154" r="22" fill="green"/>
<circle cx="676" cy="154" r="22" fill="green"/>
<circle cx="720" cy="154" r="22" fill="green"/>
<circle cx="764" cy="154" r="22" fill="green"/>
<circle cx="808" cy="154" r="22" fill="green"/>
<circle cx="500" cy="198" r="22" fill="green"/>
<circle cx="544" cy="198" r="22" fill="green"/>
<circle cx="588" cy="198" r="22" fill="green"/>
<circle cx="632" cy="198" r="22" fill="green"/>
<circle cx="676" cy="198" r="22" fill="green"/>
<circle cx="720" cy="198" r="22" fill="green"/>
<circle cx="764" cy="198" r="22" fill="green"/>
<circle cx="808" cy="198" r="22" fill="green"/>
<circle cx="852" cy="198" r="22" fill="green"/>
<circle cx="500" cy="242" r="22" fill="green"/>
<circle cx="544" cy="242" r="22" fill="green"/>
<circle cx="588" cy="242" r="22" fill="green"/>
<circle cx="632" cy="242" r="22" fill="green"/>
<circle cx="676" cy="242" r="22" fill="green"/>
<circle cx="720" cy="242" r="22" fill="green"/>
<circle cx="764" cy="242" r="22" fill="green"/>
<circle cx="808" cy="242" r="22" fill="green"/>
<circle cx="852" cy="242" r="22" fill="green"/>
<circle cx="896" cy="242" r="22" fill="green"/>
<circle cx="500" cy="286" r="22" fill="green"/>
<circle cx="544" cy="286" r="22" fill="green"/>
<circle cx="588" cy="286" r="22" fill="green"/>
<circle cx="632" cy="286" r="22" fill="green"/>
<circle cx="676" cy="286" r="22" fill="green"/>
<circle cx="720" cy="286" r="22" fill="green"/>
<circle cx="764" cy="286" r="22" fill="green"/>
<circle cx="808" cy="286" r="22" fill="green"/>
<circle cx="852" cy="286" r="22" fill="green"/>
<circle cx="896" cy="286" r="22" fill="green"/>
<circle cx="500" cy="330" r="22" fill="green"/>
<circle cx="544" cy="330" r="22" fill="green"/>
<circle cx="588" cy="330" r="22" fill="green"/>
<circle cx="632" cy="330" r="22" fill="green"/>
<circle cx="676" cy="330" r="22" fill="green"/>
<circle cx="720" cy="330" r="22" fill="green"/>
<circle cx="764" cy="330" r="22" fill="green"/>
<circle cx="808" cy="330" r="22" fill="green"/>
<circle cx="852" cy="330" r="22" fill="green"/>
<circle cx="896" cy="330" r="22" fill="green"/>
<circle cx="940" cy="330" r="22" fill="green"/>
<circle cx="500" cy="374" r="22" fill="green"/>
<circle cx="544" cy="374" r="22" fill="green"/>
<circle cx="588" cy="374" r="22" fill="green"/>
<circle cx="632" cy="374" r="22" fill="green"/>
<circle cx="676" cy="374" r="22" fill="green"/>
<circle cx="720" cy="374" r="22" fill="green"/>
<circle cx="764" cy="374" r="22" fill="green"/>
<circle cx="808" cy="374" r="22" fill="green"/>
<circle cx="852" cy="374" r="22" fill="green"/>
<circle cx="896" cy="374" r="22" fill="green"/>
<circle cx="940" cy="374" r="22" fill="green"/>
<circle cx="500" cy="418" r="22" fill="green"/>
<circle cx="544" cy="418" r="22" fill="green"/>
<circle cx="588" cy="418" r="22" fill="green"/>
<circle cx="632" cy="418" r="22" fill="green"/>
<circle cx="676" cy="418" r="22" fill="green"/>
<circle cx="720" cy="418" r="22" fill="green"/>
<circle cx="764" cy="418" r="22" fill="green"/>
<circle cx="808" cy="418" r="22" fill="green"/>
<circle cx="852" cy="418" r="22" fill="green"/>
<circle cx="896" cy="418" r="22" fill="green"/>
<circle cx="940" cy="418" r="22" fill="green"/>
<circle cx="500" cy="462" r="22" fill="green"/>
<circle cx="544" cy="462" r="22" fill="green"/>
<circle cx="588" cy="462" r="22" fill="green"/>
<circle cx="632" cy="462" r="22" fill="green"/>
<circle cx="676" cy="462" r="22" fill="green"/>
<circle cx="720" cy="462" r="22" fill="green"/>
<circle cx="764" cy="462" r="22" fill="green"/>
<circle cx="808" cy="462" r="22" fill="green"/>
<circle cx="852" cy="462" r="22" fill="green"/>
<circle cx="896" cy="462" r="22" fill="green"/>
<circle cx="940" cy="462" r="22" fill="green"/>
<circle cx="500" cy="506" r="22" fill="green"/>
<circle cx="544" cy="506" r="22" fill="green"/>
<circle cx="588" cy="506" r="22" fill="green"/>
<circle cx="632" cy="506" r="22" fill="green"/>
<circle cx="676" cy="506" r="22" fill="green"/>
<circle cx="720" cy="506" r="22" fill="green"/>
<circle cx="764" cy="506" r="22" fill="green"/>
<circle cx="808" cy="506" r="22" fill="green"/>
<circle cx="852" cy="506" r="22" fill="green"/>
<circle cx="896" cy="506" r="22" fill="green"/>
<circle cx="940" cy="506" r="22" fill="green"/>
<circle cx="500" cy="550" r="22" fill="green"/>
<circle cx="544" cy="550" r="22" fill="green"/>
<circle cx="588" cy="550" r="22" fill="green"/>
<circle cx="632" cy="550" r="22" fill="green"/>
<circle cx="676" cy="550" r="22" fill="green"/>
<circle cx="720" cy="550" r="22" fill="green"/>
<circle cx="764" cy="550" r="22" fill="green"/>
<circle cx="808" cy="550" r="22" fill="green"/>
<circle cx="852" cy="550" r="22" fill="green"/>
<circle cx="896" cy="550" r="22" fill="green"/>
<circle cx="940" cy="550" r="22" fill="green"/>
<circle cx="500" cy="594" r="22" fill="green"/>
<circle cx="544" cy="594" r="22" fill="green"/>
<circle cx="588" cy="594" r="22" fill="green"/>
<circle cx="632" cy="594" r="22" fill="green"/>
<circle cx="676" cy="594" r="22" fill="green"/>
<circle cx="720" cy="594" r="22" fill="green"/>
<circle cx="764" cy="594" r="22" fill="green"/>
<circle cx="808" cy="594" r="22" fill="green"/>
<circle cx="852" cy="594" r="22" fill="green"/>
<circle cx="896" cy="594" r="22" fill="green"/>
<circle cx="940" cy="594" r="22" fill="green"/>
<circle cx="500" cy="638" r="22" fill="green"/>
<circle cx="544" cy="638" r="22" fill="green"/>
<circle cx="588" cy="638" r="22" fill="green"/>
<circle cx="632" cy="638" r="22" fill="green"/>
<circle cx="676" cy="638" r="22" fill="green"/>
<circle cx="720" cy="638" r="22" fill="green"/>
<circle cx="764" cy="638" r="22" fill="green"/>
<circle cx="808" cy="638" r="22" fill="green"/>
<circle cx="852" cy="638" r="22" fill="green"/>
<circle cx="896" cy="638" r="22" fill="green"/>
<circle cx="940" cy="638" r="22" fill="green"/>
<circle cx="500" cy="682" r="22" fill="green"/>
<circle cx="544" cy="682" r="22" fill="green"/>
<circle cx="588" cy="682" r="22" fill="green"/>
<circle cx="632" cy="682" r="22" fill="green"/>
<circle cx="676" cy="682" r="22" fill="green"/>
<circle cx="720" cy="682" r="22" fill="green"/>
<circle cx="764" cy="682" r="22" fill="green"/>
<circle cx="808" cy="682" r="22" fill="green"/>
<circle cx="852" cy="682" r="22" fill="green"/>
<circle cx="896" cy="682" r="22" fill="green"/>
<circle cx="940" cy="682" r="22" fill="green"/>
<circle cx="500" cy="726" r="22" fill="green"/>
<circle cx="544" cy="726" r="22" fill="green"/>
<circle cx="588" cy="726" r="22" fill="green"/>
<circle cx="632" cy="726" r="22" fill="green"/>
<circle cx="676" cy="726" r="22" fill="green"/>
<circle cx="720" cy="726" r="22" fill="green"/>
<circle cx="764" cy="726" r="22" fill="green"/>
<circle cx="808" cy="726" r="22" fill="green"/>
<circle cx="852" cy="726" r="22" fill="green"/>
<circle cx="896" cy="726" r="22" fill="green"/>
<circle cx="500" cy="770" r="22" fill="green"/>
<circle cx="544" cy="770" r="22" fill="green"/>
<circle cx="588" cy="770" r="22" fill="green"/>
<circle cx="632" cy="770" r="22" fill="green"/>
<circle cx="676" cy="770" r="22" fill="green"/>
<circle cx="720" cy="770" r="22" fill="green"/>
<circle cx="764" cy="770" r="22" fill="green"/>
<circle cx="808" cy="770" r="22" fill="green"/>
<circle cx="852" cy="770" r="22" fill="green"/>
<circle cx="500" cy="814" r="22" fill="green"/>
<circle cx="544" cy="814" r="22" fill="green"/>
<circle cx="588" cy="814" r="22" fill="green"/>
<circle cx="632" cy="814" r="22" fill="green"/>
<circle cx="676" cy="814" r="22" fill="green"/>
<circle cx="720" cy="814" r="22" fill="green"/>
<circle cx="764" cy="814" r="22" fill="green"/>
<circle cx="808" cy="814" r="22" fill="green"/>
<circle cx="852" cy="814" r="22" fill="green"/>
<circle cx="500" cy="858" r="22" fill="green"/>
<circle cx="544" cy="858" r="22" fill="green"/>
<circle cx="588" cy="858" r="22" fill="green"/>
<circle cx="632" cy="858" r="22" fill="green"/>
<circle cx="676" cy="858" r="22" fill="green"/>
<circle cx="720" cy="858" r="22" fill="green"/>
<circle cx="764" cy="858" r="22" fill="green"/>
<circle cx="808" cy="858" r="22" fill="green"/>
<circle cx="500" cy="902" r="22" fill="green"/>
<circle cx="544" cy="902" r="22" fill="green"/>
<circle cx="588" cy="902" r="22" fill="green"/>
<circle cx="632" cy="902" r="22" fill="green"/>
<circle cx="676" cy="902" r="22" fill="green"/>
<circle cx="720" cy="902" r="22" fill="green"/>
<circle cx="500" cy="946" r="22" fill="green"/>
<circle cx="544" cy="946" r="22" fill="green"/>
<circle cx="588" cy="946" r="22" fill="green"/>
<circle cx="632" cy="946" r="22" fill="green"/>
<circle cx="456" cy="66" r="22" fill="green"/>
<circle cx="412" cy="66" r="22" fill="green"/>
<circle cx="368" cy="66" r="22" fill="green"/>
<circle cx="324" cy="66" r="22" fill="green"/>
<circle cx="456" cy="110" r="22" fill="green"/>
<circle cx="412" cy="110" r="22" fill="green"/>
<circle cx="368" cy="110" r="22" fill="green"/>
<circle cx="324" cy="110" r="22" fill="green"/>
<circle cx="280" cy="110" r="22" fill="green"/>
<circle cx="236" cy="110" r="22" fill="green"/>
<circle cx="456" cy="154" r="22" fill="green"/>
<circle cx="412" cy="154" r="22" fill="green"/>
<circle cx="368" cy="154" r="22" fill="green"/>
<circle cx="324" cy="154" r="22" fill="green"/>
<circle cx="280" cy="154" r="22" fill="green"/>
<circle cx="236" cy="154" r="22" fill="green"/>
<circle cx="192" cy="154" r="22" fill="green"/>
<circle cx="456" cy="198" r="22" fill="green"/>
<circle cx="412" cy="198" r="22" fill="green"/>
<circle cx="368" cy="198" r="22" fill="green"/>
<circle cx="324" cy="198" r="22" fill="green"/>
<circle cx="280" cy="198" r="22" fill="green"/>
<circle cx="236" cy="198" r="22" fill="green"/>
<circle cx="192" cy="198" r="22" fill="green"/>
<circle cx="148" cy="198" r="22" fill="green"/>
<circle cx="456" cy="242" r="22" fill="green"/>
<circle cx="412" cy="242" r="22" fill="green"/>
<circle cx="368" cy="242" r="22" fill="green"/>
<circle cx="324" cy="242" r="22" fill="green"/>
<circle cx="280" cy="242" r="22" fill="green"/>
<circle cx="236" cy="242" r="22" fill="green"/>
<circle cx="192" cy="242" r="22" fill="green"/>
<circle cx="148" cy="242" r="22" fill="green"/>
<circle cx="104" cy="242" r="22" fill="green"/>
<circle cx="456" cy="286" r="22" fill="green"/>
<circle cx="412" cy="286" r="22" fill="green"/>
<circle cx="368" cy="286" r="22" fill="green"/>
<circle cx="324" cy="286" r="22" fill="green"/>
<circle cx="280" cy="286" r="22" fill="green"/>
<circle cx="236" cy="286" r="22" fill="green"/>
<circle cx="192" cy="286" r="22" fill="green"/>
<circle cx="148" cy="286" r="22" fill="green"/>
<circle cx="104" cy="286" r="22" fill="green"/>
<circle cx="456" cy="330" r="22" fill="green"/>
<circle cx="412" cy="330" r="22" fill="green"/>
<circle cx="368" cy="330" r="22" fill="green"/>
<circle cx="324" cy="330" r="22" fill="green"/>
<circle cx="280" cy="330" r="22" fill="green"/>
<circle cx="236" cy="330" r="22" fill="green"/>
<circle cx="192" cy="330" r="22" fill="green"/>
<circle cx="148" cy="330" r="22" fill="green"/>
<circle cx="104" cy="330" r="22" fill="green"/>
<circle cx="60" cy="330" r="22" fill="green"/>
<circle cx="456" cy="374" r="22" fill="green"/>
<circle cx="412" cy="374" r="22" fill="green"/>
<circle cx="368" cy="374" r="22" fill="green"/>
<circle cx="324" cy="374" r="22" fill="green"/>
<circle cx="280" cy="374" r="22" fill="green"/>
<circle cx="236" cy="374" r="22" fill="green"/>
<circle cx="192" cy="374" r="22" fill="green"/>
<circle cx="148" cy="374" r="22" fill="green"/>
<circle cx="104" cy="374" r="22" fill="green"/>
<circle cx="60" cy="374" r="22" fill="green"/>
<circle cx="456" cy="418" r="22" fill="green"/>
<circle cx="412" cy="418" r="22" fill="green"/>
<circle cx="368" cy="418" r="22" fill="green"/>
<circle cx="324" cy="418" r="22" fill="green"/>
<circle cx="280" cy="418" r="22" fill="green"/>
<circle cx="236" cy="418" r="22" fill="green"/>
<circle cx="192" cy="418" r="22" fill="green"/>
<circle cx="148" cy="418" r="22" fill="green"/>
<circle cx="104" cy="418" r="22" fill="green"/>
<circle cx="60" cy="418" r="22" fill="green"/>
<circle cx="456" cy="462" r="22" fill="green"/>
<circle cx="412" cy="462" r="22" fill="green"/>
<circle cx="368" cy="462" r="22" fill="green"/>
<circle cx="324" cy="462" r="22" fill="green"/>
<circle cx="280" cy="462" r="22" fill="green"/>
<circle cx="236" cy="462" r="22" fill="green"/>
<circle cx="192" cy="462" r="22" fill="green"/>
<circle cx="148" cy="462" r="22" fill="green"/>
<circle cx="104" cy="462" r="22" fill="green"/>
<circle cx="60" cy="462" r="22" fill="green"/>
<circle cx="456" cy="506" r="22" fill="green"/>
<circle cx="412" cy="506" r="22" fill="green"/>
<circle cx="368" cy="506" r="22" fill="green"/>
<circle cx="324" cy="506" r="22" fill="green"/>
<circle cx="280" cy="506" r="22" fill="green"/>
<circle cx="236" cy="506" r="22" fill="green"/>
<circle cx="192" cy="506" r="22" fill="green"/>
<circle cx="148" cy="506" r="22" fill="green"/>
<circle cx="104" cy="506" r="22" fill="green"/>
<circle cx="60" cy="506" r="22" fill="green"/>
<circle cx="456" cy="550" r="22" fill="green"/>
<circle cx="412" cy="550" r="22" fill="green"/>
<circle cx="368" cy="550" r="22" fill="green"/>
<circle cx="324" cy="550" r="22" fill="green"/>
<circle cx="280" cy="550" r="22" fill="green"/>
<circle cx="236" cy="550" r="22" fill="green"/>
<circle cx="192" cy="550" r="22" fill="green"/>
<circle cx="148" cy="550" r="22" fill="green"/>
<circle cx="104" cy="550" r="22" fill="green"/>
<circle cx="60" cy="550" r="22" fill="green"/>
<circle cx="456" cy="594" r="22" fill="green"/>
<circle cx="412" cy="594" r="22" fill="green"/>
<circle cx="368" cy="594" r="22" fill="green"/>
<circle cx="324" cy="594" r="22" fill="green"/>
<circle cx="280" cy="594" r="22" fill="green"/>
<circle cx="236" cy="594" r="22" fill="green"/>
<circle cx="192" cy="594" r="22" fill="green"/>
<circle cx="148" cy="594" r="22" fill="green"/>
<circle cx="104" cy="594" r="22" fill="green"/>
<circle cx="60" cy="594" r="22" fill="green"/>
<circle cx="456" cy="638" r="22" fill="green"/>
<circle cx="412" cy="638" r="22" fill="green"/>
<circle cx="368" cy="638" r="22" fill="green"/>
<circle cx="324" cy="638" r="22" fill="green"/>
<circle cx="280" cy="638" r="22" fill="green"/>
<circle cx="236" cy="638" r="22" fill="green"/>
<circle cx="192" cy="638" r="22" fill="green"/>
<circle cx="148" cy="638" r="22" fill="green"/>
<circle cx="104" cy="638" r="22" fill="green"/>
<circle cx="60" cy="638" r="22" fill="green"/>
<circle cx="456" cy="682" r="22" fill="green"/>
<circle cx="412" cy="682" r="22" fill="green"/>
<circle cx="368" cy="682" r="22" fill="green"/>
<circle cx="324" cy="682" r="22" fill="green"/>
<circle cx="280" cy="682" r="22" fill="green"/>
<circle cx="236" cy="682" r="22" fill="green"/>
<circle cx="192" cy="682" r="22" fill="green"/>
<circle cx="148" cy="682" r="22" fill="green"/>
<circle cx="104" cy="682" r="22" fill="green"/>
<circle cx="60" cy="682" r="22" fill="green"/>
<circle cx="456" cy="726" r="22" fill="green"/>
<circle cx="412" cy="726" r="22" fill="green"/>
<circle cx="368" cy="726" r="22" fill="green"/>
<circle cx="324" cy="726" r="22" fill="green"/>
<circle cx="280" cy="726" r="22" fill="green"/>
<circle cx="236" cy="726" r="22" fill="green"/>
<circle cx="192" cy="726" r="22" fill="green"/>
<circle cx="148" cy="726" r="22" fill="green"/>
<circle cx="104" cy="726" r="22" fill="green"/>
<circle cx="456" cy="770" r="22" fill="green"/>
<circle cx="412" cy="770" r="22" fill="green"/>
<circle cx="368" cy="770" r="22" fill="green"/>
<circle cx="324" cy="770" r="22" fill="green"/>
<circle cx="280" cy="770" r="22" fill="green"/>
<circle cx="236" cy="770" r="22" fill="green"/>
<circle cx="192" cy="770" r="22" fill="green"/>
<circle cx="148" cy="770" r="22" fill="green"/>
<circle cx="456" cy="814" r="22" fill="green"/>
<circle cx="412" cy="814" r="22" fill="green"/>
<circle cx="368" cy="814" r="22" fill="green"/>
<circle cx="324" cy="814" r="22" fill="green"/>
<circle cx="280" cy="814" r="22" fill="green"/>
<circle cx="236" cy="814" r="22" fill="green"/>
<circle cx="192" cy="814" r="22" fill="green"/>
<circle cx="148" cy="814" r="22" fill="green"/>
<circle cx="456" cy="858" r="22" fill="green"/>
<circle cx="412" cy="858" r="22" fill="green"/>
<circle cx="368" cy="858" r="22" fill="green"/>
<circle cx="324" cy="858" r="22" fill="green"/>
<circle cx="280" cy="858" r="22" fill="green"/>
<circle cx="236" cy="858" r="22" fill="green"/>
<circle cx="192" cy="858" r="22" fill="green"/>
<circle cx="456" cy="902" r="22" fill="green"/>
<circle cx="412" cy="902" r="22" fill="green"/>
<circle cx="368" cy="902" r="22" fill="green"/>
<circle cx="324" cy="902" r="22" fill="green"/>
<circle cx="280" cy="902" r="22" fill="green"/>
<circle cx="456" cy="946" r="22" fill="green"/>
<circle cx="412" cy="946" r="22" fill="green"/>
<circle cx="368" cy="946" r="22" fill="green"/>
</svg>