<svg version="1.1"
baseProfile="full"
xmlns="http://www.w3.org/2000/svg">
<polygon points="250,0 0,433.013 500,433.013 " style="fill:red" />
<polygon points="191.244,363.013 191.105,367.408 190.692,371.786 190.004,376.129 189.044,380.421 187.818,384.644 186.328,388.781 184.581,392.817 182.585,396.735 180.347,400.521 177.875,404.158 175.179,407.632 172.271,410.931 169.162,414.041 165.863,416.949 162.389,419.644 158.751,422.116 154.966,424.354 151.048,426.351 147.012,428.097 142.875,429.587 138.652,430.814 134.36,431.773 130.017,432.461 125.639,432.875 121.244,433.013 116.848,432.875 112.47,432.461 108.127,431.773 103.835,430.814 99.6124,429.587 95.4748,428.097 91.439,426.351 87.5208,424.354 83.7357,422.116 80.0986,419.644 76.6239,416.949 73.3253,414.041 70.2158,410.931 67.3076,407.632 64.6124,404.158 62.1406,400.521 59.9021,396.735 57.9057,392.817 56.1592,388.781 54.6696,384.644 53.4427,380.421 52.4834,376.129 51.7955,371.786 51.3817,367.408 51.2436,363.013 51.3817,358.617 51.7955,354.239 52.4834,349.896 53.4427,345.604 54.6696,341.382 56.1592,337.244 57.9057,333.208 59.9021,329.29 62.1406,325.505 64.6124,321.868 67.3076,318.393 70.2158,315.094 73.3253,311.985 76.6239,309.077 80.0986,306.382 83.7357,303.91 87.5208,301.671 91.439,299.675 95.4748,297.928 99.6124,296.439 103.835,295.212 108.127,294.253 112.47,293.565 116.848,293.151 121.244,293.013 125.639,293.151 130.017,293.565 134.36,294.253 138.652,295.212 142.875,296.439 147.012,297.928 151.048,299.675 154.966,301.671 158.751,303.91 162.389,306.382 165.863,309.077 169.162,311.985 172.271,315.094 175.179,318.393 177.875,321.868 180.347,325.505 182.585,329.29 184.581,333.208 186.328,337.244 187.818,341.382 189.044,345.604 190.004,349.896 190.692,354.239 191.105,358.617 " style="fill:green" />
<polygon points="331.244,363.013 331.105,367.408 330.692,371.786 330.004,376.129 329.044,380.421 327.818,384.644 326.328,388.781 324.581,392.817 322.585,396.735 320.347,400.521 317.875,404.158 315.179,407.632 312.271,410.931 309.162,414.041 305.863,416.949 302.389,419.644 298.751,422.116 294.966,424.354 291.048,426.351 287.012,428.097 282.875,429.587 278.652,430.814 274.36,431.773 270.017,432.461 265.639,432.875 261.244,433.013 256.848,432.875 252.47,432.461 248.127,431.773 243.835,430.814 239.612,429.587 235.475,428.097 231.439,426.351 227.521,424.354 223.736,422.116 220.099,419.644 216.624,416.949 213.325,414.041 210.216,410.931 207.308,407.632 204.612,404.158 202.141,400.521 199.902,396.735 197.906,392.817 196.159,388.781 194.67,384.644 193.443,380.421 192.483,376.129 191.796,371.786 191.382,367.408 191.244,363.013 191.382,358.617 191.796,354.239 192.483,349.896 193.443,345.604 194.67,341.382 196.159,337.244 197.906,333.208 199.902,329.29 202.141,325.505 204.612,321.868 207.308,318.393 210.216,315.094 213.325,311.985 216.624,309.077 220.099,306.382 223.736,303.91 227.521,301.671 231.439,299.675 235.475,297.928 239.612,296.439 243.835,295.212 248.127,294.253 252.47,293.565 256.848,293.151 261.244,293.013 265.639,293.151 270.017,293.565 274.36,294.253 278.652,295.212 282.875,296.439 287.012,297.928 291.048,299.675 294.966,301.671 298.751,303.91 302.389,306.382 305.863,309.077 309.162,311.985 312.271,315.094 315.179,318.393 317.875,321.868 320.347,325.505 322.585,329.29 324.581,333.208 326.328,337.244 327.818,341.382 329.044,345.604 330.004,349.896 330.692,354.239 331.105,358.617 " style="fill:green" />
<polygon points="261.244,241.769 261.105,246.164 260.692,250.542 260.004,254.886 259.044,259.177 257.818,263.4 256.328,267.538 254.581,271.574 252.585,275.492 250.347,279.277 247.875,282.914 245.179,286.389 242.271,289.687 239.162,292.797 235.863,295.705 232.389,298.4 228.751,300.872 224.966,303.111 221.048,305.107 217.012,306.853 212.875,308.343 208.652,309.57 204.36,310.529 200.017,311.217 195.639,311.631 191.244,311.769 186.848,311.631 182.47,311.217 178.127,310.529 173.835,309.57 169.612,308.343 165.475,306.853 161.439,305.107 157.521,303.111 153.736,300.872 150.099,298.4 146.624,295.705 143.325,292.797 140.216,289.687 137.308,286.389 134.612,282.914 132.141,279.277 129.902,275.492 127.906,271.574 126.159,267.538 124.67,263.4 123.443,259.177 122.483,254.886 121.796,250.542 121.382,246.164 121.244,241.769 121.382,237.374 121.796,232.996 122.483,228.652 123.443,224.361 124.67,220.138 126.159,216 127.906,211.965 129.902,208.046 132.141,204.261 134.612,200.624 137.308,197.149 140.216,193.851 143.325,190.741 146.624,187.833 150.099,185.138 153.736,182.666 157.521,180.428 161.439,178.431 165.475,176.685 169.612,175.195 173.835,173.968 178.127,173.009 182.47,172.321 186.848,171.907 191.244,171.769 195.639,171.907 200.017,172.321 204.36,173.009 208.652,173.968 212.875,175.195 217.012,176.685 221.048,178.431 224.966,180.428 228.751,182.666 232.389,185.138 235.863,187.833 239.162,190.741 242.271,193.851 245.179,197.149 247.875,200.624 250.347,204.261 252.585,208.046 254.581,211.965 256.328,216 257.818,220.138 259.044,224.361 260.004,228.652 260.692,232.996 261.105,237.374 " style="fill:green" />
<polygon points="100,50 99.9013,53.1395 99.6057,56.2667 99.1144,59.3691 98.4292,62.4345 97.5528,65.4508 96.4888,68.4062 95.2414,71.289 93.8153,74.0877 92.2164,76.7913 90.4508,79.3893 88.5257,81.8712 86.4484,84.2274 84.2274,86.4484 81.8712,88.5257 79.3893,90.4508 76.7913,92.2164 74.0877,93.8153 71.289,95.2414 68.4062,96.4888 65.4508,97.5528 62.4345,98.4292 59.3691,99.1144 56.2667,99.6057 53.1395,99.9013 50,100 46.8605,99.9013 43.7333,99.6057 40.6309,99.1144 37.5655,98.4292 34.5492,97.5528 31.5938,96.4888 28.711,95.2414 25.9123,93.8153 23.2087,92.2164 20.6107,90.4508 18.1288,88.5257 15.7726,86.4484 13.5516,84.2274 11.4743,81.8712 9.54915,79.3893 7.7836,76.7913 6.18467,74.0877 4.75865,71.289 3.51118,68.4062 2.44717,65.4508 1.57084,62.4345 0.885637,59.3691 0.394265,56.2667 0.0986636,53.1395 0,50 0.0986636,46.8605 0.394265,43.7333 0.885637,40.6309 1.57084,37.5655 2.44717,34.5492 3.51118,31.5938 4.75865,28.711 6.18467,25.9123 7.7836,23.2087 9.54915,20.6107 11.4743,18.1288 13.5516,15.7726 15.7726,13.5516 18.1288,11.4743 20.6107,9.54915 23.2087,7.7836 25.9123,6.18467 28.711,4.75865 31.5938,3.51118 34.5492,2.44717 37.5655,1.57084 40.6309,0.885637 43.7333,0.394265 46.8605,0.0986636 50,0 53.1395,0.0986636 56.2667,0.394265 59.3691,0.885637 62.4345,1.57084 65.4508,2.44717 68.4062,3.51118 71.289,4.75865 74.0877,6.18467 76.7913,7.7836 79.3893,9.54915 81.8712,11.4743 84.2274,13.5516 86.4484,15.7726 88.5257,18.1288 90.4508,20.6107 92.2164,23.2087 93.8153,25.9123 95.2414,28.711 96.4888,31.5938 97.5528,34.5492 98.4292,37.5655 99.1144,40.6309 99.6057,43.7333 99.9013,46.8605 " style="fill:yellow" />
<polygon points="10,0 0,17.3205 20,17.3205 " style="fill:blue" />
<polygon points="30,40 30,65 60,65 60,40 " style="fill:red" />
</svg>