<svg version="1.1"
baseProfile="full"
xmlns="http://www.w3.org/2000/svg">
<rect x="0" y="0" width="300" height="200" fill="red"/>
<polygon points="0 30.3109,17.5 0,35 30.3109" fill="green"/>
<polygon points="0 60.6218,17.5 30.3109,35 60.6218" fill="green"/>
<polygon points="0 90.9327,17.5 60.6218,35 90.9327" fill="green"/>
<polygon points="0 121.244,17.5 90.9327,35 121.244" fill="green"/>
<polygon points="0 151.554,17.5 121.244,35 151.554" fill="green"/>
<polygon points="0 181.865,17.5 151.554,35 181.865" fill="green"/>
<polygon points="35 30.3109,52.5 0,70 30.3109" fill="green"/>
<polygon points="35 60.6218,52.5 30.3109,70 60.6218" fill="green"/>
<polygon points="35 90.9327,52.5 60.6218,70 90.9327" fill="green"/>
<polygon points="35 121.244,52.5 90.9327,70 121.244" fill="green"/>
<polygon points="35 151.554,52.5 121.244,70 151.554" fill="green"/>
<polygon points="35 181.865,52.5 151.554,70 181.865" fill="green"/>
<polygon points="70 30.3109,87.5 0,105 30.3109" fill="green"/>
<polygon points="70 60.6218,87.5 30.3109,105 60.6218" fill="green"/>
<polygon points="70 90.9327,87.5 60.6218,105 90.9327" fill="green"/>
<polygon points="70 121.244,87.5 90.9327,105 121.244" fill="green"/>
<polygon points="70 151.554,87.5 121.244,105 151.554" fill="green"/>
<polygon points="70 181.865,87.5 151.554,105 181.865" fill="green"/>
<polygon points="105 30.3109,122.5 0,140 30.3109" fill="green"/>
<polygon points="105 60.6218,122.5 30.3109,140 60.6218" fill="green"/>
<polygon points="105 90.9327,122.5 60.6218,140 90.9327" fill="green"/>
<polygon points="105 121.244,122.5 90.9327,140 121.244" fill="green"/>
<polygon points="105 151.554,122.5 121.244,140 151.554" fill="green"/>
<polygon points="105 181.865,122.5 151.554,140 181.865" fill="green"/>
<polygon points="140 30.3109,157.5 0,175 30.3109" fill="green"/>
<polygon points="140 60.6218,157.5 30.3109,175 60.6218" fill="green"/>
<polygon points="140 90.9327,157.5 60.6218,175 90.9327" fill="green"/>
<polygon points="140 121.244,157.5 90.9327,175 121.244" fill="green"/>
<polygon points="140 151.554,157.5 121.244,175 151.554" fill="green"/>
<polygon points="140 181.865,157.5 151.554,175 181.865" fill="green"/>
<polygon points="175 30.3109,192.5 0,210 30.3109" fill="green"/>
<polygon points="175 60.6218,192.5 30.3109,210 60.6218" fill="green"/>
<polygon points="175 90.9327,192.5 60.6218,210 90.9327" fill="green"/>
<polygon points="175 121.244,192.5 90.9327,210 121.244" fill="green"/>
<polygon points="175 151.554,192.5 121.244,210 151.554" fill="green"/>
<polygon points="175 181.865,192.5 151.554,210 181.865" fill="green"/>
<polygon points="210 30.3109,227.5 0,245 30.3109" fill="green"/>
<polygon points="210 60.6218,227.5 30.3109,245 60.6218" fill="green"/>
<polygon points="210 90.9327,227.5 60.6218,245 90.9327" fill="green"/>
<polygon points="210 121.244,227.5 90.9327,245 121.244" fill="green"/>
<polygon points="210 151.554,227.5 121.244,245 151.554" fill="green"/>
<polygon points="210 181.865,227.5 151.554,245 181.865" fill="green"/>
<polygon points="245 30.3109,262.5 0,280 30.3109" fill="green"/>
<polygon points="245 60.6218,262.5 30.3109,280 60.6218" fill="green"/>
<polygon points="245 90.9327,262.5 60.6218,280 90.9327" fill="green"/>
<polygon points="245 121.244,262.5 90.9327,280 121.244" fill="green"/>
<polygon points="245 151.554,262.5 121.244,280 151.554" fill="green"/>
<polygon points="245 181.865,262.5 151.554,280 181.865" fill="green"/>
<polygon points="17.5 0,52.5 0,35 30.3109" fill="green"/>
<polygon points="17.5 30.3109,52.5 30.3109,35 60.6218" fill="green"/>
<polygon points="17.5 60.6218,52.5 60.6218,35 90.9327" fill="green"/>
<polygon points="17.5 90.9327,52.5 90.9327,35 121.244" fill="green"/>
<polygon points="17.5 121.244,52.5 121.244,35 151.554" fill="green"/>
<polygon points="17.5 151.554,52.5 151.554,35 181.865" fill="green"/>
<polygon points="52.5 0,87.5 0,70 30.3109" fill="green"/>
<polygon points="52.5 30.3109,87.5 30.3109,70 60.6218" fill="green"/>
<polygon points="52.5 60.6218,87.5 60.6218,70 90.9327" fill="green"/>
<polygon points="52.5 90.9327,87.5 90.9327,70 121.244" fill="green"/>
<polygon points="52.5 121.244,87.5 121.244,70 151.554" fill="green"/>
<polygon points="52.5 151.554,87.5 151.554,70 181.865" fill="green"/>
<polygon points="87.5 0,122.5 0,105 30.3109" fill="green"/>
<polygon points="87.5 30.3109,122.5 30.3109,105 60.6218" fill="green"/>
<polygon points="87.5 60.6218,122.5 60.6218,105 90.9327" fill="green"/>
<polygon points="87.5 90.9327,122.5 90.9327,105 121.244" fill="green"/>
<polygon points="87.5 121.244,122.5 121.244,105 151.554" fill="green"/>
<polygon points="87.5 151.554,122.5 151.554,105 181.865" fill="green"/>
<polygon points="122.5 0,157.5 0,140 30.3109" fill="green"/>
<polygon points="122.5 30.3109,157.5 30.3109,140 60.6218" fill="green"/>
<polygon points="122.5 60.6218,157.5 60.6218,140 90.9327" fill="green"/>
<polygon points="122.5 90.9327,157.5 90.9327,140 121.244" fill="green"/>
<polygon points="122.5 121.244,157.5 121.244,140 151.554" fill="green"/>
<polygon points="122.5 151.554,157.5 151.554,140 181.865" fill="green"/>
<polygon points="157.5 0,192.5 0,175 30.3109" fill="green"/>
<polygon points="157.5 30.3109,192.5 30.3109,175 60.6218" fill="green"/>
<polygon points="157.5 60.6218,192.5 60.6218,175 90.9327" fill="green"/>
<polygon points="157.5 90.9327,192.5 90.9327,175 121.244" fill="green"/>
<polygon points="157.5 121.244,192.5 121.244,175 151.554" fill="green"/>
<polygon points="157.5 151.554,192.5 151.554,175 181.865" fill="green"/>
<polygon points="192.5 0,227.5 0,210 30.3109" fill="green"/>
<polygon points="192.5 30.3109,227.5 30.3109,210 60.6218" fill="green"/>
<polygon points="192.5 60.6218,227.5 60.6218,210 90.9327" fill="green"/>
<polygon points="192.5 90.9327,227.5 90.9327,210 121.244" fill="green"/>
<polygon points="192.5 121.244,227.5 121.244,210 151.554" fill="green"/>
<polygon points="192.5 151.554,227.5 151.554,210 181.865" fill="green"/>
<polygon points="227.5 0,262.5 0,245 30.3109" fill="green"/>
<polygon points="227.5 30.3109,262.5 30.3109,245 60.6218" fill="green"/>
<polygon points="227.5 60.6218,262.5 60.6218,245 90.9327" fill="green"/>
<polygon points="227.5 90.9327,262.5 90.9327,245 121.244" fill="green"/>
<polygon points="227.5 121.244,262.5 121.244,245 151.554" fill="green"/>
<polygon points="227.5 151.554,262.5 151.554,245 181.865" fill="green"/>
<polygon points="262.5 0,297.5 0,280 30.3109" fill="green"/>
<polygon points="262.5 30.3109,297.5 30.3109,280 60.6218" fill="green"/>
<polygon points="262.5 60.6218,297.5 60.6218,280 90.9327" fill="green"/>
<polygon points="262.5 90.9327,297.5 90.9327,280 121.244" fill="green"/>
<polygon points="262.5 121.244,297.5 121.244,280 151.554" fill="green"/>
<polygon points="262.5 151.554,297.5 151.554,280 181.865" fill="green"/>
</svg>